<svg width="400" height="349" viewBox="0 0 400 349" fill="none" xmlns="http://www.w3.org/2000/svg">
<path d="M288.889 302.389L295.976 327.198C295.976 327.198 301.124 333.617 303.486 339.653H263.326L270.247 329.402L264.834 302.389H288.889Z" fill="#9BB9B9"/>
<path d="M270.246 329.402L263.325 339.653H303.485C301.123 333.617 295.975 327.197 295.975 327.197C276.458 321.762 270.246 329.402 270.246 329.402Z" fill="#233332"/>
<path d="M263.326 339.652C263.326 339.652 269.357 328.947 284.615 330.844C299.873 332.741 303.486 339.652 303.486 339.652H263.326Z" fill="#9BB9B9"/>
<path d="M272.25 314.976L273.878 326.974" stroke="#F9F9F9" stroke-miterlimit="10" stroke-linecap="round" stroke-linejoin="round"/>
<path d="M280.239 314.976L281.958 325.276" stroke="#F9F9F9" stroke-miterlimit="10" stroke-linecap="round" stroke-linejoin="round"/>
<path d="M288.228 314.976L289.843 325.827" stroke="#F9F9F9" stroke-miterlimit="10" stroke-linecap="round" stroke-linejoin="round"/>
<path d="M203.014 298.57L204.741 325.78C204.741 325.78 188.908 332.821 186.317 339.441H229.397V298.571H203.014V298.57Z" fill="#9BB9B9"/>
<path d="M229.398 329.893C224.75 333.653 219.46 331.849 215.97 330.947C213.654 330.349 208.527 327.219 204.64 325.827C203.349 326.411 188.793 333.116 186.318 339.441H229.399V329.893H229.398Z" fill="#233332"/>
<path d="M201.865 336.83C201.462 334.024 197.512 331.843 195.344 330.844C191.42 333.327 187.497 336.426 186.317 339.44H229.398V336.83H201.865Z" fill="#9BB9B9"/>
<path d="M207.857 314.976V327.496" stroke="#F9F9F9" stroke-miterlimit="10" stroke-linecap="round" stroke-linejoin="round"/>
<path d="M216.329 314.976V331.041" stroke="#F9F9F9" stroke-miterlimit="10" stroke-linecap="round" stroke-linejoin="round"/>
<path d="M224.678 314.976L223.814 332.134" stroke="#F9F9F9" stroke-miterlimit="10" stroke-linecap="round" stroke-linejoin="round"/>
<path d="M202.295 161.856C202.295 161.856 193.756 238.992 196.37 263.169C198.984 287.345 199.911 314.976 199.911 314.976H235.545C235.545 314.976 238.136 285.331 233.796 262.48L235.549 227.192L261.455 314.977H296.288C296.288 314.977 299.887 284.756 284.773 258.852C278.278 247.72 280.743 199.418 262.894 161.857H202.295V161.856Z" fill="#4D60A4"/>
<path d="M207.857 254.534C207.857 245.632 203.036 238.416 197.088 238.416C196.768 238.416 196.454 238.446 196.141 238.487C195.759 248.558 195.745 257.381 196.37 263.168C196.637 265.637 196.886 268.142 197.118 270.649C203.052 270.624 207.857 263.42 207.857 254.534Z" fill="#3C4A77"/>
<path d="M235.549 227.191C235.549 227.191 215.666 209.83 223.007 161.855" stroke="#3C4A77" stroke-miterlimit="10" stroke-linecap="round" stroke-linejoin="round"/>
<path d="M262.836 270.443C267.952 269.47 270.798 261.845 269.193 253.412C267.589 244.979 262.141 238.932 257.025 239.905C251.91 240.878 249.064 248.503 250.668 256.936C252.273 265.368 257.721 271.416 262.836 270.443Z" fill="#3C4A77"/>
<path d="M216.314 161.856C216.314 161.856 209.009 197.178 223.134 200.806" stroke="#3C4A77" stroke-miterlimit="10" stroke-linecap="round" stroke-linejoin="round"/>
<path d="M251.508 161.856L260.306 196.122L274.974 200.805" stroke="#3C4A77" stroke-miterlimit="10" stroke-linecap="round" stroke-linejoin="round"/>
<path d="M289.843 314.976C289.843 314.976 286.198 278.835 278.713 259.263C271.228 239.691 268.882 198.861 268.882 198.861" stroke="#3C4A77" stroke-miterlimit="10" stroke-linecap="round" stroke-linejoin="round"/>
<path d="M228.465 314.976L224.045 263.669C223.891 261.887 223.908 260.094 224.096 258.316L228.465 216.915" stroke="#3C4A77" stroke-miterlimit="10" stroke-linecap="round" stroke-linejoin="round"/>
<path d="M205.389 28.231C204.221 28.1196 203.214 28.8113 202.158 28.6524C203.317 26.9022 204.791 25.0112 205.237 22.8724C205.603 21.1152 205.59 19.1258 205.263 17.3609C205.167 16.8463 204.569 14.9424 203.714 15.3361C203.005 15.6625 203.005 18.5637 203.016 19.2234C202.784 17.8928 202.789 16.5398 202.259 15.2826C201.967 14.5901 201.51 13.4753 200.779 13.1429C199.34 12.4875 199.985 15.8663 200.212 16.6287C200.045 16.0087 198.966 13.2258 198.081 14.8482C197.317 16.2488 198.536 18.4368 198.141 19.8952C197.813 18.9264 196.819 15.7557 195.354 15.9319C194.281 16.0605 194.999 17.9714 195.185 18.6803C195.406 19.5239 195.803 20.7431 195.106 21.4546C194.753 21.8138 194.302 22.0167 193.946 22.4096C193.53 22.8672 193.213 23.3343 192.87 23.8446C192.01 25.12 191.516 26.3124 191.423 27.8727C191.422 27.8865 191.423 27.8986 191.422 27.9124C189.051 28.8147 172.317 35.7854 165.545 55.2193C158.249 76.1582 159.544 82.2163 168.828 88.6853C173.01 91.5995 180.913 98.059 188.34 104.28C190.779 95.4963 194.169 83.2326 196.083 76.1099L185.885 70.2694C185.885 70.2694 192.199 41.7459 197.42 33.8142C198.444 33.4161 199.508 33.3401 200.646 32.9498C202.233 32.405 203.272 30.7575 204.904 30.4501C205.484 30.3405 208.059 30.7601 208.202 29.894C208.376 28.8311 206.065 28.2958 205.389 28.231Z" fill="#E6817D"/>
<path d="M185.885 70.2678C185.885 70.2678 172.943 76.3112 164.361 84.8819C165.552 86.2064 167.041 87.4377 168.828 88.6837C173.01 91.5979 180.913 98.0574 188.34 104.279C190.779 95.4947 194.169 83.231 196.083 76.1083L185.885 70.2678Z" fill="#AA3F37"/>
<path d="M193.371 29.7463C193.371 29.7463 194.825 24.6792 202.158 28.652" stroke="#D85145" stroke-miterlimit="10" stroke-linecap="round" stroke-linejoin="round"/>
<path d="M195.106 21.4538C195.106 21.4538 198.83 20.9779 201.574 23.1267" stroke="#D85145" stroke-miterlimit="10" stroke-linecap="round" stroke-linejoin="round"/>
<path d="M272.898 184.09C272.898 184.09 271.237 179.446 269.096 173.312L266.393 184.909C271.382 182.119 272.898 184.09 272.898 184.09Z" fill="#00918C"/>
<path d="M267.046 167.397C263.527 157.181 259.727 145.739 259.727 143.978C259.727 140.701 260.42 135.931 260.42 135.931L268.58 156.028L295.674 146.704C293.296 140.581 289.056 129.992 284.125 119.884C277.432 106.163 267.5 94.2177 248.932 91.6826L243.185 90.1172L243.856 86.1219L222.229 84.3959L221.644 88.6847L185.885 70.2688C173.744 83.6973 175.903 89.9609 169.54 97.5162C178.6 105.107 200.135 116.524 200.135 116.524C200.135 116.524 198.624 140.81 198.624 158.151C198.624 168.332 194.143 177.182 194.143 177.182C194.143 177.182 207.586 187.328 220.27 189.487L228.603 178.909L231.658 194.02C231.658 194.02 248.931 199.848 259.51 190.134C260.777 188.97 261.927 188.009 262.979 187.202C264.262 186.217 265.399 185.465 266.392 184.909C271.38 182.12 272.897 184.09 272.897 184.09C272.897 184.09 271.236 179.446 269.095 173.312C268.447 171.448 267.751 169.447 267.046 167.397Z" fill="#00918C"/>
<path d="M222.229 84.395C222.229 84.395 226.649 88.651 232.069 89.4912C232.069 89.4912 233.384 90.1854 243.857 86.1211L222.229 84.395Z" fill="#3C4A77"/>
<path d="M228.604 178.909C228.604 178.909 221.95 137.705 228.604 108.047C228.604 108.047 231.501 96.252 231.796 89.479" stroke="#007F7A" stroke-miterlimit="10" stroke-linecap="round" stroke-linejoin="round"/>
<path d="M200.135 116.524C200.135 116.524 201.646 102.253 207.261 93.2109" stroke="#007F7A" stroke-miterlimit="10" stroke-linecap="round" stroke-linejoin="round"/>
<path d="M260.42 135.931L262.966 114.15" stroke="#007F7A" stroke-miterlimit="10" stroke-linecap="round" stroke-linejoin="round"/>
<path d="M177.917 103.54L192.706 74.1731" stroke="#007F7A" stroke-miterlimit="10" stroke-linecap="round" stroke-linejoin="round"/>
<path d="M265.278 147.896L291.337 135.93" stroke="#007F7A" stroke-miterlimit="10" stroke-linecap="round" stroke-linejoin="round"/>
<path d="M254.796 115.877L236.444 114.552L236.102 119.289L254.454 120.613L254.796 115.877Z" stroke="#007F7A" stroke-miterlimit="10" stroke-linecap="round" stroke-linejoin="round"/>
<path d="M221.644 88.6836L225.647 94.7736L231.767 90.0254L236.25 96.0688L243.185 90.1161" stroke="#007F7A" stroke-miterlimit="10" stroke-linecap="round" stroke-linejoin="round"/>
<path d="M296.177 149.124L295.047 146.919L272.309 154.759L273.114 156.072L265.125 190.349L265.157 190.366C264.192 192.202 262.051 192.736 260.159 193.132C259.144 193.345 258.275 193.605 257.527 194.393C256.357 195.626 256.466 197.354 255.562 198.715C255.114 199.391 253.678 201.235 255.709 200.713C256.718 200.454 257.774 199.124 258.435 198.38C259.814 196.83 261.162 196.545 263.137 196.925C265.025 197.286 266.99 197.847 268.882 198.336C270.169 198.67 271.368 199.359 272.663 199.619C273.329 198.1 273.876 196.473 274.237 194.855C275.127 194.281 292.132 183.028 297.246 156.788C297.754 154.187 297.386 151.485 296.177 149.124Z" fill="#E6817D"/>
<path d="M296.177 149.124L295.047 146.919L272.309 154.759L273.071 156.003L297.014 151.28C296.805 150.54 296.532 149.817 296.177 149.124Z" fill="#AA3F37"/>
<path d="M227.742 74.8779L226.21 87.3031C226.21 87.3031 228.693 89.0309 231.796 89.4782C233.566 89.7329 234.115 89.5827 237.365 88.4351V75.7837L227.742 74.8779Z" fill="#E6817D"/>
<path d="M227.742 74.8779L227.074 80.2884C229.112 84.7801 237.364 85.0072 237.364 85.0072V75.7837L227.742 74.8779Z" fill="#AA3F37"/>
<path d="M227.622 66.4894C227.622 66.4894 224.123 59.6223 222.093 63.4716C220.404 66.6724 223.773 70.1729 227.315 69.4562L227.622 66.4894Z" fill="#AA3F37"/>
<path d="M237.671 67.0714C237.671 67.0714 242.501 61.0652 243.701 65.2487C244.698 68.7276 240.685 71.4647 237.364 70.0392L237.671 67.0714Z" fill="#AA3F37"/>
<path d="M225.052 67.9513C223.79 67.0205 223.293 65.0354 223.14 63.5649C223.067 62.8707 222.896 62.0815 222.922 61.4062C222.944 60.8191 223.404 60.0048 223.457 59.4712C221.627 59.2398 222.211 56.5242 222.862 55.5036C224.153 53.4831 225.913 52.1603 228.271 51.6716C229.554 51.4056 230.871 51.7372 232.15 51.9082C231.681 51.5853 231.419 51.1371 231.455 50.5586C231.796 51.7277 234.833 51.612 235.766 51.7951C237.73 52.1793 238.752 53.1697 239.661 54.8267C240.742 54.0254 243.083 55.1272 243.517 56.1365C244.238 57.816 243.64 59.707 243.275 61.4045C242.849 63.3862 243.164 66.1855 241.99 67.8822C240.64 69.831 236.441 68.9089 234.552 68.674C232.303 68.3942 230.009 67.8528 227.728 67.9495C227.058 67.978 225.852 67.852 225.052 67.9513Z" fill="#233332"/>
<path d="M241.255 62.1411C241.288 61.2172 240.486 60.4746 239.57 60.6024C238.768 60.7147 237.934 60.8943 237.317 61.0125C236.916 61.0894 236.283 61.5617 235.96 61.5833C235.313 61.6273 234.421 60.9573 233.782 60.8476C233.959 61.0609 234.028 61.3355 234.145 61.5798C231.712 61.0125 229.11 60.4021 226.636 59.8451C225.745 59.644 224.882 60.2803 224.817 61.1921C224.685 63.0313 224.571 65.6044 224.592 65.9248C225.299 76.7474 225.643 78.1151 232.108 79.1478C238.572 80.1805 240.306 72.696 240.645 69.4157C240.719 68.6982 240.746 67.7855 240.99 66.4791C241.043 66.1968 241.072 65.9092 241.076 65.6226C241.085 64.8135 241.211 63.3223 241.255 62.1411Z" fill="#E6817D"/>
<path d="M224.548 67.2322C224.776 67.4791 224.62 68.8339 224.546 69.3148C224.4 70.269 224.011 71.0875 223.685 71.9812C222.934 74.0423 222.836 76.2588 224.189 78.1351C226.207 80.9353 230.841 81.5155 233.98 80.8852C235.495 80.5813 237.33 80.134 238.453 79.0184C239.493 77.9848 240.027 76.5316 240.38 75.1354C240.898 73.0821 241.267 70.3942 240.746 68.3365C240.146 69.586 239.875 72.52 238.151 72.8481C236.53 73.1564 236.305 71.5529 235.327 70.8475C234.201 70.035 232.198 69.9547 230.883 69.9486C229.836 69.9434 228.93 70.1938 228.074 70.8294C227.561 71.2101 227.133 71.7472 226.453 71.4433C225.153 70.8648 225.257 68.4807 224.548 67.2322Z" fill="#233332"/>
<path d="M230.748 66.0219C230.748 66.4805 230.377 66.8518 229.918 66.8518C229.46 66.8518 229.089 66.4805 229.089 66.0219C229.089 65.5633 229.46 65.1919 229.918 65.1919C230.377 65.191 230.748 65.5633 230.748 66.0219Z" fill="#233332"/>
<path d="M236.326 66.5102C236.326 66.9688 235.954 67.3401 235.496 67.3401C235.037 67.3401 234.666 66.9688 234.666 66.5102C234.666 66.0516 235.037 65.6802 235.496 65.6802C235.954 65.6802 236.326 66.0524 236.326 66.5102Z" fill="#233332"/>
<path d="M231.622 64.8246C231.85 65.3349 231.733 65.9246 231.667 66.4686C231.535 67.5609 231.225 68.6437 230.975 69.7161C230.792 70.4984 230.226 71.7832 230.523 72.5733C230.648 72.9074 231.018 73.1656 231.368 73.2053C232.23 73.3038 232.759 72.3272 233.025 71.6597L233.339 70.9241C233.686 70.1124 233.79 69.2187 233.639 68.3492L233.025 64.8237L231.622 64.8246Z" fill="#E6817D"/>
<path d="M231.622 64.8247C231.85 65.335 231.733 65.9248 231.667 66.4687C231.535 67.561 231.225 68.6438 230.975 69.7162C230.792 70.4985 230.226 71.7833 230.523 72.5734C230.648 72.9076 231.018 73.1657 231.368 73.2055C232.23 73.3039 232.759 72.3273 233.025 71.6599" stroke="#AA3F37" stroke-miterlimit="10" stroke-linecap="round" stroke-linejoin="round"/>
<path d="M230.013 73.9714C230.601 74.4473 231.616 74.4974 232.336 74.3609C233.114 74.2132 233.583 73.6683 234.191 73.2727C234.059 74.4421 233.74 75.5553 232.394 75.8274C231.616 75.9846 230.541 75.8343 229.962 75.2591C230.083 75.0484 230.108 74.3833 230.013 73.9714Z" fill="#F9F9F9"/>
<path d="M228.492 63.5648C228.879 62.8834 230.218 62.9871 230.543 63.4206" stroke="#233332" stroke-miterlimit="10" stroke-linecap="round" stroke-linejoin="round"/>
<path d="M234.502 63.8889C234.746 63.6479 235.316 63.4769 235.762 63.5659C236.049 63.6237 236.742 63.8716 236.733 64.1765" stroke="#233332" stroke-miterlimit="10" stroke-linecap="round" stroke-linejoin="round"/>
<path d="M21.5932 314.525L17.0591 327.261C17.0591 327.261 -0.213905 332.657 0.00200744 338.917C0.21792 345.177 34.9798 337.838 34.9798 337.838L42.3208 314.525H21.5932Z" fill="#4D60A4"/>
<path d="M25.408 330.067C28.6691 333.161 32.7861 328.976 37.7668 328.988L42.3208 314.525H21.5932L17.0591 327.261C17.0591 327.261 21.1606 326.037 25.408 330.067Z" fill="#FADB81"/>
<path d="M6.98389 331.207C6.98389 331.207 12.4534 330.858 15.7646 335.249" stroke="#769494" stroke-miterlimit="10" stroke-linecap="round" stroke-linejoin="round"/>
<path d="M10.2024 329.912C10.2024 329.912 14.4524 327.441 18.0668 333.809" stroke="#769494" stroke-miterlimit="10" stroke-linecap="round" stroke-linejoin="round"/>
<path d="M14.1348 328.288C14.1348 328.288 19.074 325.534 20.442 332.658" stroke="#769494" stroke-miterlimit="10" stroke-linecap="round" stroke-linejoin="round"/>
<path d="M128.843 313.596L129.997 327.065C129.997 327.065 145.335 336.666 143.538 342.667C141.741 348.668 109.978 332.752 109.978 332.752L108.793 308.34L128.843 313.596Z" fill="#4D60A4"/>
<path d="M121.21 327.663C117.271 329.829 114.349 324.737 109.529 323.485L108.793 308.34L128.843 313.596L129.997 327.065C129.997 327.065 126.341 324.843 121.21 327.663Z" fill="#FADB81"/>
<path d="M138.742 333.439C138.742 333.439 133.539 331.714 129.224 335.121" stroke="#769494" stroke-miterlimit="10" stroke-linecap="round" stroke-linejoin="round"/>
<path d="M135.957 331.369C135.957 331.369 132.473 327.901 127.361 333.145" stroke="#769494" stroke-miterlimit="10" stroke-linecap="round" stroke-linejoin="round"/>
<path d="M132.565 328.802C132.565 328.802 128.486 324.885 125.355 331.429" stroke="#769494" stroke-miterlimit="10" stroke-linecap="round" stroke-linejoin="round"/>
<path d="M61.1043 140.969C61.1043 140.969 55.4906 163.851 40.8085 200.548C26.1265 237.245 17.49 319.705 17.49 319.705H50.0211L91.332 220.407L105.941 317.547L133.079 315.388C133.079 315.388 148.693 237.245 137.537 195.799C129.639 166.456 122.855 144.855 122.855 144.855L61.1043 140.969Z" fill="#233332"/>
<path d="M91.332 220.407C91.332 220.407 100.513 188.271 99.5056 156.135" stroke="#769494" stroke-miterlimit="10" stroke-linecap="round" stroke-linejoin="round"/>
<path d="M18.656 309.598H54.2254" stroke="#769494" stroke-miterlimit="10" stroke-linecap="round" stroke-linejoin="round"/>
<path d="M104.21 306.038L134.37 308.34" stroke="#769494" stroke-miterlimit="10" stroke-linecap="round" stroke-linejoin="round"/>
<path d="M52.4773 169.14C52.4773 169.14 67.7086 168.21 73.0995 150.272" stroke="#769494" stroke-miterlimit="10" stroke-linecap="round" stroke-linejoin="round"/>
<path d="M116.04 153.569C116.04 153.569 117.787 168.227 130.454 170.356" stroke="#769494" stroke-miterlimit="10" stroke-linecap="round" stroke-linejoin="round"/>
<path d="M98.2715 183.413C98.2715 183.413 104.688 182.415 105.407 178.385C106.126 174.355 106.007 155.702 106.007 155.702" stroke="#769494" stroke-miterlimit="10" stroke-linecap="round" stroke-linejoin="round"/>
<path d="M60.2942 144.04C60.2942 144.04 76.3831 153.778 93.3573 155.792C110.331 157.806 124.521 150.272 124.521 150.272L114.866 87.2185C114.866 87.2185 100.884 81.8046 91.2474 79.8791C81.6108 77.9536 67.1498 78.0451 67.1498 78.0451C67.1498 78.0451 63.0708 131.773 60.2942 144.04Z" fill="#FADB81"/>
<path d="M164.132 56.1812C164.426 54.3429 164.763 51.8208 165.689 50.2139C166.069 49.555 166.656 49.1743 167.24 48.7063C168.146 47.9801 168.685 46.7902 169.103 45.7455C169.553 44.6221 169.907 43.4772 170.406 42.3849C170.629 41.8944 171.155 41.0776 171.162 40.5612C171.174 39.627 170.35 39.7021 169.799 40.259C169.01 41.0551 168.982 42.5956 168.145 43.2786C167.907 43.472 167.428 43.7094 167.19 43.4253C166.9 43.08 167.534 42.3132 167.697 41.9946C167.935 41.5257 170.306 37.0513 168.043 37.4891C167.172 37.6574 166.68 39.7738 166.398 40.5129C166.151 41.1613 165.725 43.1732 164.8 43.2328C163.202 43.3347 166.509 37.3984 164.601 36.6765C163.265 36.1706 162.972 38.6754 162.765 39.4672C162.64 39.9465 162.343 42.2847 161.697 42.3149C160.754 42.3598 162.165 37.3828 160.896 36.5971C159.332 35.6292 159.537 39.2229 159.464 39.8446C159.319 41.0949 159.007 42.2951 158.723 43.5281C158.643 43.8769 158.645 44.6618 158.211 44.8172C157.339 45.1307 156.976 42.9047 156.783 42.384C156.563 41.7874 156.312 40.5966 155.637 40.3307C154.788 39.9974 154.609 40.8928 154.681 41.5447C154.827 42.8641 155.255 44.0729 155.187 45.4234C155.12 46.7721 155.117 47.9352 156.241 48.891C156.716 49.2943 157.341 49.4005 157.672 49.9479C158.264 50.9297 158.253 52.5728 158.268 53.6608C158.284 54.7643 158.178 55.8808 158.258 56.9782C160.264 57.0896 162.05 56.9903 163.922 56.404C163.911 56.4955 163.865 56.5672 164.132 56.1812Z" fill="#E6817D"/>
<path d="M162.152 48.7685C162.152 48.7685 161.392 46.0773 158.208 44.8164" stroke="#D85145" stroke-miterlimit="10" stroke-linecap="round" stroke-linejoin="round"/>
<path d="M167.798 44.9146L159.984 42.6328" stroke="#D85145" stroke-miterlimit="10" stroke-linecap="round" stroke-linejoin="round"/>
<path d="M108.173 149.819V158.454C108.173 158.454 112.923 162.34 119.616 161.692C126.31 161.044 129.13 160.364 129.13 160.364L127.605 149.819H108.173Z" fill="#3C4A77"/>
<path d="M155.674 58.0102L156.645 50.0111C156.645 50.0111 161.719 49.658 166.793 52.4642L164.202 60.3433L155.674 58.0102Z" fill="#3C4A77"/>
<path d="M96.6582 81.4266C96.6582 81.4266 101.84 84.3407 101.84 94.4864C101.84 104.632 100.329 148.976 109.181 152.816C118.034 156.656 131.204 156.871 130.772 148.884C130.341 140.897 124.511 133.774 124.295 126.866C124.079 119.958 122.812 112.266 122.812 112.266C122.812 112.266 148.261 112.218 160.133 111.487C162.681 111.33 165.037 110.048 166.482 107.943C168.149 105.515 169.896 101.881 169.421 97.7252C168.668 91.1457 165.133 72.7773 166.799 62.7257C167.184 60.4108 165.784 58.1719 163.554 57.4388L157.441 55.4304C154.89 54.5919 152.146 56.0089 151.354 58.5751L143.728 83.2623C143.728 83.2623 134.439 83.4384 126.671 81.4274C116.523 78.8008 105.942 81.139 105.942 81.139C105.942 81.139 110.262 79.4009 110.262 77.0143C110.262 74.6277 96.6591 73.9801 96.6591 73.9801L96.6582 81.4266Z" fill="#4D60A4"/>
<path d="M103.53 85.5155C103.53 85.5155 102.926 82.966 105.941 81.1377" stroke="#3C4A77" stroke-miterlimit="10" stroke-linecap="round" stroke-linejoin="round"/>
<path d="M143.727 83.261C143.727 83.261 151.356 84.1244 153.659 91.4639" stroke="#3C4A77" stroke-miterlimit="10" stroke-linecap="round" stroke-linejoin="round"/>
<path d="M118.652 126.866C118.652 126.866 126.432 133.497 128.426 139.819" stroke="#3C4A77" stroke-width="3" stroke-miterlimit="10"/>
<path d="M101.48 63.1873C101.48 63.1873 103.423 60.559 104.934 61.4224C106.446 62.2859 105.15 66.927 102.667 67.0349L101.48 63.1873Z" fill="#AA3F37"/>
<path d="M84.9625 67.0349L83.1272 79.8789C83.1272 79.8789 85.0704 87.5421 94.4626 89.0531C94.4626 89.0531 97.5933 89.3769 97.8092 82.5772C97.8092 82.5772 96.5138 71.5681 96.9456 68.546L84.9625 67.0349Z" fill="#E6817D"/>
<path d="M97.7038 81.6413C97.4741 79.5534 96.9412 74.421 96.8669 71.0216L85.054 69.9639C85.054 79.0155 94.2466 81.6413 97.7038 81.6413Z" fill="#AA3F37"/>
<path d="M103.279 65.5603C102.559 59.8036 105.87 50.5939 94.93 49.0103C94.93 49.0103 85.8617 47.4276 84.422 54.4786C84.0463 56.3169 83.7457 58.802 83.744 61.4571C82.8778 60.7992 81.7162 60.3821 80.4276 61.2059C77.942 62.7963 80.9518 68.2163 84.3943 67.7163C85.3927 72.0682 87.6935 75.8933 92.339 77.0719C101.983 79.519 103.999 71.3161 103.279 65.5603Z" fill="#E6817D"/>
<path d="M95.2979 62.2179C95.2979 62.7534 94.8635 63.1878 94.328 63.1878C93.7926 63.1878 93.3582 62.7534 93.3582 62.2179C93.3582 61.6825 93.7926 61.248 94.328 61.248C94.8635 61.248 95.2979 61.6825 95.2979 62.2179Z" fill="#233332"/>
<path d="M92.6274 59.6958C93.1309 59.1742 94.6423 58.9401 95.5423 59.606" stroke="#233332" stroke-miterlimit="10" stroke-linecap="round" stroke-linejoin="round"/>
<path d="M101.937 62.5834C101.937 63.1189 101.502 63.5533 100.967 63.5533C100.431 63.5533 99.9968 63.1189 99.9968 62.5834C99.9968 62.0479 100.431 61.6135 100.967 61.6135C101.502 61.6135 101.937 62.0479 101.937 62.5834Z" fill="#233332"/>
<path d="M102.419 60.1423C101.945 59.593 100.449 59.2752 99.5142 59.8893" stroke="#233332" stroke-miterlimit="10" stroke-linecap="round" stroke-linejoin="round"/>
<path d="M98.2957 61.6384C97.6972 62.5658 98.883 64.9921 99.2103 65.9704C99.434 66.637 99.8511 67.794 99.4737 68.496C98.9512 69.4683 98.1394 68.4822 97.8103 67.8985" stroke="#D85145" stroke-miterlimit="10" stroke-linecap="round" stroke-linejoin="round"/>
<path d="M99.1049 70.1651C97.5054 70.3914 95.9845 70.0296 94.474 69.4485C93.6483 69.1307 92.8365 68.8397 92.3028 68.1343C92.0609 68.8648 92.2674 70.1012 92.5187 70.7998C93.0222 72.1977 94.3479 73.0923 95.8273 73.0258C97.2325 72.9627 98.7784 71.8031 99.0513 70.3965C99.0384 70.4725 99.0798 70.4777 99.1049 70.1651Z" fill="#233332"/>
<path d="M97.4138 71.1406C97.5563 70.942 97.615 70.4851 97.6927 70.245C97.6953 70.2355 97.6996 70.2252 97.7022 70.2157C96.6054 70.1526 95.537 69.8573 94.4739 69.4488C93.6482 69.1318 92.8364 68.8399 92.3027 68.1343C92.18 68.5039 92.1731 69.0031 92.2275 69.4962C93.4306 70.3374 94.8125 70.9645 96.2651 71.2279C96.6235 71.2935 97.1858 71.4576 97.4138 71.1406Z" fill="#F9F9F9"/>
<path d="M100.401 47.4993C99.2714 46.6064 97.7972 46.4553 96.4464 46.0625C95.461 45.7758 94.416 45.496 93.377 45.6679C92.4961 45.8138 91.5996 46.1367 90.7066 46.2015C91.1756 46.2965 91.661 46.4407 92.1014 46.6185C90.0978 46.7869 88.3843 46.8284 86.7425 48.2332C85.9643 48.8998 85.27 50.182 84.2863 50.5361C84.6671 50.8763 85.2181 51.1957 85.6465 51.6715C85.6621 51.6586 85.6819 51.6516 85.6983 51.6396C85.1145 52.3804 84.662 53.3078 84.4227 54.4778C84.047 56.3161 83.7465 58.8011 83.7448 61.4562C83.7007 61.4226 84.5799 61.8543 85.3356 63.2022C85.7398 63.924 86.1707 64.7624 86.7459 65.3418C86.72 63.3377 86.3495 61.4847 87.1752 59.5333C87.6286 58.4626 88.2167 57.493 88.2556 56.2936C88.2953 55.0666 88.019 53.8612 88.1416 52.6291C88.1943 52.1015 88.2737 51.6732 88.4508 51.2355C88.7876 51.2743 89.1037 51.3279 89.3732 51.3805C90.6401 51.6292 91.8052 52.3191 92.9443 52.8942C94.8755 53.8682 97.0087 54.4026 99.1756 54.4052C100.334 54.4069 101.927 54.2524 102.286 52.9822C102.803 51.1629 101.857 48.6503 100.401 47.4993Z" fill="#233332"/>
<path d="M36.6146 19.1234C36.9298 17.2894 37.4238 14.7932 37.0663 12.973C36.9194 12.227 36.4859 11.6769 36.0843 11.0458C35.4607 10.0657 35.3355 8.76622 35.2768 7.64199C35.2137 6.43401 35.2466 5.23467 35.1274 4.04136C35.0738 3.50429 34.8398 2.56226 34.9995 2.07181C35.2889 1.18331 36.0454 1.52006 36.3883 2.22551C36.878 3.23403 36.4082 4.70019 36.9799 5.61718C37.1423 5.87708 37.5197 6.25614 37.8366 6.06359C38.2218 5.82959 37.8695 4.89964 37.8185 4.54562C37.7442 4.02496 36.9436 -0.974474 38.9438 0.169611C39.7133 0.609976 39.4974 2.77208 39.5251 3.56214C39.5493 4.2555 39.304 6.29759 40.1607 6.65161C41.6402 7.26294 40.425 0.578025 42.4641 0.509812C43.8925 0.461458 43.3614 2.9275 43.3018 3.74347C43.2655 4.23824 42.7931 6.54626 43.3942 6.78372C44.2726 7.12996 44.542 1.96474 45.9964 1.62972C47.7893 1.21785 46.436 4.55426 46.3039 5.16559C46.0379 6.39602 45.9463 7.6325 45.8176 8.89056C45.7813 9.24631 45.5266 9.98888 45.8867 10.2764C46.6113 10.8549 47.6727 8.86465 48.0234 8.43292C48.425 7.93902 49.0459 6.89337 49.7714 6.8597C50.6817 6.81739 50.5625 7.72316 50.2844 8.31722C49.7205 9.51916 48.9259 10.5259 48.5545 11.8255C48.1832 13.1241 47.8118 14.2259 46.4386 14.7681C45.8591 14.997 45.2321 14.8959 44.7432 15.3078C43.8666 16.0461 43.3476 17.6055 42.9823 18.6304C42.6118 19.67 42.3509 20.7605 41.9226 21.7734C39.988 21.232 38.3289 20.5619 36.7458 19.4032C36.7217 19.4921 36.7424 19.575 36.6146 19.1234Z" fill="#E6817D"/>
<path d="M40.8801 12.7455C40.8801 12.7455 42.4675 10.4431 45.8867 10.2764" stroke="#D85145" stroke-miterlimit="10" stroke-linecap="round" stroke-linejoin="round"/>
<path d="M36.7778 7.27661L44.9108 7.63589" stroke="#D85145" stroke-miterlimit="10" stroke-linecap="round" stroke-linejoin="round"/>
<path d="M33.8994 23.3224V14.5799C33.8994 14.5799 37.1381 12.4212 45.9905 16.5227L43.9756 26.7763L33.8994 23.3224Z" fill="#3C4A77"/>
<path d="M53.1875 144.854L50.0205 151.762C50.0205 151.762 54.1945 156.799 61.3922 157.23C72.3484 157.888 78.6652 159.102 78.6652 159.102L81.6879 149.172L53.1875 144.854Z" fill="#3C4A77"/>
<path d="M86.1372 80.6914C89.065 76.0019 85.7279 70.74 81.2559 69.9638C75.7864 69.014 72.6194 67.0349 72.6194 67.0349L73.3984 72.1241C71.8378 71.6915 70.1286 71.3099 68.2286 71.0284C56.5693 69.3015 44.6942 58.01 44.6942 58.01C44.6942 58.01 46.6374 44.477 45.9896 35.8424C45.6977 31.9542 45.7564 29.1169 45.9093 27.1715C46.0734 25.0802 44.8341 23.1366 42.8788 22.3759L36.5206 19.9038C33.7146 18.8124 30.6037 20.5522 30.0907 23.5182C29.576 26.498 28.7823 29.995 27.6371 32.3885C25.5272 36.7991 14.045 57.3944 14.2332 74.4986C14.2738 78.1934 16.2853 81.5799 19.5291 83.3508C24.0011 85.7936 31.039 89.4356 37.5699 91.9664C52.0533 97.5789 61.7521 107.509 61.7521 107.509C61.7521 107.509 60.4566 127.152 52.0533 137.946C45.7564 146.034 57.0772 150.404 61.5362 151.329C68.0136 152.674 82.2301 156.726 85.0542 147.012C87.7583 137.71 93.7728 101.297 86.1372 80.6914Z" fill="#4D60A4"/>
<path d="M73.3994 72.1243C73.3994 72.1243 80.1048 75.0583 82.4081 80.5266" stroke="#3C4A77" stroke-miterlimit="10" stroke-linecap="round" stroke-linejoin="round"/>
<path d="M44.6951 58.0103L43.2554 71.3162" stroke="#3C4A77" stroke-miterlimit="10" stroke-linecap="round" stroke-linejoin="round"/>
<path d="M58.979 137.371C58.979 137.371 63.4415 126.433 69.3428 122.26" stroke="#3C4A77" stroke-width="3" stroke-miterlimit="10"/>
<path d="M110.682 110.838C110.682 110.838 112.429 104.54 112.325 103.742C112.143 102.35 109.826 100.669 108.869 99.5659C107.81 98.3458 107.101 96.9125 106.027 95.7814C105.567 95.297 102.277 92.5762 103.621 91.9338C104.825 91.3579 106.964 94.6494 108.254 94.9464C107.174 93.7842 104.954 90.9805 105.145 89.0067C105.194 88.4929 105.85 88.2857 106.197 88.6673C107.006 89.5584 108.092 90.8804 108.539 91.6851C108.066 90.927 105.615 86.7669 107.22 86.3567C108.336 86.0718 110.625 92.2334 112.445 92.5581C112.662 90.7958 111.085 86.8152 112.16 86.1158C113.777 85.0641 113.955 88.8003 114.144 89.6137C114.578 91.4857 115.508 93.899 117.078 95.1001C116.757 92.5002 118.818 89.1759 119.698 90.9754C119.916 91.4218 119.287 92.9414 119.326 93.5649C119.412 94.9576 119.987 96.2485 120.052 97.6456C120.168 100.15 118.882 101.491 118.067 103.628C117.111 106.133 116.907 111.517 116.907 111.517L110.682 110.838Z" fill="#E78C60"/>
<path d="M115.533 100.616C114.456 99.2431 116.267 96.2927 116.685 95.1477" stroke="#D85145" stroke-miterlimit="10" stroke-linecap="round" stroke-linejoin="round"/>
<path d="M109.343 97.0177C109.854 96.0066 110.841 95.2735 111.679 94.5301C112.478 93.8203 114.05 92.3196 114.884 92.197" stroke="#D85145" stroke-miterlimit="10" stroke-linecap="round" stroke-linejoin="round"/>
<path d="M205.69 80.4944C205.66 80.187 205.373 79.8667 205.221 79.5947C204.829 78.8884 204.67 78.1 204.582 77.3022C204.479 76.3645 204.485 75.444 204.619 74.5106C204.644 74.3336 204.711 73.471 204.934 73.3527C205.547 73.0272 205.717 75.8507 205.728 76.2004C205.517 75.6236 205.648 74.6868 205.77 74.0806C205.904 73.4166 206.178 73.5556 206.311 74.1186C206.594 75.3033 206.737 76.5562 206.97 77.7572C206.836 77.2987 206.839 76.7625 206.879 76.2764C206.91 75.8982 206.828 75.1418 207.21 74.8802C207.71 74.5391 207.775 75.5381 207.839 75.8602C208.098 77.1563 208.531 78.4368 209.289 79.5316C209.688 80.1084 210.245 80.5842 210.46 81.2732C210.665 81.9355 210.698 82.6574 210.796 83.3378C210.337 83.2368 209.809 82.9484 209.333 82.7973C208.496 82.5313 207.685 82.2705 206.944 81.7879C206.593 81.5599 206.284 81.3207 206.023 80.9969C205.932 80.8838 205.802 80.6257 205.69 80.4944Z" fill="#D85145"/>
<path d="M212.635 91.1433C212.234 89.3102 209.921 86.3019 208.258 84.9567C205.291 82.5571 202.963 81.8473 202.536 77.6475C202.455 76.8548 202.532 75.9732 202.423 75.1693C202.325 74.4371 201.923 73.8103 202.013 73.0323C203.65 72.6092 204.102 76.468 204.754 77.4722C205.591 78.7605 207.328 80.515 208.735 81.2559C208.789 81.3085 208.787 81.3094 208.73 81.2602C207.891 80.3035 206.445 77.6518 207.849 76.6087C208.658 77.878 208.57 78.4142 210.152 79.1274C211.122 79.5643 212.491 79.6671 214.002 81.1419C215.114 82.2264 215.109 84.6346 215.877 85.9704C216.756 87.4995 217.818 89.6047 218.608 91.1433H212.635Z" fill="#E78C60"/>
<path d="M101.642 306.623L95.3094 329.936C95.3094 329.936 86.8119 332.233 79.5702 334.675C76.949 335.558 77.5812 339.429 80.3475 339.429H105.522C106.645 339.429 107.641 338.711 107.996 337.647L118.34 306.624H101.642V306.623Z" fill="#E78C60"/>
<path d="M100.115 312.245L116.004 313.627L118.34 306.623H101.642L100.115 312.245Z" fill="#D85145"/>
<path d="M90.0384 331.424C87.0243 332.299 83.1447 333.469 79.5692 334.675C76.9481 335.558 77.5802 339.429 80.3465 339.429H105.521C106.644 339.429 107.64 338.711 107.995 337.647L109.44 333.312C96.3802 337.426 91.4271 333.156 90.0384 331.424Z" fill="#233332"/>
<path d="M170.878 306.623L165.984 329.936C165.984 329.936 174.482 332.233 181.723 334.675C184.344 335.558 183.712 339.429 180.946 339.429H155.772C154.65 339.429 153.654 338.711 153.299 337.647L154.181 306.624H170.878V306.623Z" fill="#E78C60"/>
<path d="M154.035 311.769L169.877 311.392L170.878 306.623H154.181L154.035 311.769Z" fill="#D85145"/>
<path d="M171.255 331.424C174.269 332.299 178.149 333.469 181.724 334.675C184.345 335.558 183.713 339.429 180.947 339.429H155.772C154.65 339.429 153.654 338.711 153.299 337.647L153.441 332.653C166.501 336.767 169.866 333.156 171.255 331.424Z" fill="#233332"/>
<path d="M127.705 188.833L192.334 188.904C192.334 188.904 190.665 173.137 189.832 163.818C188.999 154.499 188.632 147.463 188.632 147.463L137.355 148.172C137.355 148.172 141.102 168.182 127.705 188.833Z" fill="#769494"/>
<path d="M180.722 166.383L169.126 165.401L142.861 163.145C142.861 163.145 135.731 170.259 127.668 194.662C119.604 219.064 105.252 276.594 96.6824 310.797H123.395L158.227 218.177L146.48 308.638H173.901C173.901 308.638 180.861 236.971 186.691 210.204C191.574 187.782 180.722 166.383 180.722 166.383Z" fill="#3C4A77"/>
<path d="M158.227 218.176C158.227 218.176 173.278 194.093 171.862 168.761" stroke="#233332" stroke-miterlimit="10" stroke-linecap="round" stroke-linejoin="round"/>
<path d="M171.514 179.813C171.514 179.813 176.707 178.129 175.999 168.184" stroke="#233332" stroke-miterlimit="10" stroke-linecap="round" stroke-linejoin="round"/>
<path d="M99.0227 301.452L126.52 302.487" stroke="#233332" stroke-miterlimit="10" stroke-linecap="round" stroke-linejoin="round"/>
<path d="M147.552 300.386L174.319 299.738" stroke="#233332" stroke-miterlimit="10" stroke-linecap="round" stroke-linejoin="round"/>
<path d="M142.861 163.145C142.861 163.145 169.583 173.219 180.722 166.383C180.722 166.383 189.664 137.542 187.339 131.413C184.491 123.908 181.641 114.723 172.634 113.496C172.634 113.496 153.44 110.042 148.69 114.791C143.94 119.54 140.702 127.311 144.588 141.343C148.474 155.374 142.861 163.145 142.861 163.145Z" fill="#D85145"/>
<path d="M170.929 113.223C170.929 113.223 184.748 131.413 183.884 152.352C183.021 173.291 179.349 200.706 179.349 200.706C179.349 200.706 188.418 198.979 192.521 190.992C192.521 190.992 187.339 144.221 188.634 137.313C188.634 137.313 230.737 144.724 236.135 139.184C241.533 133.643 241.533 122.778 235.487 113.712C229.442 104.646 219.942 86.5276 219.942 86.5276L210.01 87.8919L217.687 117.813C217.687 117.813 199.43 116.95 191.225 115.223C183.021 113.496 180.722 111.014 170.929 113.223Z" fill="#9BB9B9"/>
<path d="M219.027 124.022L217.687 117.812C217.687 117.812 223.993 120.619 226.152 124.936" stroke="#769494" stroke-miterlimit="10" stroke-linecap="round" stroke-linejoin="round"/>
<path d="M188.634 137.313L189.663 126.664" stroke="#769494" stroke-miterlimit="10" stroke-linecap="round" stroke-linejoin="round"/>
<path d="M161.282 99.6213L158.991 114.948C158.991 114.948 163.62 122.772 167.424 122.994C169.186 123.098 170.553 119.109 171.322 116.351L171.862 101.547L161.282 99.6213Z" fill="#E78C60"/>
<path d="M161.631 103.474C161.631 103.474 159.771 114.84 171.322 116.351L171.646 104.91L161.631 103.474Z" fill="#D85145"/>
<path d="M172.642 85.6163C168.245 84.8824 163.775 89.356 162.119 95.8363C161.954 95.4201 161.52 93.7087 159.363 94.3563C157.812 94.8217 157.349 100.329 161.466 100.921C161.443 106.894 164.114 111.769 168.162 112.445C172.945 113.244 177.826 107.885 179.063 100.476C180.299 93.068 177.425 86.415 172.642 85.6163Z" fill="#E78C60"/>
<path d="M168.796 99.03C168.796 98.6353 169.117 98.3149 169.511 98.3149C169.906 98.3149 170.226 98.6353 170.226 99.03C170.226 99.4247 169.906 99.7451 169.511 99.7451C169.116 99.7451 168.796 99.4256 168.796 99.03Z" fill="#233332"/>
<path d="M174.95 100.831C174.95 100.436 175.27 100.116 175.665 100.116C176.059 100.116 176.38 100.436 176.38 100.831C176.38 101.226 176.059 101.546 175.665 101.546C175.269 101.546 174.95 101.226 174.95 100.831Z" fill="#233332"/>
<path d="M168.035 96.1193C168.035 96.1193 170.05 94.5716 171.646 96.3352" stroke="#233332" stroke-miterlimit="10" stroke-linecap="round" stroke-linejoin="round"/>
<path d="M175.305 97.4864C175.305 97.4864 177.284 96.9104 177.824 99.0315" stroke="#233332" stroke-miterlimit="10" stroke-linecap="round" stroke-linejoin="round"/>
<path d="M173.823 97.6982C172.81 99.2421 173.412 100.949 173.123 102.672C173.036 103.19 172.728 104.187 172.075 104.216C171.809 104.228 171.529 104.036 171.353 103.844C171.244 103.726 171.105 103.392 171.058 103.385" stroke="#D85145" stroke-miterlimit="10" stroke-linecap="round" stroke-linejoin="round"/>
<path d="M168.034 105.249C168.434 105.681 168.933 106.04 169.401 106.301C170.208 106.751 170.965 107.016 171.888 107.065" stroke="#D85145" stroke-miterlimit="10" stroke-linecap="round" stroke-linejoin="round"/>
<path d="M160.383 94.6366C160.383 94.6366 160.476 95.741 160.886 96.5993C161.297 97.4576 162.218 98.4704 162.218 98.4704L164.703 91.5843C165.283 90.4065 166.317 89.518 167.572 89.1303C168.843 88.7375 170.577 88.355 172.389 88.4145C173.5 88.4517 174.565 88.8394 175.454 89.5068C176.585 90.3565 178.15 91.7984 179.061 93.7801C179.061 93.7801 179.693 97.6078 178.854 101.547C178.854 101.547 180.318 100.995 180.57 99.0308C180.823 97.0673 180.798 92.8225 180.21 90.8789C179.742 89.3315 178.915 85.446 171.969 84.5825C169.862 84.3209 168.05 84.6559 166.635 85.1524C164.663 85.8449 163.132 87.4276 162.386 89.3808L160.383 94.6366Z" fill="#233332"/>
<path d="M159.353 112.523C159.353 112.523 148.986 111.866 142.94 116.35C136.895 120.834 116.413 133.693 116.413 133.693L119.11 106.587H109.275C109.275 106.587 90.8251 135.945 92.5524 164.008C92.5524 164.008 96.8706 168.109 102.916 164.008C108.962 159.906 137.219 145.227 137.219 145.227C137.219 145.227 137.84 156.236 137.219 161.417C136.598 166.598 127.705 188.832 127.705 188.832C127.705 188.832 136.383 201.784 153.656 204.59C153.656 204.59 155.261 166.413 160.382 153.934C166.583 138.824 159.353 112.523 159.353 112.523Z" fill="#9BB9B9"/>
<path d="M158.991 137.276L158.63 141.102C158.63 141.102 154.433 141.031 152.646 142.597C151.93 143.224 151.231 143.697 150.649 144.037C149.826 144.52 148.795 144.449 148.058 143.843C146.53 142.585 144.833 141.547 143.016 140.761L141.587 140.143L141.963 136.167L158.991 137.276Z" stroke="#769494" stroke-miterlimit="10" stroke-linecap="round" stroke-linejoin="round"/>
<path d="M148.514 140.279C148.559 139.804 148.981 139.455 149.456 139.5C149.931 139.545 150.279 139.967 150.235 140.442C150.19 140.917 149.768 141.265 149.293 141.221C148.818 141.176 148.469 140.754 148.514 140.279Z" fill="#769494"/>
<path d="M141.869 140.264L141.347 149.437C141.236 151.374 142.376 153.165 144.177 153.885L147.513 155.221C148.672 155.686 149.962 155.713 151.141 155.297L154.166 154.23C155.795 153.656 156.953 152.203 157.15 150.488L158.229 141.106" stroke="#769494" stroke-miterlimit="10" stroke-linecap="round" stroke-linejoin="round"/>
<path d="M116.414 133.693C116.414 133.693 116.469 138.32 112.798 145.012" stroke="#769494" stroke-miterlimit="10" stroke-linecap="round" stroke-linejoin="round"/>
<path d="M158.59 98.7231C158.188 98.8069 158.025 101.105 157.655 101.758C156.118 104.476 153.573 106.63 151.4 108.84C147.77 112.536 143.358 116.241 141.781 121.348C139.232 129.605 143.79 136.472 149.994 141.527C152.358 143.452 156.056 145.861 156.163 149.321C157.411 146.979 159.273 144.755 160.325 142.179C161.497 139.311 161.444 136.279 161.667 133.256C162.16 133.766 162.661 134.52 163.135 135.074C163.391 132.58 164.002 130.135 163.71 127.582C163.419 125.041 162.611 122.776 161.538 120.491C160.723 118.753 159.975 116.79 159.571 114.899C159.212 113.225 159.494 111.304 159.785 109.643C160.304 106.685 160.837 103.687 161.306 100.776C160.382 100.53 159.165 100.112 158.59 98.7231Z" fill="#233332"/>
<path d="M294.018 313.148L291.474 339.523L316.632 341.082C318.358 341.189 319.153 338.975 317.753 337.961L305.929 329.387L310.451 311.385L294.018 313.148Z" fill="#AA3F37"/>
<path d="M310.452 311.385L294.018 313.148L293.601 317.473L308.669 318.482L310.452 311.385Z" fill="#852B22"/>
<path d="M312.065 333.837C310.241 338.353 296.85 334.52 292.104 332.999L291.474 339.524L316.632 341.083C318.358 341.19 319.152 338.976 317.753 337.961L312.065 333.837Z" fill="#233332"/>
<path d="M310.779 169.378L319.487 168.443C319.487 168.443 337.624 218.307 311.678 314.439H289.654C289.654 314.439 293.986 298.088 291.196 282.203C288.407 266.319 296.501 244.787 296.501 244.787C296.501 244.787 268.535 197.009 284.042 169.379H310.779V169.378Z" fill="#007F7A"/>
<path d="M282.731 289.813L268.741 318.108L293.553 329.329C295.128 330.042 296.658 328.254 295.71 326.809L286.968 313.48L298.279 297.265L282.731 289.813Z" fill="#AA3F37"/>
<path d="M278.182 299.017L294.644 302.477L298.279 297.266L282.731 289.813L278.182 299.017Z" fill="#852B22"/>
<path d="M291.395 320.229C287.87 324.037 275.987 315.159 271.837 311.849L268.742 318.109L293.554 329.33C295.129 330.042 296.659 328.255 295.71 326.81L291.395 320.229Z" fill="#233332"/>
<path d="M281.172 169.378C281.172 169.378 264.375 193.267 273.687 210.105C282.999 226.942 304.761 244.211 304.761 244.211C304.761 244.211 288.39 249.824 285.583 270.547C282.776 291.27 278.076 294.463 278.076 294.463L298.988 300.336C298.988 300.336 339.757 258.027 339.23 245.506C338.704 232.986 310.779 169.378 310.779 169.378H281.172Z" fill="#00918C"/>
<path d="M281.098 289.531L305.055 293.852" stroke="#007F7A" stroke-miterlimit="10" stroke-linecap="round" stroke-linejoin="round"/>
<path d="M291.197 291.353L317.604 244.297C317.604 244.297 273.901 208.771 287.678 180.626" stroke="#007F7A" stroke-miterlimit="10" stroke-linecap="round" stroke-linejoin="round"/>
<path d="M285.656 198.861C285.656 198.861 295.214 197.222 294.88 181.328" stroke="#007F7A" stroke-miterlimit="10" stroke-linecap="round" stroke-linejoin="round"/>
<path d="M279.089 81.4965C270.787 82.2581 273.7 88.4569 270.867 90.9324C269.568 92.0687 268.143 93.2146 267.897 94.9458C267.639 96.7668 268.594 98.3772 267.212 99.9798C266.084 101.287 264.653 101.569 264.109 103.323C263.56 105.097 264.635 106.714 263.9 108.433C263.209 110.051 262.039 110.979 261.746 112.827C261.482 114.484 260.755 117.917 261.942 119.297C264.443 122.205 268.985 124.046 273.685 123.47C278.563 122.873 286.406 119.931 291.194 120.161C298.945 120.532 308.125 123.503 313.903 115.824C314.831 114.591 315.356 113.423 315.376 111.95C315.401 110.054 314.067 109.129 313.783 107.469C313.427 105.389 315.485 103.3 315.377 101.105C315.259 98.7044 313.44 97.0026 311.128 95.9984C309.637 95.3508 306.914 94.951 306.127 93.3873C305.193 91.5299 306.842 89.5155 305.162 87.7048C303.546 85.9632 301.305 86.6048 299.218 85.933C297.086 85.2474 297.356 84.2441 296.729 82.6277C295.803 80.2385 293.315 80.8248 291.059 79.7247C288.698 78.5737 284.321 77.408 282.889 79.8292C281.847 81.5932 280.04 81.3264 279.089 81.4965Z" fill="#233332"/>
<path d="M324.454 77.995C322.026 75.402 319.284 72.7745 318.301 72.6726C316.378 72.4732 313.633 72.8065 311.887 72.025C311.782 70.6029 312.033 69.1903 311.993 67.75C311.959 66.5213 311.433 65.4118 311.389 64.3264C311.327 62.7739 312.166 63.6469 313.099 63.0632C314.155 62.4026 314.765 61.2879 315.756 60.5445C317.701 59.0869 320.433 60.6446 322.052 62.084C323.138 63.0502 322.197 63.9888 322.735 65.1743C323.132 66.0499 324.396 65.8988 324.909 66.9082C325.219 67.5186 325.022 68.0825 325.185 68.7404C325.3 69.2032 327.754 71.6857 330.116 74.3969L324.454 77.995Z" fill="#AA3F37"/>
<path d="M312.794 66.6258C314.557 66.2631 315.892 64.8048 317.404 63.9059C318.8 63.0761 318.812 64.7935 318.446 65.7623C318.174 66.4825 317.646 67.1016 316.996 67.4944C318.811 67.029 321.964 67.4038 321.791 69.9354" stroke="#852B22" stroke-miterlimit="10" stroke-linecap="round" stroke-linejoin="round"/>
<path d="M319.127 67.1311C320.588 66.0196 322.378 65.0636 323.23 63.3164" stroke="#852B22" stroke-miterlimit="10" stroke-linecap="round" stroke-linejoin="round"/>
<path d="M347.772 81.1612C341.725 78.7858 338.031 76.5641 335.983 75.1049C334.928 74.3528 333.625 74.0998 332.39 74.3502L330.066 70.8489L320.926 77.0597L324.027 79.6432C323.539 80.7053 323.437 81.9392 323.846 83.1135L324.244 84.2558C325.596 97.1361 333.854 103.666 333.854 103.666L296.501 115.808L287.1 115.988C287.1 115.988 271.328 116.874 264.532 126.431C257.736 135.987 247.372 145.495 247.372 145.495C247.372 145.495 239.815 138.984 232.69 139.79C231.792 139.892 230.922 140.22 230.1 140.73C227.353 140.511 224.433 141.964 222.706 144.707C220.476 148.249 221.037 152.663 223.888 154.918C223.989 158.133 224.946 161.319 227.075 163.863C233.984 172.113 254.28 180.316 263.564 175.998C272.849 171.681 278.433 158.298 278.433 158.298C278.433 158.298 281.642 166.5 278.433 171.897C275.224 177.294 291.417 182.259 305.236 181.179C319.054 180.1 323.653 174.105 320.349 168.443C313.487 156.681 327.678 143.835 325.397 133.978C337.487 129.208 355.627 121.188 361.49 113.987C370.56 102.85 359.863 85.9102 347.772 81.1612Z" fill="#FADB81"/>
<path d="M325.597 135.194C325.464 133.763 325.015 132.388 324.137 131.082C320.955 126.348 316.144 123.501 309.612 119.505" stroke="#E6817D" stroke-miterlimit="10" stroke-linecap="round" stroke-linejoin="round"/>
<path d="M278.435 158.297C278.435 158.297 279.805 144.83 276.939 140.339" stroke="#E6817D" stroke-miterlimit="10" stroke-linecap="round" stroke-linejoin="round"/>
<path d="M247.373 145.494C247.373 145.494 256.081 149.23 258.384 157.146" stroke="#E6817D" stroke-miterlimit="10" stroke-linecap="round" stroke-linejoin="round"/>
<path d="M333.855 103.667C333.855 103.667 342.158 104.619 344.606 107.57" stroke="#E6817D" stroke-miterlimit="10" stroke-linecap="round" stroke-linejoin="round"/>
<path d="M226.098 152.492C223.747 150.942 216.794 146.964 216.794 146.964C215.197 146.635 213.068 146.484 211.647 145.658C209.583 144.457 210.846 141.072 211.716 139.445C212.731 137.546 211.992 136.968 211.716 135.028C211.378 132.646 212.875 132.366 214.726 132.764C216.158 133.071 215.841 132.462 217.087 131.921C217.86 131.585 218.245 131.879 218.979 132.363C219.764 132.879 220.411 133.608 221.189 134.158C222.133 134.826 223.147 135.166 223.643 136.271C224.27 137.668 224 139.327 224.442 140.741C225.239 143.29 230.521 146.839 230.521 146.839C231.814 150.718 228.645 153.451 226.098 152.492Z" fill="#AA3F37"/>
<path d="M215.85 132.663C215.831 132.963 215.583 133.457 215.491 133.803C215.356 134.314 215.245 134.831 215.101 135.341C214.883 136.11 214.54 137.107 214.866 137.885C215.132 138.52 216.19 139.296 216.638 138.384C216.996 137.657 217.1 136.816 217.497 136.098C217.228 137.158 217.105 138.522 217.535 139.557C218.081 140.872 219.564 141.88 220.976 141.999" stroke="#852B22" stroke-miterlimit="10" stroke-linecap="round" stroke-linejoin="round"/>
<path d="M217.756 139.985C217.9 140.16 217.862 140.595 217.864 140.826C217.871 141.414 217.845 141.993 217.775 142.575C217.635 143.739 217.026 145.409 215.597 145.418" stroke="#852B22" stroke-miterlimit="10" stroke-linecap="round" stroke-linejoin="round"/>
<path d="M294.964 101.217C297.421 100.008 300.471 100.648 302.214 102.897C304.205 105.468 303.736 109.165 301.165 111.156C298.594 113.147 294.896 112.679 292.904 110.108C291.111 107.795 291.313 104.567 293.246 102.493" stroke="#FADB81" stroke-miterlimit="10" stroke-linecap="round" stroke-linejoin="round"/>
<path d="M296.377 117.826L294.043 104.155L284.043 103.667L285.465 117.416C284.043 117.643 283.073 118.565 282.926 119.298C282.278 122.536 286.591 124.553 290.808 125.503C295.025 126.453 298.9 125.196 299.463 122.697C299.85 120.982 298.576 119.128 296.377 117.826Z" fill="#AA3F37"/>
<path d="M296.502 118.558L294.043 104.153L284.043 103.666C284.043 103.666 288.199 114.292 296.502 118.558Z" fill="#852B22"/>
<path d="M297.64 98.2198C297.86 95.9126 297.363 93.5044 296.2 91.5642C296.067 91.5142 295.936 91.4753 295.811 91.4753C294.942 91.4719 294.333 91.4978 293.431 91.2465C292.43 90.9676 292.048 90.7327 291.237 91.414C290.281 92.217 288.712 91.8406 287.563 91.5375C286.807 91.338 285.409 90.5419 284.699 91.1705C284.359 91.471 284.385 92.0003 284.409 92.451C284.433 92.8914 284.54 93.3033 284.354 93.7479C284.198 94.1218 283.747 94.3325 283.675 94.7038C283.547 95.36 284.227 96.0594 284.165 96.7683C284.124 97.2363 283.806 97.5152 283.737 97.9357C283.51 99.3198 284.982 100.256 285.126 101.486C285.271 102.72 283.443 101.82 283.006 101.351C282.705 101.027 282.515 100.557 282.106 100.36C281.674 100.152 281.135 100.309 280.689 100.195C280.156 100.06 279.66 99.3354 279.139 99.1394C279.087 99.2093 279.032 99.2689 278.981 99.3475C277.163 102.203 280.127 104.925 284.089 104.787C285.624 108.394 289.167 114.505 295.078 112.748C302.396 110.575 297.091 103.971 297.64 98.2198Z" fill="#AA3F37"/>
<path d="M288.564 99.3927C288.402 99.0325 288.563 98.6093 288.923 98.4478C289.283 98.2863 289.706 98.447 289.868 98.8071C290.029 99.1672 289.869 99.5904 289.508 99.7519C289.148 99.9134 288.725 99.7528 288.564 99.3927Z" fill="#233332"/>
<path d="M294.399 98.5164C294.238 98.1563 294.398 97.7331 294.759 97.5716C295.119 97.4101 295.542 97.5707 295.703 97.9309C295.865 98.291 295.704 98.7142 295.344 98.8757C294.985 99.0381 294.562 98.8766 294.399 98.5164Z" fill="#233332"/>
<path d="M286.63 96.1199C286.63 96.1199 288.35 94.8106 290.528 95.7658" stroke="#233332" stroke-miterlimit="10" stroke-linecap="round" stroke-linejoin="round"/>
<path d="M294.006 95.4171C294.006 95.4171 295.518 93.9463 297.559 95.4171" stroke="#233332" stroke-miterlimit="10" stroke-linecap="round" stroke-linejoin="round"/>
<path d="M293.072 96.1199C292.78 97.9435 294.029 99.2534 294.471 100.944C294.604 101.452 294.732 102.488 294.147 102.782C293.909 102.902 293.575 102.842 293.336 102.739C293.189 102.676 292.925 102.427 292.879 102.44" stroke="#852B22" stroke-miterlimit="10" stroke-linecap="round" stroke-linejoin="round"/>
<path d="M294.728 105.934C293.826 106.136 293.025 106.084 292.127 105.866C291.606 105.74 291.03 105.528 290.528 105.218C290.94 105.171 291.192 104.904 291.548 104.692C292.004 104.419 292.112 104.451 292.597 104.637C292.727 104.687 293.011 104.876 293.145 104.871C293.404 104.862 293.322 104.745 293.542 104.634C293.919 104.443 294.212 104.346 294.582 104.648C294.911 104.918 294.979 105.554 294.728 105.934Z" stroke="#D85145" stroke-miterlimit="10" stroke-linecap="round" stroke-linejoin="round"/>
<path d="M282.977 104.022C285.66 104.572 287.678 106.945 287.678 109.789C287.678 113.04 285.043 115.677 281.79 115.677C278.538 115.677 275.902 113.04 275.902 109.789C275.902 106.862 278.038 104.434 280.837 103.979" stroke="#FADB81" stroke-miterlimit="10" stroke-linecap="round" stroke-linejoin="round"/>
<path d="M336.002 70.1235C336.613 66.6239 337.537 57.8261 338.304 57.2026C339.804 55.9826 342.283 54.7582 343.315 53.1478C342.623 51.901 341.639 50.8571 340.883 49.6292C340.238 48.5827 340.07 47.3661 339.511 46.4344C338.712 45.1021 338.489 46.2911 337.388 46.3144C336.143 46.3412 335.022 45.7419 333.786 45.6634C331.36 45.5088 329.928 48.309 329.363 50.4003C328.984 51.8034 330.286 52.0737 330.485 53.3594C330.633 54.3092 329.493 54.8748 329.617 56.0007C329.692 56.6811 330.166 57.0455 330.39 57.6844C330.548 58.1343 329.785 66.6541 329.294 70.215L336.002 70.1235Z" fill="#E6817D"/>
<path d="M342.188 53.0977C340.425 52.7351 339.09 51.2767 337.578 50.3778C336.182 49.548 336.17 51.2655 336.536 52.2343C336.808 52.9544 337.336 53.5735 337.986 53.9664C336.171 53.501 333.018 53.8757 333.191 56.4074" stroke="#D85145" stroke-miterlimit="10" stroke-linecap="round" stroke-linejoin="round"/>
<path d="M335.854 53.6021C334.393 52.4906 332.603 51.5345 331.751 49.7874" stroke="#D85145" stroke-miterlimit="10" stroke-linecap="round" stroke-linejoin="round"/>
<path d="M388.472 61.7618C388.787 59.2741 390.126 48.815 390.126 48.815C390.829 47.5458 391.962 46.0174 392.227 44.578C392.611 42.4876 389.59 41.3789 387.985 41.024C386.113 40.6096 386.15 39.7737 384.998 38.463C383.583 36.8535 382.526 37.704 381.722 39.1857C381.1 40.3324 380.872 39.7651 379.784 40.2935C379.11 40.6217 379.085 41.0525 378.986 41.8288C378.881 42.6577 378.998 43.5186 378.92 44.3622C378.824 45.388 378.466 46.2704 378.926 47.2461C379.507 48.48 380.786 49.258 381.485 50.377C382.747 52.3932 382.085 61.4751 382.085 61.4751C383.959 64.5982 387.644 64.0404 388.472 61.7618Z" fill="#E6817D"/>
<path d="M381.003 39.8877C381.216 40.0492 381.694 40.1675 381.981 40.3065C382.405 40.512 382.819 40.7356 383.246 40.9342C383.893 41.233 384.766 41.5792 385.102 42.2501C385.378 42.7984 385.289 43.9632 384.412 43.737C383.714 43.5574 383.084 43.1412 382.369 42.9927C383.241 43.4253 384.235 44.1325 384.686 45.0236C385.259 46.1547 385.08 47.7417 384.343 48.7649" stroke="#D85145" stroke-width="0.8906" stroke-miterlimit="10" stroke-linecap="round" stroke-linejoin="round"/>
<path d="M384.849 45.4207C384.884 45.6193 385.2 45.8456 385.355 45.9812C385.748 46.3266 386.155 46.6444 386.59 46.9346C387.458 47.515 388.94 48.0721 389.774 47.1108" stroke="#D85145" stroke-width="0.8906" stroke-miterlimit="10" stroke-linecap="round" stroke-linejoin="round"/>
<path d="M381.372 307.688C381.372 307.688 389.793 325.173 390.441 336.182C390.441 336.182 381.464 340.499 364.901 339.204C364.901 339.204 359.565 336.967 367.338 333.337C375.111 329.707 375.759 328.177 375.759 328.177L369.281 309.63L381.372 307.688Z" fill="#E6817D"/>
<path d="M381.372 307.688L369.281 309.63L374.083 323.378L387.309 322.393C384.679 314.556 381.372 307.688 381.372 307.688Z" fill="#AA3F37"/>
<path d="M364.901 339.203C381.464 340.499 390.441 336.181 390.441 336.181C390.385 335.24 390.27 334.25 390.111 333.228C386.662 333.65 382.797 334.13 379.429 334.454C372.088 335.162 371.146 331.433 371.146 331.433L371.143 331.434C370.115 331.991 368.869 332.621 367.338 333.336C359.565 336.966 364.901 339.203 364.901 339.203Z" fill="#4D60A4"/>
<path d="M339.876 306.392L332.067 332.286C332.067 332.286 323.067 341.047 324.228 347.515C325.212 352.995 338.259 341.802 342.223 338.253C342.962 337.592 343.538 336.773 343.908 335.853L355.751 306.392H339.876Z" fill="#E6817D"/>
<path d="M355.174 307.825L348.457 306.392H339.876L334.695 323.566H348.846L355.174 307.825Z" fill="#AA3F37"/>
<path d="M328.878 335.905C326.417 339.048 323.54 343.684 324.227 347.515C325.211 352.994 338.258 341.801 342.222 338.252C342.961 337.591 343.537 336.772 343.907 335.852L344.711 333.853C342.851 335.64 340.162 337.627 336.895 338.34C332.62 339.274 330.097 337.325 328.878 335.905Z" fill="#4D60A4"/>
<path d="M345.806 116.924C345.594 113.752 343.637 109.699 344.318 105.694C345.038 101.461 346.754 97.939 350.436 95.6387C358.6 90.5391 364.712 93.86 370.955 100.349C377.132 106.769 378.454 115.625 381.694 123.59C384.834 131.307 391.808 137.062 396.075 144.043C400.664 151.551 403.031 165.901 392.797 169.815C390.134 170.833 387.125 170.563 384.328 171.021C380.297 171.681 376.612 173.522 372.787 174.809C368.187 176.355 363.975 178.604 359.223 179.794C353.291 181.279 343.407 181.603 338.607 176.916C331.864 170.332 339.197 155.649 342.209 148.977C346.851 138.695 348.672 128.511 346.595 117.751C346.527 117.996 346.434 118.234 345.806 116.924Z" fill="#233332"/>
<path d="M347.289 174.697C347.289 174.697 330.346 191.065 329.723 207.463C328.185 248.001 369.192 299.975 367.921 321.303L391.427 319.238C391.427 319.238 385.679 275.589 369.433 245.465C369.433 245.465 390.513 208.802 382.428 177.268L347.289 174.697Z" fill="#D85145"/>
<path d="M359.55 175.594L332.801 321.303H357.751C357.751 321.303 366.455 253.652 375.882 238.799C385.309 223.946 392.437 212.648 382.429 177.268L359.55 175.594Z" fill="#D85145"/>
<path d="M343.426 263.426C343.426 263.426 348.921 185.581 354.415 175.219" stroke="#AA3F37" stroke-miterlimit="10" stroke-linecap="round" stroke-linejoin="round"/>
<path d="M360.702 301.005L364.901 276.933" stroke="#AA3F37" stroke-miterlimit="10" stroke-linecap="round" stroke-linejoin="round"/>
<path d="M370.145 181.965C370.145 181.965 377.191 199.544 387.27 207.097" stroke="#AA3F37" stroke-width="0.8908" stroke-miterlimit="10" stroke-linecap="round" stroke-linejoin="round"/>
<path d="M349.537 174.861C349.537 174.861 343.426 193.241 350.4 193.241" stroke="#AA3F37" stroke-miterlimit="10" stroke-linecap="round" stroke-linejoin="round"/>
<path d="M334.622 311.385H359.129" stroke="#AA3F37" stroke-miterlimit="10" stroke-linecap="round" stroke-linejoin="round"/>
<path d="M366.554 311.85L389.793 309.247" stroke="#AA3F37" stroke-miterlimit="10" stroke-linecap="round" stroke-linejoin="round"/>
<path d="M382.806 159.835C385.144 143.663 394.345 133.58 390.499 110.559C387.779 94.2772 391.363 58.9038 391.363 58.9038H379.824C372.219 70.21 370.64 105.791 369.627 118.058C369.334 121.607 366.366 124.332 362.805 124.332C362.805 124.332 359.418 125.064 356.314 126.716C339.341 116.761 338.195 65.5792 338.195 65.5792H326.143L324.86 87.4369C320.333 116.562 336.504 136.819 344.266 144.662C343.89 145.336 343.562 146.051 343.315 146.836C341.52 152.553 345.622 154.194 347.418 159.579C348.354 162.386 346.502 170.49 344.514 177.604C342.689 184.135 382.5 182.757 382.428 177.269C382.31 168.251 382.806 159.835 382.806 159.835Z" fill="#3C4A77"/>
<path d="M343.315 146.835C345.109 141.118 351.008 138.83 351.264 132.795" stroke="#233332" stroke-width="0.8908" stroke-miterlimit="10" stroke-linecap="round" stroke-linejoin="round"/>
<path d="M351.265 158.525C351.265 158.525 359.622 157.013 365.963 159.388" stroke="#233332" stroke-width="0.8908" stroke-miterlimit="10" stroke-linecap="round" stroke-linejoin="round"/>
<path d="M369.74 116.597L368.417 132.795" stroke="#233332" stroke-width="0.8908" stroke-miterlimit="10" stroke-linecap="round" stroke-linejoin="round"/>
<path d="M356.462 128.335L357.226 118.813L365.963 115.937L367.293 122.329C367.685 124.212 367.088 126.164 365.711 127.505L358.782 135.889L356.462 128.335Z" fill="#E6817D"/>
<path d="M365.963 115.937L357.226 118.813L356.462 128.335C365.963 125.063 365.963 115.937 365.963 115.937Z" fill="#D85145"/>
<path d="M368.958 109.007L365.962 112.212C364.547 109.94 361.38 109.34 358.284 108.334C354.437 107.085 353.379 104.2 353.379 104.2C352.237 110.668 349.721 112.869 349.667 112.916C349.688 113.169 349.707 113.421 349.74 113.677C350.587 120.117 354.869 124.865 359.308 124.283C362.402 123.876 364.989 120.616 365.962 115.937C371.195 114.091 368.958 109.007 368.958 109.007Z" fill="#E6817D"/>
<path d="M359.912 109.453C359.912 109.453 357.751 108.116 356.34 110.03" stroke="#233332" stroke-miterlimit="10" stroke-linecap="round" stroke-linejoin="round"/>
<path d="M352.864 110.972C352.864 110.972 350.982 110.131 350.158 112.158" stroke="#233332" stroke-miterlimit="10" stroke-linecap="round" stroke-linejoin="round"/>
<path d="M354.281 111.142C355.216 112.734 354.529 114.409 354.732 116.144C354.794 116.666 355.051 117.677 355.703 117.738C355.968 117.763 356.257 117.586 356.442 117.403C356.556 117.291 356.712 116.964 356.759 116.958" stroke="#D85145" stroke-miterlimit="10" stroke-linecap="round" stroke-linejoin="round"/>
<path d="M356.003 119.189C356.928 119.186 357.908 118.666 358.737 118.257C359.217 118.019 359.733 117.686 360.154 117.273C360.154 117.273 361.076 120.205 358.126 121.105L356.003 119.189Z" fill="#F9F9F9"/>
<path d="M353.339 112.9C352.724 112.625 351.502 113.258 351.216 113.764" stroke="#D85145" stroke-miterlimit="10" stroke-linecap="round" stroke-linejoin="round"/>
<path d="M359.231 111.403C358.688 111.003 357.359 111.362 356.972 111.796" stroke="#D85145" stroke-miterlimit="10" stroke-linecap="round" stroke-linejoin="round"/>
</svg>
