<svg width="24" height="18" viewBox="0 0 24 18" fill="none" xmlns="http://www.w3.org/2000/svg">
<path d="M8.14286 0C7.34818 0.00331777 6.58695 0.336257 6.02503 0.926279C5.4631 1.5163 5.14602 2.31559 5.14286 3.15C5.14286 4.8798 6.49543 6.3 8.14286 6.3C9.79029 6.3 11.1429 4.8798 11.1429 3.15C11.1429 1.4202 9.79029 0 8.14286 0ZM15.8571 0C15.0625 0.00331777 14.3012 0.336257 13.7393 0.926279C13.1774 1.5163 12.8603 2.31559 12.8571 3.15C12.8571 4.8798 14.2097 6.3 15.8571 6.3C17.5046 6.3 18.8571 4.8798 18.8571 3.15C18.8571 1.4202 17.5046 0 15.8571 0ZM8.14286 1.8C8.86286 1.8 9.42857 2.394 9.42857 3.15C9.42857 3.906 8.86286 4.5 8.14286 4.5C7.42286 4.5 6.85714 3.906 6.85714 3.15C6.85714 2.394 7.42286 1.8 8.14286 1.8ZM15.8571 1.8C16.5771 1.8 17.1429 2.394 17.1429 3.15C17.1429 3.906 16.5771 4.5 15.8571 4.5C15.1371 4.5 14.5714 3.906 14.5714 3.15C14.5714 2.394 15.1371 1.8 15.8571 1.8ZM4.28571 5.4C2.4 5.4 0.857143 7.02 0.857143 9C0.857143 10.0017 1.266 10.9053 1.902 11.5596C1.31856 11.973 0.840253 12.5299 0.508742 13.1819C0.177231 13.8338 0.00257805 14.561 0 15.3H1.71429C1.71429 13.7988 2.856 12.6 4.28571 12.6C5.71543 12.6 6.85714 13.7988 6.85714 15.3H8.57143C8.56885 14.561 8.3942 13.8338 8.06269 13.1819C7.73118 12.5299 7.25287 11.973 6.66943 11.5596C7.30543 10.9053 7.71429 10.0026 7.71429 9C7.71429 7.02 6.17143 5.4 4.28571 5.4ZM8.57143 15.3C8.03571 16.0524 7.71429 16.9983 7.71429 18H9.42857C9.42857 16.4988 10.5703 15.3 12 15.3C13.4297 15.3 14.5714 16.4988 14.5714 18H16.2857C16.2842 17.0266 15.9836 16.0797 15.4286 15.3C15.1371 14.8923 14.7857 14.544 14.3837 14.2596C15.0197 13.6053 15.4286 12.7026 15.4286 11.7C15.4286 9.72 13.8857 8.1 12 8.1C10.1143 8.1 8.57143 9.72 8.57143 11.7C8.57143 12.7017 8.98029 13.6053 9.61629 14.2596C9.21504 14.5426 8.86185 14.8943 8.57143 15.3ZM15.4286 15.3H17.1429C17.1429 13.7988 18.2846 12.6 19.7143 12.6C21.144 12.6 22.2857 13.7988 22.2857 15.3H24C23.9974 14.561 23.8228 13.8338 23.4913 13.1819C23.1597 12.5299 22.6814 11.973 22.098 11.5596C22.734 10.9053 23.1429 10.0026 23.1429 9C23.1429 7.02 21.6 5.4 19.7143 5.4C17.8286 5.4 16.2857 7.02 16.2857 9C16.2857 10.0017 16.6946 10.9053 17.3306 11.5596C16.7471 11.973 16.2688 12.5299 15.9373 13.1819C15.6058 13.8338 15.4311 14.561 15.4286 15.3ZM4.28571 7.2C5.24314 7.2 6 7.9947 6 9C6 10.0053 5.24314 10.8 4.28571 10.8C3.32829 10.8 2.57143 10.0053 2.57143 9C2.57143 7.9947 3.32829 7.2 4.28571 7.2ZM19.7143 7.2C20.6717 7.2 21.4286 7.9947 21.4286 9C21.4286 10.0053 20.6717 10.8 19.7143 10.8C18.7569 10.8 18 10.0053 18 9C18 7.9947 18.7569 7.2 19.7143 7.2ZM12 9.9C12.9574 9.9 13.7143 10.6947 13.7143 11.7C13.7143 12.7053 12.9574 13.5 12 13.5C11.0426 13.5 10.2857 12.7053 10.2857 11.7C10.2857 10.6947 11.0426 9.9 12 9.9Z" fill="white"/>
</svg>
