<svg width="24" height="24" viewBox="0 0 24 24" fill="none" xmlns="http://www.w3.org/2000/svg">
<path d="M8.14286 3C7.34818 3.00332 6.58695 3.33626 6.02503 3.92628C5.4631 4.5163 5.14602 5.31559 5.14286 6.15C5.14286 7.8798 6.49543 9.3 8.14286 9.3C9.79029 9.3 11.1429 7.8798 11.1429 6.15C11.1429 4.4202 9.79029 3 8.14286 3ZM15.8571 3C15.0625 3.00332 14.3012 3.33626 13.7393 3.92628C13.1774 4.5163 12.8603 5.31559 12.8571 6.15C12.8571 7.8798 14.2097 9.3 15.8571 9.3C17.5046 9.3 18.8571 7.8798 18.8571 6.15C18.8571 4.4202 17.5046 3 15.8571 3ZM8.14286 4.8C8.86286 4.8 9.42857 5.394 9.42857 6.15C9.42857 6.906 8.86286 7.5 8.14286 7.5C7.42286 7.5 6.85714 6.906 6.85714 6.15C6.85714 5.394 7.42286 4.8 8.14286 4.8ZM15.8571 4.8C16.5771 4.8 17.1429 5.394 17.1429 6.15C17.1429 6.906 16.5771 7.5 15.8571 7.5C15.1371 7.5 14.5714 6.906 14.5714 6.15C14.5714 5.394 15.1371 4.8 15.8571 4.8ZM4.28571 8.4C2.4 8.4 0.857143 10.02 0.857143 12C0.857143 13.0017 1.266 13.9053 1.902 14.5596C1.31856 14.973 0.840253 15.5299 0.508742 16.1819C0.177231 16.8338 0.00257805 17.561 0 18.3H1.71429C1.71429 16.7988 2.856 15.6 4.28571 15.6C5.71543 15.6 6.85714 16.7988 6.85714 18.3H8.57143C8.56885 17.561 8.3942 16.8338 8.06269 16.1819C7.73118 15.5299 7.25287 14.973 6.66943 14.5596C7.30543 13.9053 7.71429 13.0026 7.71429 12C7.71429 10.02 6.17143 8.4 4.28571 8.4ZM8.57143 18.3C8.03571 19.0524 7.71429 19.9983 7.71429 21H9.42857C9.42857 19.4988 10.5703 18.3 12 18.3C13.4297 18.3 14.5714 19.4988 14.5714 21H16.2857C16.2842 20.0266 15.9836 19.0797 15.4286 18.3C15.1371 17.8923 14.7857 17.544 14.3837 17.2596C15.0197 16.6053 15.4286 15.7026 15.4286 14.7C15.4286 12.72 13.8857 11.1 12 11.1C10.1143 11.1 8.57143 12.72 8.57143 14.7C8.57143 15.7017 8.98029 16.6053 9.61629 17.2596C9.21504 17.5426 8.86185 17.8943 8.57143 18.3ZM15.4286 18.3H17.1429C17.1429 16.7988 18.2846 15.6 19.7143 15.6C21.144 15.6 22.2857 16.7988 22.2857 18.3H24C23.9974 17.561 23.8228 16.8338 23.4913 16.1819C23.1597 15.5299 22.6814 14.973 22.098 14.5596C22.734 13.9053 23.1429 13.0026 23.1429 12C23.1429 10.02 21.6 8.4 19.7143 8.4C17.8286 8.4 16.2857 10.02 16.2857 12C16.2857 13.0017 16.6946 13.9053 17.3306 14.5596C16.7471 14.973 16.2688 15.5299 15.9373 16.1819C15.6058 16.8338 15.4311 17.561 15.4286 18.3ZM4.28571 10.2C5.24314 10.2 6 10.9947 6 12C6 13.0053 5.24314 13.8 4.28571 13.8C3.32829 13.8 2.57143 13.0053 2.57143 12C2.57143 10.9947 3.32829 10.2 4.28571 10.2ZM19.7143 10.2C20.6717 10.2 21.4286 10.9947 21.4286 12C21.4286 13.0053 20.6717 13.8 19.7143 13.8C18.7569 13.8 18 13.0053 18 12C18 10.9947 18.7569 10.2 19.7143 10.2ZM12 12.9C12.9574 12.9 13.7143 13.6947 13.7143 14.7C13.7143 15.7053 12.9574 16.5 12 16.5C11.0426 16.5 10.2857 15.7053 10.2857 14.7C10.2857 13.6947 11.0426 12.9 12 12.9Z" fill="#1ADC67"/>
</svg>
