<svg width="25" height="24" viewBox="0 0 25 24" fill="none" xmlns="http://www.w3.org/2000/svg">
<path d="M12.6667 20.6667C17.3333 20.6667 20.6666 19.016 20.6666 15.3414C20.6666 11.3481 18.6666 8.68545 14.6667 6.68813L16.24 4.66415C16.3201 4.53139 16.3636 4.37976 16.3661 4.22471C16.3685 4.06966 16.3298 3.91673 16.254 3.78149C16.1781 3.64626 16.0677 3.53355 15.9341 3.45486C15.8005 3.37616 15.6484 3.33428 15.4933 3.3335H9.84004C9.6853 3.3351 9.53372 3.37749 9.40059 3.45638C9.26745 3.53526 9.15748 3.64786 9.08175 3.78282C9.00603 3.91777 8.96723 4.07031 8.96927 4.22504C8.97131 4.37978 9.01412 4.53124 9.09338 4.66415L10.6667 6.70147C6.66673 8.71212 4.66675 11.3748 4.66675 15.3681C4.66675 19.016 8.00005 20.6667 12.6667 20.6667Z" stroke="white" stroke-width="1.5" stroke-linecap="round" stroke-linejoin="round"/>
<path d="M14.5106 11.7415C14.4112 11.4595 14.2268 11.2153 13.9827 11.0426C13.7386 10.87 13.447 10.7773 13.148 10.7775H12.0306C11.7123 10.7769 11.4049 10.894 11.1678 11.1065C10.9307 11.3189 10.7805 11.6115 10.7463 11.928C10.712 12.2445 10.796 12.5625 10.9822 12.8208C11.1684 13.079 11.4435 13.2593 11.7546 13.3268L13.4573 13.7001C13.8042 13.7775 14.1105 13.98 14.3175 14.269C14.5246 14.5579 14.6179 14.913 14.5796 15.2664C14.5413 15.6198 14.3742 15.9467 14.1101 16.1846C13.846 16.4226 13.5034 16.5548 13.148 16.5561H12.1866C11.5573 16.5561 11.0227 16.1534 10.824 15.5934M12.6666 10.7775V9.3335M12.6666 18.0001V16.5561" stroke="white" stroke-width="1.5" stroke-linecap="round" stroke-linejoin="round"/>
</svg>
