<svg width="400" height="164" viewBox="0 0 400 164" fill="none" xmlns="http://www.w3.org/2000/svg">
<path d="M399.997 153.165H0.000610352V163.997H399.997V153.165Z" fill="#00B385"/>
<path d="M399.997 156.472H0.000610352V157.605H399.997V156.472Z" fill="white"/>
<path fill-rule="evenodd" clip-rule="evenodd" d="M377.645 153.184H0.0499878V137.607H377.638L377.645 153.184Z" fill="#B36A4F"/>
<path fill-rule="evenodd" clip-rule="evenodd" d="M377.64 141.625H0.0499878V134.435H377.637L377.64 141.625Z" fill="#00B385"/>
<path d="M377.637 134.381H0.0499878V136.179H377.637V134.381Z" fill="#317F6A"/>
<path d="M66.1412 79.0824H37.8947C35.7497 79.0824 34.0104 77.3408 34.0104 75.1931V75.1109C34.0104 72.9625 35.7495 71.2209 37.8947 71.2209H66.1412C68.2864 71.2209 70.0253 72.9625 70.0253 75.1109V75.1931C70.0255 77.3408 68.2866 79.0824 66.1412 79.0824Z" fill="#F35F8B"/>
<mask id="mask0_124_1154" style="mask-type:luminance" maskUnits="userSpaceOnUse" x="0" y="56" width="400" height="108">
<path d="M0 163.997H399.998L400 56.9236L0.000624995 56.9148L0 163.997Z" fill="white"/>
</mask>
<g mask="url(#mask0_124_1154)">
<path d="M40.4282 139.42C40.1074 139.451 39.7947 139.489 39.4826 139.525C36.2293 139.903 33.2358 140.509 30.8596 141.086C30.5068 141.176 30.1723 141.262 29.8469 141.344C28.8248 141.606 27.9467 141.86 27.2519 142.072C25.0677 142.738 22.8907 143.487 20.7615 144.347C20.4142 144.482 20.0659 144.628 19.723 144.773C18.5157 145.28 17.3251 145.831 16.1628 146.42C15.8222 146.589 15.4859 146.763 15.1488 146.946C11.5932 148.842 8.29348 151.155 5.46371 154.04C2.27436 157.292 -4.57017 162.424 -4.64371 168.832C-4.67225 171.317 -2.44352 176.972 -1.39519 178.539C-1.30478 178.689 -1.19582 178.836 -1.07686 178.975C-0.893948 179.188 -0.695824 179.383 -0.487076 179.56C0.606666 180.512 2.03707 181.039 3.4306 181.375C9.17347 182.76 15.5915 181.822 21.1682 180.09C23.8546 179.257 26.4588 178.165 28.9325 176.831C29.4719 176.539 30.0071 176.24 30.5341 175.924C31.061 175.611 31.5795 175.288 32.0893 174.956C35.6635 172.622 38.9022 169.763 41.6188 166.467C42.6449 165.225 43.5555 163.908 44.4042 162.561C44.5822 162.277 44.7507 161.998 44.9242 161.715C45.9044 160.085 46.8057 158.404 47.7071 156.721C47.8625 156.432 48.0132 156.142 48.1732 155.854C49.1611 153.998 50.1673 152.148 51.2881 150.366C51.4715 150.075 51.645 149.801 51.8075 149.535C52.0011 149.231 52.1842 148.943 52.3525 148.669C54.0927 145.888 55.0421 144.367 56.8035 142.3C56.8591 142.235 56.9064 142.164 56.9348 142.088C57.1725 141.624 57.0175 141.039 56.571 140.76C56.5096 140.719 56.4333 140.685 56.3569 140.657C51.4077 138.974 45.6336 138.886 40.4282 139.42Z" fill="#317F6A"/>
<path d="M29.4816 154.985C29.3946 155.044 29.3066 155.101 29.2189 155.16C29.1323 150.42 29.6871 145.677 30.8595 141.086C30.5068 141.175 30.1723 141.261 29.8468 141.344C28.6929 146.061 28.1802 150.914 28.3191 155.769C26.1352 157.24 23.9717 158.749 21.8336 160.283C21.824 160.287 21.8188 160.296 21.8092 160.3C21.729 160.327 21.6654 160.373 21.624 160.435C20.463 161.26 19.3103 162.099 18.1621 162.939C18.2328 162.116 18.3069 161.298 18.3863 160.481C18.9123 155.069 19.5869 149.655 20.7615 144.347C20.4142 144.482 20.0659 144.628 19.723 144.773C18.3926 150.995 17.7326 157.332 17.1699 163.67C16.7986 163.944 16.4272 164.216 16.0557 164.49C15.5861 164.834 15.1165 165.183 14.647 165.537C14.6405 164.565 14.6522 163.599 14.6734 162.628C14.7943 157.2 15.2936 151.782 16.163 146.419C15.8224 146.588 15.4861 146.762 15.149 146.946C14.1495 153.317 13.6799 159.769 13.733 166.214C11.4391 167.917 9.15722 169.654 6.91786 171.435C6.62828 171.664 6.34328 171.892 6.05807 172.125C3.49809 174.179 1.00186 176.307 -1.3952 178.539C-1.30479 178.689 -1.19583 178.836 -1.07687 178.975C-0.893957 179.188 -0.695833 179.383 -0.487085 179.56C1.35915 177.847 3.25559 176.201 5.19475 174.602C5.99245 173.939 6.79848 173.287 7.61368 172.639C8.26764 172.854 8.92284 173.056 9.58367 173.244C16.3878 175.208 23.4688 176.11 30.5339 175.923C31.0608 175.611 31.5793 175.288 32.0891 174.956C30.7489 175.023 29.4066 175.048 28.0629 175.036C21.4282 174.968 14.8193 173.921 8.48785 171.945C10.2249 170.58 11.9882 169.235 13.7588 167.914C14.0572 167.687 14.3607 167.459 14.6634 167.241C15.4415 166.656 16.2236 166.076 17.0107 165.5C17.3384 165.256 17.6661 165.012 17.998 164.774C18.1396 164.668 18.2769 164.567 18.4186 164.462C19.9573 163.337 21.5011 162.216 23.0521 161.11C24.9746 160.985 26.9048 160.883 28.8329 160.925C30.9962 160.97 33.1537 161.168 35.3045 161.383C38.3455 161.693 41.3799 162.086 44.4038 162.561C44.5817 162.277 44.7503 161.998 44.9238 161.715C41.6768 161.196 38.4189 160.769 35.1487 160.442C32.9237 160.221 30.6927 160.022 28.4541 159.995C27.1237 159.983 25.7938 160.037 24.4623 160.109L24.4675 160.105C25.769 159.184 27.0748 158.277 28.3885 157.384C28.6808 157.184 28.9723 156.988 29.2691 156.788C29.7504 156.468 30.2366 156.143 30.7225 155.823C32.5241 155.707 34.3235 155.619 36.1272 155.656C38.2914 155.701 40.448 155.903 42.5988 156.119C44.3049 156.292 46.0092 156.493 47.7067 156.721C47.8621 156.433 48.0127 156.143 48.1727 155.854C46.2701 155.592 44.3596 155.371 42.4428 155.177C40.2178 154.957 37.9874 154.753 35.7526 154.73C34.5893 154.718 33.422 154.756 32.2575 154.813C34.2633 153.509 36.2976 152.245 38.3612 151.029C38.6607 150.852 38.9603 150.675 39.2641 150.503C40.2636 149.921 41.2713 149.353 42.2878 148.799C42.2878 148.799 42.2924 148.795 42.2967 148.8C42.4863 148.8 42.6805 148.801 42.8694 148.805C45.033 148.851 47.1905 149.048 49.3413 149.264C50.1623 149.348 50.9877 149.438 51.8073 149.536C52.0008 149.231 52.184 148.943 52.3523 148.669C51.2986 148.545 50.24 148.428 49.185 148.322C47.4371 148.151 45.6842 147.988 43.929 147.912C48.1373 145.69 52.4662 143.712 56.9345 142.088C57.1723 141.624 57.0173 141.039 56.5708 140.761C52.25 142.322 48.0442 144.207 43.9632 146.333C42.997 146.835 42.044 147.352 41.0947 147.882C41.0897 147.882 41.0847 147.886 41.0847 147.886C40.507 148.199 39.9286 148.521 39.3591 148.854C39.5657 145.691 39.9236 142.547 40.4286 139.42C40.1078 139.452 39.7951 139.489 39.483 139.526C38.9582 142.8 38.598 146.095 38.398 149.407C35.3649 151.171 32.4027 153.046 29.4816 154.985Z" fill="#317F6A"/>
</g>
<mask id="mask1_124_1154" style="mask-type:luminance" maskUnits="userSpaceOnUse" x="0" y="56" width="400" height="108">
<path d="M0 163.997H399.998L400 56.9236L0.000624995 56.9148L0 163.997Z" fill="white"/>
</mask>
<g mask="url(#mask1_124_1154)">
<path d="M15.9087 109.064C15.5495 109.301 15.2047 109.538 14.8595 109.775C11.262 112.238 8.11246 114.808 5.67103 116.962C5.31061 117.286 4.97041 117.595 4.6377 117.894C3.59604 118.836 2.71918 119.68 2.03189 120.361C-0.128304 122.5 -2.22746 124.732 -4.20411 127.065C-4.52869 127.442 -4.84931 127.829 -5.16347 128.213C-6.27055 129.559 -7.33346 130.946 -8.33761 132.36C-8.63324 132.77 -8.92261 133.184 -9.20636 133.609C-12.2193 138.048 -14.6746 142.819 -16.2221 147.972C-17.9665 153.779 -22.8523 164.07 -18.975 171.661C-17.4705 174.606 -11.3478 179.882 -9.14323 181.079C-8.94448 181.2 -8.72449 181.305 -8.49928 181.394C-8.15241 181.53 -7.79783 181.637 -7.44241 181.717C-5.56576 182.158 -3.55515 181.893 -1.70725 181.422C5.9129 179.491 12.8916 174.405 18.3866 168.906C21.0357 166.26 23.4265 163.357 25.5152 160.252C25.9688 159.573 26.4144 158.89 26.8394 158.19C27.2661 157.495 27.6777 156.794 28.0723 156.087C30.8369 151.12 32.8827 145.743 34.0423 140.177C34.4818 138.077 34.74 135.963 34.9054 133.849C34.9404 133.406 34.9662 132.973 34.9956 132.531C35.1425 130.003 35.1625 127.463 35.1835 124.924C35.187 124.487 35.1858 124.052 35.1952 123.613C35.2116 120.815 35.251 118.012 35.4698 115.218C35.505 114.761 35.5383 114.331 35.566 113.918C35.606 113.438 35.6439 112.987 35.6716 112.559C36.0012 108.204 36.1781 105.824 36.9739 102.298C36.9993 102.187 37.0104 102.074 36.9964 101.966C36.9897 101.273 36.4447 100.68 35.7475 100.629C35.6495 100.618 35.5387 100.625 35.431 100.639C28.5625 101.727 21.709 105.206 15.9087 109.064Z" fill="#00B385"/>
<path d="M12.7583 134.272C12.6914 134.394 12.6243 134.517 12.5576 134.64C9.52307 129.112 7.24225 123.182 5.78268 117.049C5.42248 117.373 5.08206 117.682 4.74936 117.98C6.30914 124.251 8.70745 130.284 11.8739 135.915C10.2116 139.002 8.59808 142.122 7.02955 145.255C7.02059 145.265 7.02017 145.279 7.0108 145.289C6.93288 145.371 6.88684 145.464 6.87642 145.563C6.01976 147.255 5.18144 148.959 4.34894 150.66C3.92207 149.647 3.50374 148.638 3.09125 147.626C0.362934 140.927 -2.19184 134.131 -4.09245 127.151C-4.41703 127.528 -4.73765 127.915 -5.05182 128.299C-2.76954 136.452 0.373767 144.323 3.63249 152.137C3.36437 152.689 3.09562 153.241 2.82708 153.793C2.48771 154.49 2.15104 155.192 1.81605 155.9C1.20772 154.76 0.623348 153.614 0.0481443 152.459C-3.16766 145.991 -5.9316 139.301 -8.22617 132.446C-8.52179 132.856 -8.81116 133.27 -9.09491 133.694C-6.32951 141.818 -2.89121 149.708 1.15855 157.265C-0.488935 160.693 -2.10226 164.154 -3.63724 167.64C-3.83724 168.09 -4.03078 168.536 -4.22266 168.987C-5.9666 172.993 -7.59013 177.048 -9.03158 181.164C-8.83283 181.285 -8.61283 181.39 -8.38762 181.479C-8.04075 181.616 -7.68617 181.723 -7.33076 181.802C-6.2166 178.639 -5.00077 175.525 -3.70704 172.438C-3.17725 171.163 -2.63225 169.895 -2.07267 168.627C-1.16872 168.475 -0.273104 168.305 0.621057 168.117C9.84869 166.209 18.7463 162.878 26.9508 158.276C27.3775 157.581 27.7894 156.879 28.1838 156.172C26.6463 157.082 25.0813 157.944 23.4919 158.763C15.6366 162.799 7.20601 165.665 -1.47289 167.268C-0.271437 164.582 0.973346 161.905 2.24104 159.25C2.45167 158.797 2.66854 158.341 2.8902 157.897C3.44437 156.724 4.00686 155.556 4.57686 154.39C4.81207 153.9 5.04727 153.409 5.29039 152.922C5.39248 152.71 5.49081 152.506 5.59289 152.294C6.70934 150.015 7.8335 147.737 8.97599 145.472C11.1624 144.132 13.3722 142.815 15.6689 141.668C18.2451 140.378 20.9071 139.274 23.5742 138.193C27.3465 136.672 31.1631 135.251 35.0168 133.935C35.0518 133.491 35.0777 133.058 35.107 132.616C30.9629 134.019 26.8609 135.537 22.8073 137.182C20.0509 138.3 17.3011 139.451 14.6466 140.807C13.0741 141.619 11.5406 142.507 10.0172 143.419L10.0199 143.41C10.9843 141.519 11.9606 139.64 12.9555 137.774C13.1749 137.357 13.3982 136.945 13.6241 136.526C13.9926 135.849 14.3641 135.166 14.7382 134.488C16.7876 133.234 18.8517 132.013 20.9994 130.938C23.5755 129.65 26.2406 128.549 28.9077 127.469C31.0242 126.614 33.1548 125.794 35.295 125.01C35.2985 124.573 35.2972 124.138 35.3066 123.699C32.9043 124.571 30.5179 125.495 28.1402 126.456C25.3838 127.577 22.6313 128.721 19.9851 130.081C18.6072 130.788 17.2563 131.557 15.9205 132.346C17.4755 129.566 19.0892 126.815 20.7663 124.104C21.0105 123.709 21.2536 123.316 21.5057 122.924C22.3223 121.618 23.1575 120.324 24.0117 119.042C24.0117 119.042 24.0152 119.034 24.023 119.037C24.2463 118.919 24.475 118.8 24.7002 118.688C27.2767 117.399 29.9398 116.294 32.6054 115.213C33.6248 114.803 34.6518 114.396 35.6774 114.004C35.7174 113.524 35.7554 113.073 35.7831 112.645C34.4658 113.152 33.1473 113.672 31.8394 114.201C29.6748 115.083 27.5092 115.979 25.3965 116.979C28.9765 111.752 32.851 106.737 37.1079 102.052C37.1012 101.359 36.5562 100.766 35.8589 100.715C31.7366 105.234 27.9498 110.063 24.4588 115.098C23.6321 116.288 22.8292 117.488 22.0392 118.702C22.0328 118.705 22.0301 118.713 22.0301 118.713C21.5432 119.44 21.0617 120.179 20.5961 120.924C18.8836 117.07 17.3605 113.147 16.0201 109.15C15.6609 109.387 15.3161 109.624 14.9709 109.862C16.3782 114.043 17.9932 118.147 19.8074 122.171C17.3276 126.13 14.9989 130.177 12.7583 134.272Z" fill="#9CDCC7"/>
</g>
<mask id="mask2_124_1154" style="mask-type:luminance" maskUnits="userSpaceOnUse" x="346" y="56" width="54" height="108">
<path d="M346.268 163.996L399.997 163.996L400 56.9233L346.268 56.9231V163.996Z" fill="white"/>
</mask>
<g mask="url(#mask2_124_1154)">
<path d="M400.96 126.598C399.217 123.259 396.881 120.28 394.191 117.587C393.937 117.329 393.681 117.079 393.419 116.832C392.531 115.978 391.606 115.15 390.653 114.354C390.382 114.127 390.107 113.898 389.83 113.678C388.139 112.305 386.373 111.014 384.576 109.793C384.004 109.405 383.278 108.926 382.423 108.397C382.15 108.23 381.87 108.057 381.575 107.876C379.577 106.675 377.025 105.269 374.171 103.983C373.897 103.859 373.624 103.735 373.34 103.613C368.752 101.619 363.467 99.9955 358.472 100C358.394 100.003 358.315 100.009 358.247 100.027C357.759 100.138 357.449 100.601 357.531 101.073C357.535 101.148 357.558 101.223 357.589 101.296C358.596 103.609 359.02 105.21 359.8 108.136C359.874 108.424 359.958 108.728 360.046 109.049C360.117 109.328 360.196 109.617 360.278 109.924C360.784 111.8 361.165 113.703 361.527 115.606C361.589 115.903 361.643 116.199 361.701 116.496C362.035 118.222 362.369 119.948 362.79 121.651C362.866 121.948 362.939 122.24 363.019 122.538C363.402 123.959 363.851 125.369 364.426 126.75C365.947 130.412 368.069 133.847 370.65 136.926C371.018 137.365 371.397 137.797 371.786 138.224C372.175 138.654 372.576 139.071 372.983 139.483C374.85 141.369 376.906 143.084 379.113 144.598C383.691 147.743 389.267 150.445 394.899 150.933C396.266 151.051 397.722 151.014 398.994 150.51C399.235 150.417 399.472 150.306 399.7 150.175C399.849 150.09 399.991 149.994 400.116 149.89C401.525 148.837 405.192 144.583 405.886 142.416C407.674 136.83 402.924 130.359 400.96 126.598Z" fill="#317F6A"/>
</g>
<mask id="mask3_124_1154" style="mask-type:luminance" maskUnits="userSpaceOnUse" x="346" y="56" width="54" height="108">
<path d="M346.268 163.996L399.997 163.996L400 56.9233L346.268 56.9231V163.996Z" fill="white"/>
</mask>
<g mask="url(#mask3_124_1154)">
<path d="M396.7 76.2686C396.983 76.5557 397.252 76.8396 397.52 77.1244C400.326 80.0801 402.692 83.0352 404.489 85.4711C404.753 85.8359 405.002 86.1833 405.246 86.5194C406.007 87.5792 406.638 88.5159 407.127 89.2678C408.666 91.6302 410.127 94.0629 411.452 96.5588C411.671 96.9625 411.884 97.3752 412.092 97.7841C412.825 99.2164 413.508 100.677 414.131 102.149C414.315 102.577 414.493 103.006 414.663 103.444C416.487 108.035 417.718 112.803 418.019 117.717C418.357 123.256 420.63 133.452 415.336 139.387C413.282 141.688 406.409 145.085 404.09 145.682C403.878 145.748 403.65 145.794 403.42 145.826C403.067 145.874 402.713 145.894 402.364 145.889C400.518 145.884 398.703 145.221 397.086 144.41C390.414 141.074 385.039 135.067 381.137 129.006C379.255 126.089 377.67 122.998 376.412 119.791C376.14 119.09 375.876 118.387 375.635 117.674C375.392 116.965 375.163 116.254 374.953 115.541C373.477 110.533 372.762 105.314 372.914 100.113C372.97 98.151 373.198 96.2142 373.512 94.2976C373.577 93.8956 373.649 93.5046 373.72 93.1051C374.143 90.8245 374.687 88.5593 375.229 86.2945C375.323 85.905 375.42 85.5184 375.509 85.1252C376.113 82.6311 376.697 80.1281 377.112 77.595C377.181 77.1803 377.245 76.7908 377.311 76.4171C377.38 75.9815 377.444 75.572 377.513 75.185C378.171 71.2394 378.533 69.0833 378.573 65.7756C378.574 65.6715 378.588 65.5691 378.625 65.4758C378.785 64.8602 379.424 64.4479 380.085 64.5506C380.179 64.5616 380.28 64.5919 380.378 64.6267C386.536 67.0534 392.151 71.6043 396.7 76.2686Z" fill="#00B385"/>
<path d="M394.175 99.3206C394.211 99.4439 394.246 99.5672 394.281 99.6911C398.332 95.4152 401.771 90.6209 404.49 85.4713C404.753 85.8362 405.002 86.1835 405.246 86.5196C402.404 91.7704 398.833 96.6308 394.636 100.971C395.5 104.071 396.313 107.191 397.08 110.312C397.086 110.324 397.084 110.336 397.09 110.347C397.145 110.436 397.167 110.529 397.155 110.619C397.578 112.307 397.982 114.001 398.38 115.692C399.002 114.881 399.616 114.072 400.224 113.259C404.25 107.874 408.136 102.368 411.452 96.5591C411.671 96.9627 411.884 97.3754 412.092 97.7843C408.16 104.556 403.488 110.895 398.721 117.159C398.848 117.707 398.976 118.255 399.104 118.804C399.266 119.496 399.424 120.193 399.579 120.894C400.399 120.008 401.197 119.112 401.989 118.206C406.417 113.131 410.474 107.763 414.13 102.149C414.315 102.577 414.493 103.006 414.663 103.444C410.288 110.088 405.337 116.381 399.89 122.248C400.665 125.649 401.402 129.072 402.06 132.501C402.146 132.943 402.228 133.381 402.307 133.824C403.044 137.76 403.658 141.713 404.09 145.683C403.878 145.748 403.65 145.795 403.42 145.826C403.067 145.874 402.713 145.894 402.364 145.89C402.026 142.838 401.583 139.808 401.062 136.786C400.851 135.538 400.624 134.294 400.383 133.047C399.575 132.719 398.778 132.379 397.987 132.021C389.812 128.365 382.26 123.512 375.635 117.675C375.392 116.966 375.163 116.254 374.952 115.541C376.183 116.677 377.451 117.776 378.75 118.843C385.175 124.102 392.394 128.442 400.126 131.71C399.601 129.064 399.035 126.417 398.441 123.785C398.346 123.337 398.244 122.885 398.136 122.443C397.88 121.282 397.615 120.123 397.342 118.964C397.231 118.478 397.121 117.991 397.002 117.505C396.954 117.295 396.907 117.093 396.859 116.883C396.324 114.617 395.781 112.351 395.219 110.092C393.478 108.436 391.711 106.795 389.825 105.286C387.711 103.592 385.475 102.044 383.23 100.516C380.052 98.3617 376.811 96.2876 373.512 94.2978C373.578 93.8958 373.65 93.5048 373.72 93.1053C377.27 95.2335 380.756 97.4549 384.168 99.7787C386.489 101.359 388.795 102.967 390.969 104.737C392.254 105.794 393.486 106.91 394.703 108.044L394.703 108.036C394.223 106.147 393.73 104.269 393.216 102.397C393.104 101.978 392.987 101.564 392.87 101.143C392.676 100.463 392.482 99.776 392.283 99.0927C390.652 97.5419 388.998 96.0177 387.236 94.6049C385.121 92.9113 382.882 91.3663 380.636 89.839C378.853 88.629 377.05 87.4467 375.23 86.2945C375.323 85.905 375.421 85.5184 375.509 85.1252C377.554 86.4111 379.573 87.7404 381.575 89.1004C383.895 90.6824 386.206 92.2852 388.371 94.0566C389.498 94.9783 390.586 95.9499 391.656 96.9356C390.823 94.1317 389.929 91.3404 388.967 88.571C388.827 88.1681 388.687 87.7663 388.539 87.3645C388.068 86.0283 387.576 84.6996 387.065 83.3769C387.065 83.3769 387.063 83.369 387.055 83.37C386.873 83.218 386.687 83.063 386.502 82.9161C384.387 81.2221 382.15 79.6733 379.906 78.1458C379.047 77.5648 378.18 76.9846 377.312 76.4173C377.381 75.9817 377.445 75.5722 377.514 75.1852C378.629 75.9162 379.742 76.6589 380.844 77.4075C382.665 78.6517 384.484 79.9086 386.231 81.2471C384.053 75.8347 381.554 70.5493 378.626 65.4758C378.786 64.8602 379.425 64.4479 380.086 64.5506C382.926 69.4475 385.384 74.5491 387.522 79.7713C388.028 81.0062 388.51 82.2445 388.977 83.4927C388.983 83.4967 388.983 83.5046 388.983 83.5046C389.276 84.2546 389.561 85.015 389.83 85.7767C392.279 82.7096 394.567 79.5408 396.701 76.2684C396.983 76.5554 397.252 76.8394 397.521 77.1242C395.284 80.5468 392.87 83.857 390.288 87.0541C391.721 91.1042 392.995 95.2005 394.175 99.3206Z" fill="#9CDCC7"/>
</g>
<path opacity="0.35" d="M211.589 161.527C217.143 161.527 221.646 160.606 221.646 159.47C221.646 158.334 217.143 157.414 211.589 157.414C206.035 157.414 201.533 158.334 201.533 159.47C201.533 160.606 206.035 161.527 211.589 161.527Z" fill="black"/>
<path fill-rule="evenodd" clip-rule="evenodd" d="M221.858 159.163C221.858 160.42 218.023 161.44 213.292 161.44C208.561 161.44 204.726 160.42 204.726 159.163C204.726 159.144 204.727 159.125 204.727 159.108L204.719 156.755L221.855 156.771L221.857 159.041C221.857 159.081 221.858 159.124 221.858 159.163Z" fill="#D6D6D6"/>
<path fill-rule="evenodd" clip-rule="evenodd" d="M213.292 159.054C218.01 159.054 221.858 158.031 221.858 156.777C221.858 155.523 218.01 154.499 213.292 154.499C208.574 154.499 204.726 155.522 204.726 156.777C204.726 158.031 208.574 159.054 213.292 159.054Z" fill="white"/>
<path fill-rule="evenodd" clip-rule="evenodd" d="M207.233 155.167C208.312 154.88 209.677 154.669 211.206 154.567L211.449 154.927C210.18 155.022 209.07 155.211 208.248 155.463L207.233 155.167Z" fill="#0092DA"/>
<path fill-rule="evenodd" clip-rule="evenodd" d="M215.574 154.581C217.073 154.691 218.408 154.907 219.458 155.196L218.498 155.481C217.339 155.158 216.16 155.018 215.249 154.927L215.574 154.581Z" fill="#0092DA"/>
<path fill-rule="evenodd" clip-rule="evenodd" d="M213.292 157.948C216.733 157.948 219.539 157.316 219.539 156.541C219.539 155.766 216.732 155.134 213.292 155.134C209.851 155.134 207.045 155.766 207.045 156.541C207.045 157.316 209.851 157.948 213.292 157.948Z" fill="#0092DA"/>
<path fill-rule="evenodd" clip-rule="evenodd" d="M205.027 159.762C204.831 159.571 204.726 159.37 204.726 159.163C204.726 159.144 204.727 159.125 204.727 159.108L204.719 156.755L206.159 156.756C206.158 156.766 206.158 156.775 206.158 156.785C206.158 156.958 206.23 157.126 206.365 157.286L206.365 157.304L205.095 157.467L205.027 159.762Z" fill="#286AB4"/>
<path fill-rule="evenodd" clip-rule="evenodd" d="M213.292 157.755C216.458 157.755 219.04 157.189 219.04 156.495C219.04 155.8 216.458 155.234 213.292 155.234C210.126 155.234 207.544 155.8 207.544 156.495C207.544 157.189 210.126 157.755 213.292 157.755Z" fill="white"/>
<path fill-rule="evenodd" clip-rule="evenodd" d="M221.549 159.762C221.745 159.571 221.85 159.37 221.85 159.163C221.85 159.144 221.85 159.125 221.85 159.108L221.858 156.755L220.418 156.756C220.418 156.766 220.418 156.775 220.418 156.785C220.418 156.958 220.346 157.126 220.211 157.286L220.211 157.304L221.481 157.467L221.549 159.762Z" fill="#286AB4"/>
<path fill-rule="evenodd" clip-rule="evenodd" d="M211.205 161.372C209.687 161.271 208.33 161.062 207.254 160.778L207.311 158.425L208.051 158.23C209.037 158.446 210.244 158.602 211.579 158.675L211.18 159.053L211.205 161.372Z" fill="#286AB4"/>
<path fill-rule="evenodd" clip-rule="evenodd" d="M207.345 158.416L208.051 158.23C209.037 158.446 210.244 158.602 211.579 158.675L211.248 158.989C209.755 158.892 208.415 158.691 207.345 158.416Z" fill="#0092DA"/>
<path fill-rule="evenodd" clip-rule="evenodd" d="M219.464 160.741C218.399 161.035 217.04 161.254 215.512 161.362L215.537 158.994L215.194 158.664C216.541 158.581 217.752 158.414 218.725 158.186L219.407 158.365L219.464 160.741Z" fill="#286AB4"/>
<path fill-rule="evenodd" clip-rule="evenodd" d="M215.519 158.977L215.194 158.664C216.541 158.581 217.752 158.414 218.726 158.186L219.407 158.365V158.372C218.352 158.657 217.017 158.87 215.519 158.977Z" fill="#0092DA"/>
<path fill-rule="evenodd" clip-rule="evenodd" d="M213.292 157.265C215.805 157.265 217.855 156.849 217.855 156.34C217.855 155.831 215.805 155.416 213.292 155.416C210.778 155.416 208.728 155.831 208.728 156.34C208.728 156.85 210.778 157.265 213.292 157.265Z" fill="#0092DA"/>
<path fill-rule="evenodd" clip-rule="evenodd" d="M221.454 157.463C221.711 157.247 221.85 157.016 221.85 156.777C221.85 156.563 221.739 156.356 221.532 156.16L220.204 156.275C220.344 156.438 220.418 156.609 220.418 156.785C220.418 156.957 220.346 157.125 220.211 157.286L220.211 157.304L221.454 157.463Z" fill="#0092DA"/>
<path fill-rule="evenodd" clip-rule="evenodd" d="M205.122 157.463C204.865 157.247 204.726 157.016 204.726 156.777C204.726 156.563 204.837 156.356 205.045 156.16L206.372 156.275C206.233 156.438 206.158 156.609 206.158 156.785C206.158 156.957 206.23 157.125 206.365 157.286L206.365 157.304L205.122 157.463Z" fill="#0092DA"/>
<path opacity="0.35" d="M254.306 160.005C260.385 160.005 265.313 158.998 265.313 157.754C265.313 156.511 260.385 155.504 254.306 155.504C248.228 155.504 243.3 156.511 243.3 157.754C243.3 158.998 248.228 160.005 254.306 160.005Z" fill="black"/>
<path fill-rule="evenodd" clip-rule="evenodd" d="M266.055 157.248C266.055 158.624 261.858 159.74 256.68 159.74C251.503 159.74 247.305 158.624 247.305 157.248C247.305 157.227 247.306 157.206 247.306 157.188L247.297 154.613L266.052 154.63L266.054 157.114C266.054 157.158 266.055 157.205 266.055 157.248Z" fill="#D6D6D6"/>
<path fill-rule="evenodd" clip-rule="evenodd" d="M256.68 157.13C261.844 157.13 266.055 156.01 266.055 154.637C266.055 153.265 261.844 152.145 256.68 152.145C251.517 152.145 247.306 153.264 247.306 154.637C247.306 156.01 251.517 157.13 256.68 157.13Z" fill="white"/>
<path fill-rule="evenodd" clip-rule="evenodd" d="M250.049 152.875C251.23 152.561 252.724 152.33 254.397 152.219L254.663 152.613C253.274 152.716 252.06 152.924 251.16 153.2L250.049 152.875Z" fill="#EC6458"/>
<path fill-rule="evenodd" clip-rule="evenodd" d="M259.177 152.234C260.819 152.355 262.28 152.59 263.428 152.907L262.378 153.219C261.109 152.865 259.819 152.712 258.822 152.613L259.177 152.234Z" fill="#EC6458"/>
<path fill-rule="evenodd" clip-rule="evenodd" d="M256.68 155.918C260.446 155.918 263.517 155.227 263.517 154.378C263.517 153.53 260.446 152.839 256.68 152.839C252.914 152.839 249.843 153.53 249.843 154.378C249.843 155.227 252.914 155.918 256.68 155.918Z" fill="#EC6458"/>
<path fill-rule="evenodd" clip-rule="evenodd" d="M247.635 157.904C247.42 157.695 247.305 157.475 247.305 157.248C247.305 157.227 247.306 157.206 247.306 157.188L247.297 154.613L248.873 154.614C248.873 154.625 248.872 154.635 248.872 154.646C248.872 154.835 248.951 155.018 249.099 155.194L249.099 155.214L247.709 155.392L247.635 157.904Z" fill="#C4443D"/>
<path fill-rule="evenodd" clip-rule="evenodd" d="M256.68 155.708C260.145 155.708 262.971 155.088 262.971 154.328C262.971 153.568 260.145 152.948 256.68 152.948C253.215 152.948 250.389 153.568 250.389 154.328C250.389 155.088 253.215 155.708 256.68 155.708Z" fill="white"/>
<path fill-rule="evenodd" clip-rule="evenodd" d="M265.718 157.904C265.932 157.695 266.047 157.475 266.047 157.248C266.047 157.227 266.046 157.206 266.046 157.188L266.055 154.613L264.479 154.614C264.48 154.625 264.48 154.635 264.48 154.646C264.48 154.835 264.401 155.018 264.253 155.194L264.254 155.214L265.644 155.392L265.718 157.904Z" fill="#C4443D"/>
<path fill-rule="evenodd" clip-rule="evenodd" d="M254.397 159.666C252.735 159.555 251.25 159.327 250.073 159.016L250.134 156.441L250.945 156.228C252.023 156.464 253.345 156.635 254.806 156.714L254.369 157.129L254.397 159.666Z" fill="#C4443D"/>
<path fill-rule="evenodd" clip-rule="evenodd" d="M250.171 156.431L250.945 156.228C252.023 156.464 253.345 156.635 254.806 156.714L254.443 157.058C252.809 156.952 251.343 156.732 250.171 156.431Z" fill="#EC6458"/>
<path fill-rule="evenodd" clip-rule="evenodd" d="M263.435 158.976C262.27 159.298 260.782 159.537 259.11 159.655L259.138 157.064L258.762 156.702C260.237 156.612 261.561 156.429 262.627 156.179L263.373 156.376L263.435 158.976Z" fill="#C4443D"/>
<path fill-rule="evenodd" clip-rule="evenodd" d="M259.118 157.044L258.762 156.702C260.236 156.612 261.561 156.429 262.627 156.179L263.373 156.376V156.382C262.219 156.695 260.757 156.927 259.118 157.044Z" fill="#EC6458"/>
<path fill-rule="evenodd" clip-rule="evenodd" d="M256.68 155.171C259.431 155.171 261.675 154.717 261.675 154.16C261.675 153.602 259.431 153.148 256.68 153.148C253.929 153.148 251.686 153.602 251.686 154.16C251.686 154.717 253.929 155.171 256.68 155.171Z" fill="#EC6458"/>
<path fill-rule="evenodd" clip-rule="evenodd" d="M265.613 155.389C265.895 155.152 266.047 154.899 266.047 154.638C266.047 154.403 265.925 154.177 265.698 153.962L264.246 154.089C264.398 154.267 264.48 154.454 264.48 154.646C264.48 154.835 264.401 155.019 264.253 155.194L264.253 155.214L265.613 155.389Z" fill="#EC6458"/>
<path fill-rule="evenodd" clip-rule="evenodd" d="M247.739 155.389C247.458 155.152 247.306 154.899 247.306 154.638C247.306 154.403 247.427 154.177 247.654 153.962L249.107 154.089C248.954 154.267 248.873 154.454 248.873 154.646C248.873 154.835 248.952 155.019 249.099 155.194L249.099 155.214L247.739 155.389Z" fill="#EC6458"/>
<path opacity="0.35" d="M152.077 159.886C158.438 159.886 163.595 158.832 163.595 157.531C163.595 156.23 158.438 155.176 152.077 155.176C145.716 155.176 140.559 156.23 140.559 157.531C140.559 158.832 145.716 159.886 152.077 159.886Z" fill="black"/>
<path fill-rule="evenodd" clip-rule="evenodd" d="M164.63 156.932C164.63 158.372 160.238 159.54 154.819 159.54C149.401 159.54 145.009 158.372 145.009 156.932C145.009 156.91 145.009 156.888 145.009 156.87L145 154.175L164.626 154.192L164.629 156.792C164.629 156.838 164.63 156.887 164.63 156.932Z" fill="#D6D6D6"/>
<path fill-rule="evenodd" clip-rule="evenodd" d="M154.819 156.808C160.223 156.808 164.63 155.636 164.63 154.2C164.63 152.763 160.223 151.591 154.819 151.591C149.416 151.591 145.009 152.763 145.009 154.2C145.009 155.636 149.416 156.808 154.819 156.808Z" fill="white"/>
<path fill-rule="evenodd" clip-rule="evenodd" d="M147.88 152.356C149.115 152.027 150.679 151.786 152.43 151.669L152.708 152.081C151.255 152.189 149.984 152.406 149.042 152.695L147.88 152.356Z" fill="#F4CA64"/>
<path fill-rule="evenodd" clip-rule="evenodd" d="M157.433 151.685C159.15 151.811 160.679 152.058 161.881 152.389L160.782 152.716C159.454 152.345 158.104 152.185 157.061 152.081L157.433 151.685Z" fill="#F4CA64"/>
<path fill-rule="evenodd" clip-rule="evenodd" d="M154.819 155.54C158.76 155.54 161.974 154.817 161.974 153.929C161.974 153.042 158.76 152.318 154.819 152.318C150.878 152.318 147.664 153.042 147.664 153.929C147.664 154.817 150.878 155.54 154.819 155.54Z" fill="#F4CA64"/>
<path fill-rule="evenodd" clip-rule="evenodd" d="M145.353 157.618C145.129 157.4 145.009 157.169 145.009 156.932C145.009 156.91 145.009 156.888 145.009 156.87L145 154.175L146.649 154.176C146.649 154.187 146.648 154.198 146.648 154.209C146.648 154.407 146.731 154.599 146.886 154.782L146.885 154.803L145.431 154.99L145.353 157.618Z" fill="#D38B18"/>
<path fill-rule="evenodd" clip-rule="evenodd" d="M154.819 155.32C158.445 155.32 161.403 154.671 161.403 153.876C161.403 153.08 158.445 152.432 154.819 152.432C151.193 152.432 148.236 153.08 148.236 153.876C148.236 154.671 151.193 155.32 154.819 155.32Z" fill="white"/>
<path fill-rule="evenodd" clip-rule="evenodd" d="M164.277 157.618C164.501 157.4 164.621 157.169 164.621 156.932C164.621 156.91 164.621 156.888 164.621 156.87L164.63 154.175L162.98 154.176C162.981 154.187 162.981 154.198 162.981 154.209C162.981 154.407 162.899 154.599 162.744 154.782L162.745 154.803L164.199 154.99L164.277 157.618Z" fill="#D38B18"/>
<path fill-rule="evenodd" clip-rule="evenodd" d="M152.43 159.462C150.691 159.346 149.136 159.107 147.904 158.782L147.969 156.087L148.817 155.864C149.946 156.111 151.329 156.29 152.858 156.373L152.401 156.807L152.43 159.462Z" fill="#D38B18"/>
<path fill-rule="evenodd" clip-rule="evenodd" d="M148.008 156.077L148.817 155.864C149.946 156.111 151.329 156.29 152.858 156.373L152.478 156.733C150.768 156.622 149.234 156.391 148.008 156.077Z" fill="#F4CA64"/>
<path fill-rule="evenodd" clip-rule="evenodd" d="M161.888 158.74C160.668 159.077 159.111 159.327 157.361 159.451L157.391 156.739L156.997 156.361C158.541 156.266 159.927 156.075 161.042 155.814L161.822 156.019L161.888 158.74Z" fill="#D38B18"/>
<path fill-rule="evenodd" clip-rule="evenodd" d="M157.37 156.719L156.997 156.36C158.541 156.266 159.927 156.074 161.042 155.813L161.822 156.019V156.026C160.615 156.353 159.085 156.596 157.37 156.719Z" fill="#F4CA64"/>
<path fill-rule="evenodd" clip-rule="evenodd" d="M154.819 154.759C157.698 154.759 160.046 154.283 160.046 153.7C160.046 153.117 157.698 152.642 154.819 152.642C151.94 152.642 149.593 153.117 149.593 153.7C149.593 154.283 151.94 154.759 154.819 154.759Z" fill="#F4CA64"/>
<path fill-rule="evenodd" clip-rule="evenodd" d="M164.168 154.985C164.462 154.738 164.621 154.473 164.621 154.2C164.621 153.955 164.494 153.718 164.256 153.493L162.736 153.625C162.896 153.812 162.981 154.007 162.981 154.208C162.981 154.406 162.899 154.599 162.744 154.782L162.745 154.803L164.168 154.985Z" fill="#F4CA64"/>
<path fill-rule="evenodd" clip-rule="evenodd" d="M145.462 154.985C145.168 154.738 145.009 154.473 145.009 154.2C145.009 153.955 145.136 153.718 145.373 153.493L146.893 153.625C146.734 153.812 146.648 154.007 146.648 154.208C146.648 154.406 146.731 154.599 146.886 154.782L146.885 154.803L145.462 154.985Z" fill="#F4CA64"/>
<path fill-rule="evenodd" clip-rule="evenodd" d="M166.171 152.676C166.171 154.117 161.779 155.284 156.361 155.284C150.942 155.284 146.55 154.116 146.55 152.676C146.55 152.654 146.551 152.632 146.551 152.614L146.541 149.919L166.168 149.937L166.17 152.536C166.17 152.582 166.171 152.631 166.171 152.676Z" fill="#D6D6D6"/>
<path fill-rule="evenodd" clip-rule="evenodd" d="M156.361 152.552C161.764 152.552 166.171 151.381 166.171 149.944C166.171 148.507 161.764 147.335 156.361 147.335C150.957 147.335 146.55 148.507 146.55 149.944C146.55 151.381 150.957 152.552 156.361 152.552Z" fill="white"/>
<path fill-rule="evenodd" clip-rule="evenodd" d="M149.421 148.1C150.657 147.771 152.221 147.53 153.972 147.414L154.249 147.826C152.796 147.934 151.526 148.151 150.584 148.439L149.421 148.1Z" fill="#0092DA"/>
<path fill-rule="evenodd" clip-rule="evenodd" d="M158.974 147.429C160.691 147.555 162.22 147.802 163.422 148.133L162.323 148.46C160.996 148.089 159.645 147.929 158.602 147.825L158.974 147.429Z" fill="#0092DA"/>
<path fill-rule="evenodd" clip-rule="evenodd" d="M156.361 151.285C160.301 151.285 163.516 150.561 163.516 149.673C163.516 148.786 160.301 148.062 156.361 148.062C152.42 148.062 149.206 148.786 149.206 149.673C149.206 150.561 152.42 151.285 156.361 151.285Z" fill="#0092DA"/>
<path fill-rule="evenodd" clip-rule="evenodd" d="M146.895 153.363C146.67 153.144 146.55 152.913 146.55 152.676C146.55 152.654 146.551 152.632 146.551 152.614L146.541 149.919L148.191 149.92C148.19 149.931 148.19 149.942 148.19 149.953C148.19 150.151 148.272 150.343 148.427 150.527L148.427 150.548L146.972 150.734L146.895 153.363Z" fill="#286AB4"/>
<path fill-rule="evenodd" clip-rule="evenodd" d="M156.361 151.064C159.987 151.064 162.944 150.416 162.944 149.62C162.944 148.825 159.987 148.177 156.361 148.177C152.735 148.177 149.777 148.825 149.777 149.62C149.777 150.416 152.735 151.064 156.361 151.064Z" fill="white"/>
<path fill-rule="evenodd" clip-rule="evenodd" d="M165.818 153.363C166.042 153.144 166.163 152.913 166.163 152.676C166.163 152.654 166.162 152.632 166.162 152.614L166.171 149.919L164.522 149.92C164.522 149.931 164.523 149.942 164.523 149.953C164.523 150.151 164.44 150.343 164.286 150.527L164.286 150.548L165.741 150.734L165.818 153.363Z" fill="#286AB4"/>
<path fill-rule="evenodd" clip-rule="evenodd" d="M153.971 155.206C152.233 155.09 150.678 154.851 149.446 154.526L149.511 151.831L150.359 151.608C151.487 151.855 152.87 152.034 154.399 152.117L153.942 152.551L153.971 155.206Z" fill="#286AB4"/>
<path fill-rule="evenodd" clip-rule="evenodd" d="M149.549 151.821L150.359 151.608C151.487 151.855 152.87 152.034 154.399 152.117L154.02 152.477C152.31 152.366 150.776 152.136 149.549 151.821Z" fill="#0092DA"/>
<path fill-rule="evenodd" clip-rule="evenodd" d="M163.429 154.484C162.21 154.821 160.653 155.071 158.903 155.196L158.932 152.483L158.539 152.105C160.082 152.011 161.469 151.819 162.584 151.558L163.364 151.763L163.429 154.484Z" fill="#286AB4"/>
<path fill-rule="evenodd" clip-rule="evenodd" d="M158.911 152.463L158.539 152.105C160.082 152.011 161.469 151.819 162.584 151.558L163.364 151.763V151.77C162.156 152.098 160.627 152.341 158.911 152.463Z" fill="#0092DA"/>
<path fill-rule="evenodd" clip-rule="evenodd" d="M156.361 150.503C159.239 150.503 161.587 150.027 161.587 149.444C161.587 148.861 159.24 148.386 156.361 148.386C153.482 148.386 151.134 148.861 151.134 149.444C151.134 150.027 153.482 150.503 156.361 150.503Z" fill="#0092DA"/>
<path fill-rule="evenodd" clip-rule="evenodd" d="M165.709 150.73C166.003 150.482 166.162 150.218 166.162 149.944C166.162 149.699 166.035 149.462 165.798 149.238L164.277 149.37C164.437 149.557 164.522 149.752 164.522 149.953C164.522 150.151 164.44 150.343 164.285 150.527L164.286 150.548L165.709 150.73Z" fill="#0092DA"/>
<path fill-rule="evenodd" clip-rule="evenodd" d="M147.004 150.73C146.709 150.482 146.55 150.218 146.55 149.944C146.55 149.699 146.677 149.462 146.915 149.238L148.435 149.37C148.275 149.557 148.19 149.752 148.19 149.953C148.19 150.151 148.272 150.343 148.427 150.527L148.427 150.548L147.004 150.73Z" fill="#0092DA"/>
<path fill-rule="evenodd" clip-rule="evenodd" d="M190.224 47.6055H185.969C183.262 47.6055 181.047 49.8235 181.047 52.5343V95.3652C181.047 98.0762 183.262 100.294 185.969 100.294H190.224C187.517 100.294 185.302 98.076 185.302 95.3652V52.5343C185.302 49.8235 187.517 47.6055 190.224 47.6055Z" fill="#286AB5"/>
<path fill-rule="evenodd" clip-rule="evenodd" d="M261.028 47.6052H190.224C187.517 47.6052 185.302 49.8233 185.302 52.5341V95.365C185.302 98.076 187.517 100.294 190.224 100.294H261.028C263.735 100.294 265.95 98.0758 265.95 95.365V52.5341C265.95 49.8233 263.735 47.6052 261.028 47.6052Z" fill="#69AAE2"/>
<path fill-rule="evenodd" clip-rule="evenodd" d="M261.028 47.6052H190.224C187.805 47.6052 185.779 49.3768 185.375 51.6883C205.007 63.5023 233.088 72.6647 265.95 77.6389V52.5341C265.95 49.8233 263.735 47.6052 261.028 47.6052Z" fill="#0093DB"/>
<path fill-rule="evenodd" clip-rule="evenodd" d="M226.162 52.106L213.552 53.2327C198.112 54.918 195.149 55.6796 188.91 74.3347L176.873 110.568C176.94 110.379 177.006 110.191 177.075 110L201.278 111.114L206.074 103.605L207.982 134.429L266.712 134.415L267.125 99.1664L288.892 120.343C288.805 120.126 288.722 119.905 288.646 119.677L283.608 86.0794C286.683 86.2436 290.203 85.5766 293.325 84.2644L287.932 78.9223L276.95 65.0953C272.831 60.0692 269.191 56.1465 262.078 54.8412L252.647 52.93L252.666 53.0047C255.749 68.5469 235.401 70.2343 226.147 52.3868L226.162 52.106Z" fill="#ED6458"/>
<path fill-rule="evenodd" clip-rule="evenodd" d="M207.921 133.436L207.982 134.428L266.712 134.415L266.724 133.436H207.921Z" fill="#C4443D"/>
<path fill-rule="evenodd" clip-rule="evenodd" d="M226.162 52.106L223.811 52.3384C230.433 70.8651 258.656 74.0752 254.232 53.2517L252.647 52.9304L252.666 53.0051C255.749 68.5474 235.401 70.2347 226.147 52.3872L226.162 52.106Z" fill="#F1867F"/>
<path fill-rule="evenodd" clip-rule="evenodd" d="M239.5 118.066L245.53 116.209C245.726 116.148 245.895 115.987 246.036 115.75C247.795 117.238 257.498 119.488 258.079 117.476C258.264 116.891 258.464 116.309 258.651 115.725C258.676 115.646 258.688 115.563 258.686 115.478C257.823 116.431 254.348 116.16 250.48 114.919C249.252 114.525 248.166 114.124 247.187 113.64C247.02 113.793 246.75 113.966 246.46 114.056L239.912 115.947C239.335 116.909 238.516 117.451 237.374 117.157C236.779 118.076 235.518 118.791 233.951 118.567C231.216 120.122 226.696 123.538 219.688 122.396L216.106 122.873C214.329 126.723 211.769 130.33 209.883 130.058V130.062L207.73 130.331L207.834 132.012L210.684 131.587C213.036 131.211 215.656 128.952 216.777 125.971L219.329 125.672C226.337 126.815 231.671 122.606 233.768 120.94C235.084 121.297 236.499 120.357 236.769 119.442C238.034 119.554 239.121 118.993 239.5 118.066Z" fill="#C4443D"/>
<path fill-rule="evenodd" clip-rule="evenodd" d="M285.223 116.834L288.94 120.453C288.835 120.2 288.735 119.944 288.646 119.678L283.657 86.4053L283.61 86.0771L285.223 116.834Z" fill="#C4443D"/>
<path fill-rule="evenodd" clip-rule="evenodd" d="M206.075 103.617L207.413 125.217L213.896 86.0576L206.075 103.617Z" fill="#C4443D"/>
<path fill-rule="evenodd" clip-rule="evenodd" d="M267.125 99.1705L273.743 105.611L266.982 72.6436L267.125 99.1705Z" fill="#C5443D"/>
<path fill-rule="evenodd" clip-rule="evenodd" d="M178.213 106.707L177.075 110L200.651 111.086L178.213 106.707Z" fill="#C4443D"/>
<path d="M281.063 39.624L269.754 50.0781L287.849 69.7078L299.159 59.2537L281.063 39.624Z" fill="#C4443D"/>
<path d="M281.052 40.5498L270.675 50.1423L287.862 68.7872L298.239 59.1947L281.052 40.5498Z" fill="#EC6458"/>
<path d="M280.902 42.571L272.7 50.1531L288.011 66.7627L296.213 59.1806L280.902 42.571Z" fill="#C4443D"/>
<path d="M288.53 31.3368L274.371 40.3013L289.888 64.8764L304.046 55.9119L288.53 31.3368Z" fill="#C4443D"/>
<path d="M288.335 32.321L275.344 40.5466L290.082 63.8891L303.074 55.6634L288.335 32.321Z" fill="#EC6458"/>
<path d="M287.779 34.4584L277.51 40.9602L290.639 61.7544L300.908 55.2526L287.779 34.4584Z" fill="#C4443D"/>
<path d="M297.206 27.2819L281.174 32.1499L289.601 59.9757L305.632 55.1077L297.206 27.2819Z" fill="#C4443D"/>
<path d="M296.756 28.1818L282.046 32.6487L290.05 59.0788L304.76 54.6119L296.756 28.1818Z" fill="#EC6458"/>
<path d="M295.652 30.0902L284.025 33.6208L291.155 57.1656L302.782 53.6349L295.652 30.0902Z" fill="#C4443D"/>
<path d="M308.153 26.1452L291.406 26.5847L292.167 55.6521L308.913 55.2126L308.153 26.1452Z" fill="#C4443D"/>
<path d="M307.481 26.8924L292.115 27.2957L292.838 54.9048L308.204 54.5015L307.481 26.8924Z" fill="#EC6458"/>
<path d="M305.911 28.4422L293.765 28.761L294.408 53.3562L306.554 53.0375L305.911 28.4422Z" fill="#C4443D"/>
<path d="M303.231 23.4589L295.284 51.4243L311.395 56.0156L319.342 28.0502L303.231 23.4589Z" fill="#C4443D"/>
<path d="M303.727 24.3585L296.176 50.9211L310.96 55.1355L318.511 28.5729L303.727 24.3585Z" fill="#EC6458"/>
<path d="M304.834 26.242L298.109 49.9048L309.795 53.2347L316.519 29.5719L304.834 26.242Z" fill="#C4443D"/>
<mask id="mask4_124_1154" style="mask-type:luminance" maskUnits="userSpaceOnUse" x="298" y="26" width="19" height="28">
<path d="M304.834 26.242L298.109 49.9048L309.795 53.2347L316.519 29.5719L304.834 26.242Z" fill="white"/>
</mask>
<g mask="url(#mask4_124_1154)">
<path d="M321.591 42.3639L322.045 42.1016L308.969 19.4219L308.515 19.6842L321.591 42.3639Z" fill="#EC6458"/>
<path d="M320.399 44.7936L320.853 44.5312L307.777 21.8516L307.323 22.1139L320.399 44.7936Z" fill="#EC6458"/>
<path d="M318.777 46.4525L319.231 46.1902L306.155 23.5105L305.701 23.7729L318.777 46.4525Z" fill="#EC6458"/>
<path d="M316.968 47.8422L317.422 47.5798L304.346 24.9002L303.892 25.1625L316.968 47.8422Z" fill="#EC6458"/>
<path d="M315.348 49.507L315.801 49.2446L302.725 26.565L302.271 26.8273L315.348 49.507Z" fill="#EC6458"/>
<path d="M313.586 50.9906L314.04 50.7283L300.964 28.0486L300.51 28.3109L313.586 50.9906Z" fill="#EC6458"/>
<path d="M311.966 52.6595L312.42 52.3972L299.344 29.7176L298.89 29.9799L311.966 52.6595Z" fill="#EC6458"/>
<path d="M310.155 54.0385L310.609 53.7761L297.533 31.0965L297.079 31.3588L310.155 54.0385Z" fill="#EC6458"/>
<path d="M308.538 55.7191L308.992 55.4568L295.915 32.7771L295.461 33.0395L308.538 55.7191Z" fill="#EC6458"/>
<path d="M306.68 57.0563L307.134 56.7939L294.057 34.1143L293.604 34.3766L306.68 57.0563Z" fill="#EC6458"/>
<path d="M305.058 58.7135L305.512 58.4512L292.436 35.7715L291.982 36.0338L305.058 58.7135Z" fill="#EC6458"/>
</g>
<path fill-rule="evenodd" clip-rule="evenodd" d="M297.901 42.2699L297.93 42.3144L304.125 52.6453L303.351 44.3474C302.728 39.3148 305.213 38.0508 305.973 40.9437L308.935 53.4155C309.094 54.1755 309.2 54.8301 309.259 55.4086L298.531 52.3507L296.515 47.1492L297.901 42.2699ZM296.161 51.6752L295.298 51.4294L295.489 50.7587L296.161 51.6752Z" fill="#C4443D"/>
<path fill-rule="evenodd" clip-rule="evenodd" d="M298.389 43.0793L296.929 48.2172L298.201 51.498L309.157 54.6209C309.1 54.2497 309.026 53.8498 308.936 53.4152L305.974 40.9435C305.213 38.0505 302.728 39.3146 303.352 44.3471L304.125 52.645L298.389 43.0793Z" fill="#C4443D"/>
<path fill-rule="evenodd" clip-rule="evenodd" d="M299.525 44.974L303.383 51.4079L298.122 49.9085L299.525 44.974ZM308.827 52.9594L305.974 40.9435C305.213 38.0505 302.728 39.3146 303.352 44.3471L304.027 51.5913L308.827 52.9594Z" fill="#C4443D"/>
<path fill-rule="evenodd" clip-rule="evenodd" d="M300.952 78.0422C299.335 77.2111 284.044 82.7619 283.604 86.081L283.609 86.0877C289.968 86.4271 298.198 83.5204 300.908 78.391L300.952 78.0422Z" fill="#3E3D61"/>
<path fill-rule="evenodd" clip-rule="evenodd" d="M283.608 86.0794L288.646 119.677C293.177 133.178 318.066 128.786 311.915 110.731L300.966 78.0325C298.28 83.1867 289.985 86.4199 283.608 86.0794Z" fill="#EC6458"/>
<path fill-rule="evenodd" clip-rule="evenodd" d="M312.873 115.589C312.813 114.1 312.512 112.481 311.916 110.731L311.7 110.088C307.296 111.436 303.981 112.46 301.323 113.585C301.316 113.589 301.309 113.592 301.301 113.595C300.836 113.792 300.391 113.993 299.964 114.199C299.952 114.204 299.941 114.21 299.929 114.215C299.506 114.42 299.1 114.631 298.709 114.849C298.699 114.854 298.688 114.861 298.677 114.866C298.285 115.086 297.908 115.314 297.544 115.552C297.538 115.556 297.532 115.56 297.526 115.564C297.345 115.683 297.167 115.804 296.992 115.928C296.986 115.932 296.979 115.937 296.973 115.941C296.625 116.19 296.288 116.449 295.96 116.722C295.949 116.732 295.937 116.742 295.925 116.752C295.604 117.022 295.291 117.305 294.986 117.603C294.972 117.616 294.958 117.629 294.945 117.643C294.641 117.941 294.345 118.254 294.053 118.585C294.04 118.6 294.027 118.615 294.014 118.63C293.72 118.964 293.432 119.316 293.146 119.688C293.135 119.701 293.125 119.714 293.115 119.727C292.973 119.913 292.831 120.104 292.69 120.299C292.681 120.311 292.673 120.323 292.664 120.335C292.525 120.528 292.387 120.726 292.248 120.93C292.243 120.937 292.238 120.944 292.233 120.951C292.093 121.158 291.953 121.37 291.812 121.587C291.798 121.61 291.783 121.633 291.769 121.655C291.49 122.089 291.21 122.544 290.928 123.025C290.909 123.056 290.89 123.088 290.872 123.12C290.822 123.205 290.772 123.294 290.722 123.381C292.646 125.645 295.374 126.967 298.262 127.4C304.985 126.786 311.318 122.727 312.873 115.589Z" fill="#C4443D"/>
<path fill-rule="evenodd" clip-rule="evenodd" d="M298.954 74.0929L307.038 59.8466C308.252 57.6667 308.786 56.5078 307.985 52.6748L305.023 40.2032C304.263 37.3103 301.778 38.5743 302.401 43.6069L303.175 51.9048L296.98 41.5739C295.393 39.0394 293.363 40.8619 295.272 45.6539L299.735 57.1677C296.815 53.0791 293.783 49.02 290.833 44.9442C289.03 42.6447 287.719 45.2888 289.654 48.9499L294.772 58.7411L288.758 52.7507C286.921 51.0561 286.204 53.2679 288.286 56.32L292.084 62.2716C287.265 65.9715 286.921 67.9627 287.422 75.4061L288.081 85.7915C291.386 85.2263 297.21 83.5692 300.325 79.0772L298.954 74.0929Z" fill="#F0B39C"/>
<path fill-rule="evenodd" clip-rule="evenodd" d="M287.916 83.1877L288.082 85.7913C291.386 85.2262 297.21 83.5691 300.325 79.0771L299.662 76.6663C297.279 79.9575 292.578 82.3034 287.916 83.1877Z" fill="#E68C74"/>
<path fill-rule="evenodd" clip-rule="evenodd" d="M208.901 123.833L216.183 122.863C214.471 126.705 211.761 130.343 209.874 130.071H209.871C208.377 128.423 208.244 126.191 208.901 123.833Z" fill="#3E3D61"/>
<path fill-rule="evenodd" clip-rule="evenodd" d="M177.075 110L217.645 111.934C213.033 115.062 205.402 125.13 209.869 130.058L188.692 133.071C176.294 134.951 170.876 127.082 177.075 110Z" fill="#EC6458"/>
<path fill-rule="evenodd" clip-rule="evenodd" d="M239.912 115.947L246.46 114.056C248.21 113.518 247.714 111.543 245.032 111.59L242.363 111.766L239.912 115.947Z" fill="#F0B39C"/>
<path fill-rule="evenodd" clip-rule="evenodd" d="M246.569 114.019C246.808 113.933 247.062 113.801 247.191 113.645C245.844 112.979 244.742 112.306 244.13 111.65L243.362 111.7C243.891 112.428 245.036 113.253 246.569 114.019Z" fill="#E68C74"/>
<path fill-rule="evenodd" clip-rule="evenodd" d="M217.635 111.936L220.562 112.064C224.023 108.593 228.609 103.413 230.807 105.184C231.916 103.895 232.674 102.16 234.365 102.768C235.106 101.654 236.804 100.431 238.37 102.132L242.461 106.642C243.813 108.219 243.956 109.168 242.631 111.31L239.887 115.99C239.236 117.12 238.268 117.388 237.374 117.157C236.779 118.077 235.518 118.791 233.951 118.567C231.216 120.123 226.696 123.538 219.688 122.396L208.853 123.84C210.156 119.198 214.561 114.063 217.635 111.936Z" fill="#F0B39C"/>
<path fill-rule="evenodd" clip-rule="evenodd" d="M217.635 111.936L218.163 111.98C215.12 114.636 212.472 119.339 211.592 123.475L208.853 123.84C210.156 119.198 214.561 114.063 217.635 111.936Z" fill="#E68C74"/>
<path d="M231.607 105.803C232.458 106.701 233.326 107.584 234.185 108.475L235.488 109.797C235.911 110.232 236.335 110.699 236.47 111.264C236.702 112.451 235.911 113.601 235.491 114.682C234.981 115.804 234.417 116.907 233.888 118.029L234.006 117.933L229.301 119.084C228.824 119.152 228.116 119.101 227.749 118.735C226.911 117.736 228.491 116.701 229.257 116.207L230.753 115.212L230.775 115.198L230.781 115.175L231.398 112.581L230.656 115.142L230.684 115.104C229.792 115.7 228.426 116.336 227.704 117.152C226.488 118.544 227.859 119.646 229.359 119.388C229.364 119.401 234.079 118.268 234.088 118.276L234.17 118.256L234.206 118.179C234.724 117.058 235.278 115.95 235.783 114.814C236.221 113.653 237.03 112.507 236.732 111.197C236.553 110.544 236.082 110.07 235.644 109.639L234.307 108.351C233.406 107.502 232.514 106.644 231.607 105.803Z" fill="#E68C74"/>
<path d="M235.055 103.626L237.542 106.667L238.792 108.181C239.666 109.162 240.308 110.299 239.744 111.605C239.061 113.439 238.108 115.155 237.405 116.991C238.097 115.969 238.706 114.692 239.311 113.545C240.392 111.31 240.853 109.998 238.968 108.035C238.146 107.085 235.938 104.577 235.082 103.604L235.055 103.626Z" fill="#E68C74"/>
<path fill-rule="evenodd" clip-rule="evenodd" d="M227.499 32.1236C228.044 32.1236 228.567 32.0331 229.058 31.866C229.058 31.8743 229.059 31.8822 229.06 31.8906C229.329 44.7389 235.548 50.1524 247.751 49.5207C249.328 49.4391 250.641 49.1275 251.726 48.632C251.981 50.0118 252.278 51.4356 252.666 53.0053C255.749 68.5475 235.401 70.2351 226.147 52.3874C226.654 43.1288 226.672 37.709 226.918 32.0888C227.109 32.1115 227.303 32.1236 227.499 32.1236Z" fill="#F0B39C"/>
<path fill-rule="evenodd" clip-rule="evenodd" d="M228.231 32.0684L228.245 32.0663L228.25 32.0655L228.258 32.0642L228.272 32.0621L228.274 32.0617L228.299 32.0578L228.299 32.0575L228.312 32.0555L228.323 32.0536L228.325 32.0532L228.339 32.0509L228.347 32.0494L228.352 32.0486L228.366 32.0461L228.372 32.0448L228.379 32.0436L228.392 32.0411L228.396 32.0402L228.406 32.0384L228.419 32.0359L228.42 32.0356L228.432 32.0331L228.444 32.0308L228.446 32.0304L228.459 32.0277L228.468 32.0258L228.472 32.025L228.486 32.0223L228.492 32.0208L228.499 32.0194L228.512 32.0164L228.517 32.0156L228.526 32.0135L228.539 32.0108L228.541 32.0104L228.552 32.0079L228.565 32.005H228.565L228.578 32.0021L228.589 31.9995L228.592 31.9989L228.605 31.9958L228.613 31.9941L228.618 31.9927L228.631 31.9895L228.636 31.9883L228.644 31.9862L228.657 31.9831L228.66 31.9824L228.671 31.9797L228.684 31.9764L228.697 31.9731L228.708 31.9701L228.71 31.9695L228.723 31.9662L228.731 31.9641L228.736 31.9628L228.749 31.9593L228.755 31.9576L228.762 31.9557L228.775 31.9522L228.778 31.9511L228.788 31.9484L228.801 31.9447L228.802 31.9445L228.814 31.9411L228.825 31.9378L228.827 31.9374L228.839 31.9336L228.848 31.9311L228.852 31.9299L228.865 31.9261L228.872 31.9242L228.878 31.9224L228.891 31.9184L228.895 31.9171L228.904 31.9144L228.917 31.9107L228.919 31.91L228.93 31.9067L228.942 31.903L228.943 31.9028L228.956 31.8986L228.965 31.8957L228.968 31.8946L228.981 31.8904L228.988 31.8881L228.994 31.8863L229.007 31.8821L229.011 31.8804L229.019 31.8777L229.032 31.8735L229.034 31.8729L229.045 31.8694L229.057 31.865C229.058 31.8733 229.059 31.8813 229.059 31.8896C229.329 44.7379 235.547 50.1514 247.751 49.5197C249.328 49.4382 250.64 49.1265 251.726 48.631C251.981 50.0108 252.277 51.4347 252.665 53.0043C252.711 53.234 252.75 53.4601 252.786 53.6838C243.471 58.5459 229.304 53.3145 228.217 32.0694L228.225 32.0682L228.231 32.0684Z" fill="#E78D74"/>
<path fill-rule="evenodd" clip-rule="evenodd" d="M252.329 20.5309C252.378 20.7287 252.429 20.9304 252.48 21.1338C252.495 21.1912 252.509 21.2492 252.524 21.3072C252.565 21.4681 252.606 21.6304 252.648 21.7945C252.661 21.8432 252.673 21.8913 252.686 21.9402C252.733 22.1254 252.782 22.313 252.831 22.502C253.149 23.7318 253.493 25.0378 253.828 26.3863C254.331 28.4078 254.813 30.5222 255.165 32.6105C250.959 32.5235 245.733 32.744 241.786 32.8971C236.669 32.9716 236.812 30.503 235.903 26.6373C235.851 26.4003 235.836 26.2457 235.812 26.1391L235.883 26.5542L235.239 22.817C232.873 12.6655 244.458 24.2421 248.718 18.1946C249.228 19.6088 250.913 20.4325 252.329 20.5309Z" fill="#F1B49D"/>
<path fill-rule="evenodd" clip-rule="evenodd" d="M222.831 25.0269C222.88 24.9048 222.934 24.7836 222.991 24.6634C223.002 24.639 223.015 24.615 223.027 24.5908C223.076 24.4922 223.127 24.3941 223.181 24.2975C223.194 24.2727 223.209 24.2483 223.223 24.2237C223.281 24.1239 223.342 24.0253 223.406 23.9285C223.417 23.9112 223.428 23.8934 223.44 23.8763C223.517 23.763 223.597 23.6516 223.682 23.5434C224.544 22.4875 225.803 21.7937 227.219 21.7123C227.312 21.7085 227.404 21.7027 227.5 21.7037C230.417 21.7373 231.967 23.8782 232.397 26.5577C232.692 28.1653 232.001 31.1945 229.059 31.8719C229.059 31.8782 229.06 31.8842 229.06 31.8905C229.059 31.8821 229.059 31.8742 229.058 31.8659C228.568 32.033 228.044 32.1235 227.5 32.1235C224.733 32.1235 222.491 29.7909 222.491 26.9136C222.491 26.2479 222.612 25.612 222.831 25.0269Z" fill="#F1B49D"/>
<path fill-rule="evenodd" clip-rule="evenodd" d="M228.524 8.10799C228.909 1.86313 236.295 0.0239374 240.901 3.21667C256.777 -9.23069 274.21 17.905 255.025 25.9275C255.013 25.954 254.421 26.0865 253.828 26.3861C253.307 24.2894 252.765 22.2927 252.329 20.5309C250.913 20.4325 249.263 19.6088 248.718 18.1944C244.458 24.2419 232.873 12.6653 235.239 22.8168L235.883 26.554L235.812 26.1389C235.836 26.2457 235.852 26.4001 235.903 26.6371C236.812 30.5028 236.669 32.9714 241.786 32.8969C245.733 32.7438 250.959 32.5233 255.165 32.6103C257.205 40.1642 257.289 49.0271 247.751 49.5207C235.542 50.1526 229.323 44.7339 229.059 31.872C232.001 31.1944 232.692 28.1654 232.397 26.5578C231.967 23.878 230.417 21.7374 227.499 21.7038C225.048 21.6756 223.512 23.3027 222.822 25.0484C218.663 15.5971 220.005 6.47407 228.524 8.10799Z" fill="#B46A4F"/>
<path d="M245.834 22.7997C246.619 25.7043 247.404 28.7675 248.257 31.6548L248.492 31.3097C247.919 31.3627 247.348 31.438 246.777 31.52C246.207 31.6099 245.637 31.699 245.07 31.8277L245.074 31.8805C246.337 31.9458 247.599 31.9112 248.857 31.8225C248.482 30.4043 247.796 28.5511 247.347 27.1358C246.874 25.6811 246.374 24.2343 245.885 22.7844L245.834 22.7997Z" fill="#2A2D52"/>
<path d="M249.06 29.445C250.078 29.445 250.904 28.0974 250.904 26.435C250.904 24.7727 250.078 23.425 249.06 23.425C248.041 23.425 247.215 24.7727 247.215 26.435C247.215 28.0974 248.041 29.445 249.06 29.445Z" fill="#2A2D52"/>
<path fill-rule="evenodd" clip-rule="evenodd" d="M240.63 34.1953C240.563 37.5971 241.406 40.1567 245.225 40.2503C249.044 40.3442 250.056 37.6167 249.683 34.1953H240.63Z" fill="white"/>
<path d="M250.564 22.2319C250.442 20.1311 247.726 19.8562 247.344 21.9607C247.645 21.7198 247.916 21.5137 248.198 21.3787C249.15 20.8726 249.894 21.5604 250.564 22.2319Z" fill="#2A2D52"/>
<path d="M242.922 21.7988C242.106 19.873 239.298 20.1866 239.4 22.4001C239.632 22.0648 239.862 21.7861 240.127 21.5871C241.007 20.8721 242.008 21.3426 242.922 21.7988Z" fill="#2A2D52"/>
<path d="M229.236 28.0363C229.433 26.1448 226.735 24.5962 225.361 26.0509C225.791 25.9526 226.171 25.9779 226.544 26.0472C227.726 26.2656 228.593 27.0233 229.236 28.0363Z" fill="#2A2D52"/>
<path d="M241.419 29.5725C242.493 29.5725 243.363 28.152 243.363 26.3997C243.363 24.6475 242.493 23.2271 241.419 23.2271C240.345 23.2271 239.475 24.6475 239.475 26.3997C239.475 28.152 240.345 29.5725 241.419 29.5725Z" fill="#2A2D52"/>
<path fill-rule="evenodd" clip-rule="evenodd" d="M226.701 38.4991C226.773 36.0394 226.831 34.094 226.904 32.0829C227.061 32.0986 227.147 32.1236 227.499 32.1236C227.852 32.1236 228.567 32.0331 229.058 31.866C229.147 33.3178 229.308 34.6809 229.545 35.9551C228.636 36.862 227.75 37.8582 226.701 38.4991Z" fill="#B36A4F"/>
<path fill-rule="evenodd" clip-rule="evenodd" d="M228.414 32.0261C228.607 31.9854 228.839 31.9445 229.049 31.8694L229.058 31.8665L229.063 31.9441C229.093 33.4301 229.205 34.8147 229.395 36.1027C229.197 36.2953 228.912 36.6128 228.707 36.7935C228.517 35.3402 228.418 33.6681 228.414 32.0261Z" fill="#A45029"/>
<path fill-rule="evenodd" clip-rule="evenodd" d="M217.17 76.2512V84.3125C217.17 93.9683 232.168 93.9685 232.168 84.3125V76.2512H217.17Z" fill="#F2877F"/>
<path fill-rule="evenodd" clip-rule="evenodd" d="M243.612 110.549C243.263 111.661 246.37 113.627 250.55 114.942C254.731 116.256 258.403 116.42 258.751 115.309C258.756 115.292 258.761 115.275 258.766 115.261L259.419 113.172L244.277 108.437L243.647 110.442C243.635 110.477 243.623 110.515 243.612 110.549Z" fill="#D6D6D6"/>
<path fill-rule="evenodd" clip-rule="evenodd" d="M252.473 108.809C248.293 107.495 244.621 107.33 244.273 108.442C243.924 109.553 247.031 111.52 251.211 112.834C255.392 114.149 259.063 114.313 259.412 113.202C259.76 112.09 256.654 110.124 252.473 108.809Z" fill="white"/>
<path fill-rule="evenodd" clip-rule="evenodd" d="M257.643 111.082C256.769 110.529 255.62 109.963 254.298 109.449L253.984 109.699C255.079 110.135 256.007 110.611 256.664 111.062L257.643 111.082Z" fill="#0092DA"/>
<path fill-rule="evenodd" clip-rule="evenodd" d="M252.298 109.37C249.249 108.411 246.602 108.191 246.387 108.877C246.172 109.564 248.469 110.898 251.518 111.856C254.567 112.815 257.213 113.035 257.428 112.349C257.644 111.662 255.347 110.328 252.298 109.37Z" fill="#0092DA"/>
<path fill-rule="evenodd" clip-rule="evenodd" d="M258.319 115.755C258.545 115.641 258.694 115.493 258.751 115.309C258.756 115.292 258.761 115.275 258.766 115.261L259.405 113.221L258.152 112.784C258.15 112.793 258.147 112.802 258.145 112.81C258.097 112.963 257.987 113.091 257.823 113.195L257.818 113.211L258.874 113.699L258.319 115.755Z" fill="#4368B4"/>
<path fill-rule="evenodd" clip-rule="evenodd" d="M252.27 109.458C249.465 108.575 247.034 108.359 246.841 108.975C246.648 109.59 248.766 110.804 251.571 111.686C254.377 112.568 256.807 112.784 257 112.169C257.193 111.553 255.075 110.34 252.27 109.458Z" fill="white"/>
<path fill-rule="evenodd" clip-rule="evenodd" d="M243.714 111.167C243.586 110.944 243.555 110.732 243.612 110.549C243.617 110.532 243.623 110.515 243.627 110.501L244.279 108.422L245.551 108.823C245.548 108.831 245.545 108.84 245.542 108.848C245.495 109.001 245.506 109.184 245.581 109.363L245.581 109.365L244.435 109.159L243.714 111.167Z" fill="#4368B4"/>
<path fill-rule="evenodd" clip-rule="evenodd" d="M252.413 115.461C253.783 115.794 255.04 115.987 256.069 116.034L256.671 113.923L256.071 113.561C255.14 113.478 254.03 113.281 252.83 112.974L253.036 113.347L252.413 115.461Z" fill="#4368B4"/>
<path fill-rule="evenodd" clip-rule="evenodd" d="M256.672 113.923L256.071 113.561C255.14 113.478 254.03 113.281 252.83 112.974L253.036 113.344C254.325 113.682 255.65 113.868 256.672 113.923Z" fill="#0092DA"/>
<path fill-rule="evenodd" clip-rule="evenodd" d="M245.29 112.61C246.15 113.166 247.29 113.736 248.61 114.257L249.244 112.157L249.639 111.96C248.471 111.513 247.448 111.029 246.65 110.557L245.997 110.532L245.29 112.61Z" fill="#4368B4"/>
<path fill-rule="evenodd" clip-rule="evenodd" d="M249.265 112.146L249.639 111.96C248.471 111.513 247.447 111.029 246.65 110.557L245.996 110.532H245.997C246.85 111.077 247.971 111.636 249.265 112.146Z" fill="#0092DA"/>
<path fill-rule="evenodd" clip-rule="evenodd" d="M252.219 109.619C249.992 108.919 248.072 108.717 247.93 109.168C247.789 109.619 249.48 110.552 251.707 111.253C253.934 111.953 255.854 112.155 255.996 111.704C256.137 111.253 254.447 110.319 252.219 109.619Z" fill="#0092DA"/>
<path opacity="0.27" fill-rule="evenodd" clip-rule="evenodd" d="M244.273 108.442C244.282 108.412 244.294 108.383 244.309 108.355L251.806 111.004C253.996 111.693 255.647 111.046 255.816 110.097C255.949 110.16 256.08 110.222 256.208 110.286C256.265 111.279 254.566 112.438 252.188 111.771L244.517 109.281C244.286 108.97 244.196 108.685 244.273 108.442Z" fill="black"/>
<path fill-rule="evenodd" clip-rule="evenodd" d="M237.199 101.349C238.008 100.512 239.112 100.554 240.711 101.39L254.695 108.489C257.256 109.988 255.156 112.058 251.806 111.005L243.38 108.028C243.204 107.59 242.895 107.149 242.46 106.642L238.37 102.132C237.975 101.69 237.58 101.447 237.199 101.349Z" fill="#F0B39C"/>
<path fill-rule="evenodd" clip-rule="evenodd" d="M237.827 100.903C238.091 101.038 238.358 101.239 238.62 101.524L242.71 106.034C243.392 106.83 243.766 107.466 243.799 108.176L243.38 108.028C243.204 107.59 242.894 107.148 242.46 106.642L238.369 102.132C237.975 101.69 237.58 101.447 237.198 101.349C237.39 101.151 237.599 101.003 237.827 100.903Z" fill="#E68C74"/>
<path fill-rule="evenodd" clip-rule="evenodd" d="M258.872 113.698C259.159 113.578 259.346 113.413 259.412 113.202C259.471 113.013 259.43 112.799 259.302 112.568L258.097 112.301C258.175 112.484 258.193 112.655 258.145 112.81C258.097 112.963 257.987 113.091 257.823 113.196L257.818 113.212L258.872 113.698Z" fill="#0092DA"/>
<path fill-rule="evenodd" clip-rule="evenodd" d="M254.928 31.296C255.943 30.2451 256.553 28.7769 256.507 27.1669C256.435 24.6977 254.841 22.643 252.689 21.9514C253.414 24.7672 254.302 28.0333 254.928 31.296Z" fill="#F0B39C"/>
<path fill-rule="evenodd" clip-rule="evenodd" d="M254.928 31.2957C255.119 31.0982 255.295 30.886 255.456 30.6609C254.899 27.7605 254.136 24.8575 253.464 22.2706C253.215 22.1444 252.956 22.0374 252.689 21.9514C253.413 24.767 254.302 28.0333 254.928 31.2957Z" fill="#E68C74"/>
<path fill-rule="evenodd" clip-rule="evenodd" d="M99.5271 131.263H113.224C113.58 131.263 113.872 131.555 113.872 131.912V133.803C113.872 134.16 113.58 134.452 113.224 134.452H99.5271C99.1707 134.452 98.879 134.16 98.879 133.803V131.912C98.879 131.555 99.1707 131.263 99.5271 131.263Z" fill="white"/>
<path d="M107.891 131.263H104.89V134.452H107.891V131.263Z" fill="#EC6458"/>
<path fill-rule="evenodd" clip-rule="evenodd" d="M113.224 131.263H111.184V134.452H113.224C113.58 134.452 113.872 134.16 113.872 133.803V131.912C113.872 131.555 113.58 131.263 113.224 131.263Z" fill="#EC6458"/>
<path fill-rule="evenodd" clip-rule="evenodd" d="M101.52 131.263H99.5271C99.1707 131.263 98.879 131.555 98.879 131.912V133.803C98.879 134.16 99.1707 134.452 99.5271 134.452H101.52V131.263Z" fill="#EC6458"/>
<path opacity="0.19" fill-rule="evenodd" clip-rule="evenodd" d="M113.224 131.263H99.5271C99.1707 131.263 98.879 131.555 98.879 131.912V132.17H113.872V131.912C113.872 131.555 113.58 131.263 113.224 131.263Z" fill="black"/>
<path fill-rule="evenodd" clip-rule="evenodd" d="M99.0455 128.073H112.742C113.098 128.073 113.39 128.366 113.39 128.723V130.613C113.39 130.97 113.098 131.262 112.742 131.262H99.0455C98.689 131.262 98.3973 130.97 98.3973 130.613V128.723C98.3973 128.366 98.689 128.073 99.0455 128.073Z" fill="white"/>
<path d="M107.409 128.074H104.409V131.263H107.409V128.074Z" fill="#EC6458"/>
<path fill-rule="evenodd" clip-rule="evenodd" d="M112.742 128.074H110.702V131.263H112.742C113.098 131.263 113.39 130.971 113.39 130.614V128.723C113.39 128.366 113.098 128.074 112.742 128.074Z" fill="#EC6458"/>
<path fill-rule="evenodd" clip-rule="evenodd" d="M101.039 128.073H99.0455C98.689 128.073 98.3973 128.366 98.3973 128.723V130.613C98.3973 130.97 98.689 131.262 99.0455 131.262H101.039V128.073Z" fill="#EC6458"/>
<path opacity="0.19" fill-rule="evenodd" clip-rule="evenodd" d="M112.742 128.073H99.0455C98.689 128.073 98.3973 128.366 98.3973 128.723V128.98H113.39V128.723C113.39 128.366 113.098 128.073 112.742 128.073Z" fill="black"/>
<path fill-rule="evenodd" clip-rule="evenodd" d="M101.477 124.881H115.174C115.53 124.881 115.822 125.173 115.822 125.53V127.421C115.822 127.778 115.53 128.07 115.174 128.07H101.477C101.121 128.07 100.829 127.778 100.829 127.421V125.53C100.829 125.173 101.121 124.881 101.477 124.881Z" fill="white"/>
<path d="M109.841 124.881H106.84V128.07H109.841V124.881Z" fill="#EC6458"/>
<path fill-rule="evenodd" clip-rule="evenodd" d="M115.174 124.881H113.134V128.07H115.174C115.53 128.07 115.822 127.778 115.822 127.421V125.53C115.822 125.173 115.53 124.881 115.174 124.881Z" fill="#EC6458"/>
<path fill-rule="evenodd" clip-rule="evenodd" d="M103.471 124.881H101.477C101.121 124.881 100.829 125.173 100.829 125.53V127.421C100.829 127.778 101.121 128.07 101.477 128.07H103.471V124.881Z" fill="#EC6458"/>
<path opacity="0.19" fill-rule="evenodd" clip-rule="evenodd" d="M115.174 124.881H101.477C101.121 124.881 100.829 125.173 100.829 125.53V125.787H115.822V125.53C115.822 125.173 115.53 124.881 115.174 124.881Z" fill="black"/>
<path fill-rule="evenodd" clip-rule="evenodd" d="M99.1124 121.691H112.809C113.165 121.691 113.457 121.983 113.457 122.34V124.231C113.457 124.588 113.165 124.88 112.809 124.88H99.1124C98.7559 124.88 98.4642 124.588 98.4642 124.231V122.34C98.4642 121.983 98.7559 121.691 99.1124 121.691Z" fill="white"/>
<path d="M107.476 121.691H104.475V124.88H107.476V121.691Z" fill="#EC6458"/>
<path fill-rule="evenodd" clip-rule="evenodd" d="M112.809 121.691H110.769V124.88H112.809C113.165 124.88 113.457 124.588 113.457 124.231V122.34C113.457 121.983 113.165 121.691 112.809 121.691Z" fill="#EC6458"/>
<path fill-rule="evenodd" clip-rule="evenodd" d="M101.106 121.691H99.1122C98.7557 121.691 98.4641 121.983 98.4641 122.34V124.231C98.4641 124.588 98.7557 124.88 99.1122 124.88H101.106V121.691Z" fill="#EC6458"/>
<path opacity="0.19" fill-rule="evenodd" clip-rule="evenodd" d="M112.809 121.691H99.1124C98.7559 121.691 98.4642 121.983 98.4642 122.34V122.598H113.457V122.34C113.457 121.983 113.165 121.691 112.809 121.691Z" fill="black"/>
<path fill-rule="evenodd" clip-rule="evenodd" d="M100.485 118.501H114.182C114.538 118.501 114.83 118.794 114.83 119.15V121.041C114.83 121.398 114.538 121.69 114.182 121.69H100.485C100.129 121.69 99.8373 121.398 99.8373 121.041V119.15C99.8373 118.794 100.129 118.501 100.485 118.501Z" fill="white"/>
<path d="M108.849 118.501H105.849V121.69H108.849V118.501Z" fill="#EC6458"/>
<path fill-rule="evenodd" clip-rule="evenodd" d="M114.182 118.501H112.142V121.69H114.182C114.538 121.69 114.83 121.398 114.83 121.041V119.15C114.83 118.794 114.538 118.501 114.182 118.501Z" fill="#EC6458"/>
<path fill-rule="evenodd" clip-rule="evenodd" d="M102.479 118.501H100.485C100.129 118.501 99.8373 118.794 99.8373 119.15V121.041C99.8373 121.399 100.129 121.69 100.485 121.69H102.479V118.501Z" fill="#EC6458"/>
<path opacity="0.19" fill-rule="evenodd" clip-rule="evenodd" d="M114.182 118.501H100.485C100.129 118.501 99.8373 118.794 99.8373 119.15V119.408H114.83V119.15C114.83 118.794 114.538 118.501 114.182 118.501Z" fill="black"/>
<path fill-rule="evenodd" clip-rule="evenodd" d="M101.617 115.337H115.314C115.67 115.337 115.962 115.629 115.962 115.986V117.877C115.962 118.234 115.67 118.526 115.314 118.526H101.617C101.261 118.526 100.969 118.234 100.969 117.877V115.986C100.969 115.629 101.261 115.337 101.617 115.337Z" fill="white"/>
<path d="M109.981 115.337H106.98V118.526H109.981V115.337Z" fill="#EC6458"/>
<path fill-rule="evenodd" clip-rule="evenodd" d="M115.314 115.337H113.274V118.526H115.314C115.67 118.526 115.962 118.234 115.962 117.877V115.986C115.962 115.629 115.67 115.337 115.314 115.337Z" fill="#EC6458"/>
<path fill-rule="evenodd" clip-rule="evenodd" d="M103.611 115.337H101.617C101.261 115.337 100.969 115.629 100.969 115.986V117.877C100.969 118.234 101.261 118.526 101.617 118.526H103.611V115.337Z" fill="#EC6458"/>
<path opacity="0.19" fill-rule="evenodd" clip-rule="evenodd" d="M115.314 115.337H101.617C101.261 115.337 100.969 115.629 100.969 115.986V116.244H115.962V115.986C115.962 115.629 115.67 115.337 115.314 115.337Z" fill="black"/>
<path fill-rule="evenodd" clip-rule="evenodd" d="M100.32 112.148H114.017C114.373 112.148 114.665 112.44 114.665 112.797V114.688C114.665 115.045 114.373 115.337 114.017 115.337H100.32C99.9638 115.337 99.6721 115.045 99.6721 114.688V112.797C99.6721 112.44 99.9638 112.148 100.32 112.148Z" fill="white"/>
<path d="M108.684 112.148H105.683V115.337H108.684V112.148Z" fill="#EC6458"/>
<path fill-rule="evenodd" clip-rule="evenodd" d="M114.017 112.148H111.977V115.337H114.017C114.373 115.337 114.665 115.045 114.665 114.688V112.797C114.665 112.44 114.373 112.148 114.017 112.148Z" fill="#EC6458"/>
<path fill-rule="evenodd" clip-rule="evenodd" d="M102.314 112.147H100.32C99.9636 112.147 99.6719 112.44 99.6719 112.796V114.687C99.6719 115.044 99.9636 115.336 100.32 115.336H102.314V112.147Z" fill="#EC6458"/>
<path opacity="0.19" fill-rule="evenodd" clip-rule="evenodd" d="M114.017 112.148H100.32C99.9638 112.148 99.6721 112.44 99.6721 112.797V113.055H114.665V112.797C114.665 112.44 114.373 112.148 114.017 112.148Z" fill="black"/>
<path fill-rule="evenodd" clip-rule="evenodd" d="M101.452 108.984H115.148C115.505 108.984 115.797 109.276 115.797 109.633V111.524C115.797 111.881 115.505 112.173 115.148 112.173H101.452C101.095 112.173 100.804 111.881 100.804 111.524V109.633C100.804 109.276 101.095 108.984 101.452 108.984Z" fill="white"/>
<path d="M109.816 108.984H106.815V112.173H109.816V108.984Z" fill="#EC6458"/>
<path fill-rule="evenodd" clip-rule="evenodd" d="M115.148 108.984H113.109V112.173H115.148C115.505 112.173 115.797 111.881 115.797 111.524V109.633C115.797 109.276 115.505 108.984 115.148 108.984Z" fill="#EC6458"/>
<path fill-rule="evenodd" clip-rule="evenodd" d="M103.445 108.984H101.452C101.095 108.984 100.804 109.276 100.804 109.633V111.524C100.804 111.881 101.095 112.173 101.452 112.173H103.445V108.984Z" fill="#EC6458"/>
<path fill-rule="evenodd" clip-rule="evenodd" d="M121.659 121.656H135.356C135.712 121.656 136.004 121.948 136.004 122.305V124.196C136.004 124.553 135.712 124.845 135.356 124.845H121.659C121.303 124.845 121.011 124.553 121.011 124.196V122.305C121.011 121.948 121.303 121.656 121.659 121.656Z" fill="white"/>
<path d="M130.023 121.656H127.022V124.845H130.023V121.656Z" fill="#EC6458"/>
<path fill-rule="evenodd" clip-rule="evenodd" d="M135.356 121.656H133.316V124.845H135.356C135.712 124.845 136.004 124.553 136.004 124.196V122.305C136.004 121.948 135.712 121.656 135.356 121.656Z" fill="#EC6458"/>
<path fill-rule="evenodd" clip-rule="evenodd" d="M123.653 121.656H121.659C121.303 121.656 121.011 121.948 121.011 122.305V124.196C121.011 124.553 121.303 124.845 121.659 124.845H123.653V121.656Z" fill="#EC6458"/>
<path opacity="0.19" fill-rule="evenodd" clip-rule="evenodd" d="M135.356 121.656H121.659C121.303 121.656 121.011 121.948 121.011 122.305V122.563H136.004V122.305C136.004 121.948 135.712 121.656 135.356 121.656Z" fill="black"/>
<path fill-rule="evenodd" clip-rule="evenodd" d="M120.738 131.212H134.434C134.791 131.212 135.082 131.504 135.082 131.861V133.752C135.082 134.109 134.791 134.401 134.434 134.401H120.738C120.381 134.401 120.089 134.109 120.089 133.752V131.861C120.089 131.504 120.381 131.212 120.738 131.212Z" fill="white"/>
<path d="M129.101 131.212H126.1V134.401H129.101V131.212Z" fill="#F4CA64"/>
<path fill-rule="evenodd" clip-rule="evenodd" d="M134.434 131.212H132.395V134.401H134.434C134.791 134.401 135.082 134.109 135.082 133.752V131.861C135.082 131.504 134.791 131.212 134.434 131.212Z" fill="#F4CA64"/>
<path fill-rule="evenodd" clip-rule="evenodd" d="M122.731 131.212H120.738C120.381 131.212 120.089 131.504 120.089 131.861V133.752C120.089 134.109 120.381 134.401 120.738 134.401H122.731V131.212Z" fill="#F4CA64"/>
<path opacity="0.19" fill-rule="evenodd" clip-rule="evenodd" d="M134.434 131.212H120.738C120.381 131.212 120.089 131.504 120.089 131.861V132.119H135.082V131.861C135.082 131.504 134.791 131.212 134.434 131.212Z" fill="black"/>
<path fill-rule="evenodd" clip-rule="evenodd" d="M122.607 128.029H136.303C136.66 128.029 136.951 128.321 136.951 128.678V130.569C136.951 130.925 136.66 131.218 136.303 131.218H122.607C122.25 131.218 121.959 130.925 121.959 130.569V128.678C121.959 128.321 122.25 128.029 122.607 128.029Z" fill="white"/>
<path d="M130.97 128.029H127.97V131.218H130.97V128.029Z" fill="#F4CA64"/>
<path fill-rule="evenodd" clip-rule="evenodd" d="M136.303 128.029H134.264V131.218H136.303C136.66 131.218 136.951 130.926 136.951 130.569V128.678C136.951 128.321 136.66 128.029 136.303 128.029Z" fill="#F4CA64"/>
<path fill-rule="evenodd" clip-rule="evenodd" d="M124.6 128.029H122.607C122.25 128.029 121.959 128.321 121.959 128.678V130.569C121.959 130.925 122.25 131.218 122.607 131.218H124.6V128.029Z" fill="#F4CA64"/>
<path opacity="0.19" fill-rule="evenodd" clip-rule="evenodd" d="M136.303 128.029H122.607C122.25 128.029 121.959 128.321 121.959 128.678V128.935H136.951V128.678C136.951 128.321 136.66 128.029 136.303 128.029Z" fill="black"/>
<path fill-rule="evenodd" clip-rule="evenodd" d="M121.244 124.841H134.94C135.297 124.841 135.589 125.133 135.589 125.49V127.381C135.589 127.738 135.297 128.03 134.94 128.03H121.244C120.887 128.03 120.596 127.738 120.596 127.381V125.49C120.596 125.133 120.887 124.841 121.244 124.841Z" fill="white"/>
<path d="M129.608 124.842H126.607V128.031H129.608V124.842Z" fill="#F4CA64"/>
<path fill-rule="evenodd" clip-rule="evenodd" d="M134.94 124.842H132.901V128.031H134.94C135.297 128.031 135.589 127.738 135.589 127.382V125.491C135.589 125.134 135.297 124.842 134.94 124.842Z" fill="#F4CA64"/>
<path fill-rule="evenodd" clip-rule="evenodd" d="M123.237 124.841H121.244C120.887 124.841 120.596 125.133 120.596 125.49V127.381C120.596 127.738 120.887 128.03 121.244 128.03H123.237V124.841Z" fill="#F4CA64"/>
<path opacity="0.19" fill-rule="evenodd" clip-rule="evenodd" d="M134.94 124.841H121.244C120.887 124.841 120.596 125.133 120.596 125.49V125.748H135.589V125.49C135.589 125.133 135.297 124.841 134.94 124.841Z" fill="black"/>
<path fill-rule="evenodd" clip-rule="evenodd" d="M120.286 118.47H133.983C134.339 118.47 134.631 118.762 134.631 119.119V121.01C134.631 121.367 134.339 121.659 133.983 121.659H120.286C119.93 121.659 119.638 121.367 119.638 121.01V119.119C119.638 118.762 119.93 118.47 120.286 118.47Z" fill="white"/>
<path d="M128.65 118.47H125.649V121.659H128.65V118.47Z" fill="#F4CA64"/>
<path fill-rule="evenodd" clip-rule="evenodd" d="M133.983 118.47H131.943V121.659H133.983C134.339 121.659 134.631 121.367 134.631 121.01V119.119C134.631 118.762 134.339 118.47 133.983 118.47Z" fill="#F4CA64"/>
<path fill-rule="evenodd" clip-rule="evenodd" d="M122.28 118.47H120.286C119.93 118.47 119.638 118.762 119.638 119.119V121.01C119.638 121.367 119.93 121.659 120.286 121.659H122.28V118.47Z" fill="#F4CA64"/>
<path fill-rule="evenodd" clip-rule="evenodd" d="M274.08 131.084H288.482C288.857 131.084 289.164 131.391 289.164 131.767V133.755C289.164 134.13 288.857 134.437 288.482 134.437H274.08C273.705 134.437 273.398 134.13 273.398 133.755V131.767C273.398 131.391 273.705 131.084 274.08 131.084Z" fill="white"/>
<path d="M282.874 131.084H279.719V134.438H282.874V131.084Z" fill="#0092DA"/>
<path fill-rule="evenodd" clip-rule="evenodd" d="M288.482 131.084H286.338V134.438H288.482C288.857 134.438 289.164 134.131 289.164 133.755V131.767C289.164 131.391 288.857 131.084 288.482 131.084Z" fill="#0092DA"/>
<path fill-rule="evenodd" clip-rule="evenodd" d="M276.176 131.084H274.08C273.705 131.084 273.398 131.391 273.398 131.767V133.755C273.398 134.131 273.705 134.438 274.08 134.438H276.176V131.084Z" fill="#0092DA"/>
<path opacity="0.19" fill-rule="evenodd" clip-rule="evenodd" d="M288.482 131.084H274.08C273.705 131.084 273.398 131.391 273.398 131.767V132.038H289.164V131.767C289.164 131.391 288.857 131.084 288.482 131.084Z" fill="black"/>
<path fill-rule="evenodd" clip-rule="evenodd" d="M276.045 127.738H290.448C290.823 127.738 291.129 128.045 291.129 128.42V130.408C291.129 130.784 290.823 131.091 290.448 131.091H276.045C275.671 131.091 275.364 130.784 275.364 130.408V128.42C275.364 128.045 275.67 127.738 276.045 127.738Z" fill="white"/>
<path d="M284.84 127.738H281.685V131.091H284.84V127.738Z" fill="#0092DA"/>
<path fill-rule="evenodd" clip-rule="evenodd" d="M290.448 127.738H288.303V131.091H290.448C290.823 131.091 291.129 130.784 291.129 130.408V128.42C291.129 128.045 290.823 127.738 290.448 127.738Z" fill="#0092DA"/>
<path fill-rule="evenodd" clip-rule="evenodd" d="M278.141 127.737H276.045C275.67 127.737 275.364 128.044 275.364 128.42V130.408C275.364 130.784 275.67 131.091 276.045 131.091H278.141V127.737Z" fill="#0092DA"/>
<path opacity="0.19" fill-rule="evenodd" clip-rule="evenodd" d="M290.448 127.738H276.045C275.671 127.738 275.364 128.045 275.364 128.42V128.691H291.129V128.42C291.129 128.045 290.823 127.738 290.448 127.738Z" fill="black"/>
<path fill-rule="evenodd" clip-rule="evenodd" d="M274.615 124.403H289.017C289.392 124.403 289.699 124.71 289.699 125.085V127.074C289.699 127.449 289.392 127.756 289.017 127.756H274.615C274.24 127.756 273.933 127.449 273.933 127.074V125.085C273.933 124.71 274.24 124.403 274.615 124.403Z" fill="white"/>
<path d="M283.409 124.403H280.254V127.756H283.409V124.403Z" fill="#0092DA"/>
<path fill-rule="evenodd" clip-rule="evenodd" d="M289.017 124.403H286.873V127.756H289.017C289.392 127.756 289.699 127.449 289.699 127.074V125.085C289.699 124.71 289.392 124.403 289.017 124.403Z" fill="#0092DA"/>
<path fill-rule="evenodd" clip-rule="evenodd" d="M276.711 124.403H274.615C274.24 124.403 273.933 124.71 273.933 125.085V127.074C273.933 127.449 274.24 127.756 274.615 127.756H276.711V124.403Z" fill="#0092DA"/>
<path opacity="0.19" fill-rule="evenodd" clip-rule="evenodd" d="M289.017 124.403H274.615C274.24 124.403 273.933 124.71 273.933 125.085V125.357H289.699V125.085C289.699 124.71 289.392 124.403 289.017 124.403Z" fill="black"/>
<path fill-rule="evenodd" clip-rule="evenodd" d="M273.512 121.049H287.914C288.289 121.049 288.595 121.356 288.595 121.731V123.72C288.595 124.095 288.289 124.402 287.914 124.402H273.512C273.137 124.402 272.83 124.095 272.83 123.72V121.731C272.83 121.356 273.137 121.049 273.512 121.049Z" fill="white"/>
<path d="M282.306 121.049H279.151V124.403H282.306V121.049Z" fill="#0092DA"/>
<path fill-rule="evenodd" clip-rule="evenodd" d="M287.914 121.049H285.769V124.403H287.914C288.289 124.403 288.595 124.096 288.595 123.72V121.732C288.595 121.356 288.289 121.049 287.914 121.049Z" fill="#0092DA"/>
<path fill-rule="evenodd" clip-rule="evenodd" d="M275.608 121.049H273.512C273.137 121.049 272.83 121.356 272.83 121.731V123.72C272.83 124.095 273.137 124.402 273.512 124.402H275.608V121.049Z" fill="#0092DA"/>
<path fill-rule="evenodd" clip-rule="evenodd" d="M162.507 124.894H176.204C176.56 124.894 176.852 125.186 176.852 125.543V127.434C176.852 127.791 176.56 128.083 176.204 128.083H162.507C162.151 128.083 161.859 127.791 161.859 127.434V125.543C161.859 125.186 162.151 124.894 162.507 124.894Z" fill="white"/>
<path d="M170.871 124.894H167.87V128.083H170.871V124.894Z" fill="#0092DA"/>
<path fill-rule="evenodd" clip-rule="evenodd" d="M176.204 124.894H174.164V128.083H176.204C176.56 128.083 176.852 127.791 176.852 127.434V125.543C176.852 125.186 176.56 124.894 176.204 124.894Z" fill="#0092DA"/>
<path fill-rule="evenodd" clip-rule="evenodd" d="M164.501 124.894H162.507C162.151 124.894 161.859 125.186 161.859 125.543V127.434C161.859 127.791 162.151 128.083 162.507 128.083H164.501V124.894Z" fill="#0092DA"/>
<path fill-rule="evenodd" clip-rule="evenodd" d="M163.626 131.26H177.322C177.679 131.26 177.97 131.552 177.97 131.909V133.8C177.97 134.157 177.679 134.449 177.322 134.449H163.626C163.269 134.449 162.978 134.157 162.978 133.8V131.909C162.978 131.552 163.269 131.26 163.626 131.26Z" fill="white"/>
<path d="M171.99 131.26H168.989V134.449H171.99V131.26Z" fill="#F4CA64"/>
<path fill-rule="evenodd" clip-rule="evenodd" d="M177.322 131.26H175.283V134.449H177.322C177.679 134.449 177.97 134.157 177.97 133.8V131.91C177.97 131.552 177.679 131.26 177.322 131.26Z" fill="#F4CA64"/>
<path fill-rule="evenodd" clip-rule="evenodd" d="M165.619 131.26H163.626C163.27 131.26 162.978 131.553 162.978 131.91V133.8C162.978 134.157 163.27 134.449 163.626 134.449H165.619V131.26Z" fill="#F4CA64"/>
<path opacity="0.19" fill-rule="evenodd" clip-rule="evenodd" d="M177.322 131.26H163.626C163.269 131.26 162.978 131.552 162.978 131.909V132.167H177.97V131.909C177.97 131.552 177.679 131.26 177.322 131.26Z" fill="black"/>
<path fill-rule="evenodd" clip-rule="evenodd" d="M164.408 128.071H178.104C178.461 128.071 178.753 128.363 178.753 128.72V130.611C178.753 130.967 178.461 131.26 178.104 131.26H164.408C164.051 131.26 163.76 130.967 163.76 130.611V128.72C163.76 128.363 164.051 128.071 164.408 128.071Z" fill="white"/>
<path d="M172.772 128.071H169.771V131.26H172.772V128.071Z" fill="#F4CA64"/>
<path fill-rule="evenodd" clip-rule="evenodd" d="M178.104 128.071H176.065V131.26H178.104C178.461 131.26 178.753 130.967 178.753 130.611V128.72C178.753 128.363 178.461 128.071 178.104 128.071Z" fill="#F4CA64"/>
<path fill-rule="evenodd" clip-rule="evenodd" d="M166.401 128.07H164.408C164.051 128.07 163.76 128.362 163.76 128.719V130.61C163.76 130.967 164.051 131.259 164.408 131.259H166.401V128.07Z" fill="#F4CA64"/>
<path opacity="0.19" fill-rule="evenodd" clip-rule="evenodd" d="M178.104 128.071H164.408C164.051 128.071 163.76 128.363 163.76 128.72V128.977H178.753V128.72C178.753 128.363 178.461 128.071 178.104 128.071Z" fill="black"/>
<path fill-rule="evenodd" clip-rule="evenodd" d="M398.177 128.722C395.179 120.002 392.074 114.606 377.192 112.426L376.135 112.254C383.032 128.046 387.387 144.94 389.189 163.996L399.997 163.996L399.997 134.814L398.177 128.722Z" fill="white"/>
<path fill-rule="evenodd" clip-rule="evenodd" d="M398.177 128.722C397.339 126.285 396.492 124.108 395.383 122.187C391.329 124.864 387.061 127.406 382.597 129.803C385.837 140.501 388.037 151.805 389.189 163.996L399.997 163.996L399.997 134.814L398.177 128.722Z" fill="#E3E3E3"/>
<path fill-rule="evenodd" clip-rule="evenodd" d="M302.38 116.173C310.865 122.332 316.675 134.874 316.675 149.344C316.675 154.373 315.918 159.614 314.646 163.991L389.189 163.997C387.37 144.751 382.947 127.71 375.93 111.784L356.289 108.599L356.328 108.749C352.25 112.936 333.329 113.333 325.797 109.168L309.297 113.915C305.871 114.964 303.294 115.759 301.23 116.633C301.597 116.478 301.979 116.325 302.38 116.173Z" fill="#C4443D"/>
<path fill-rule="evenodd" clip-rule="evenodd" d="M296.323 119.743C296.56 119.512 296.802 119.294 297.051 119.085C296.802 119.294 296.56 119.513 296.323 119.743Z" fill="#EC6458"/>
<path fill-rule="evenodd" clip-rule="evenodd" d="M289.223 131.766C289.36 131.472 289.495 131.186 289.628 130.904C289.495 131.186 289.36 131.472 289.223 131.766Z" fill="#EC6458"/>
<path fill-rule="evenodd" clip-rule="evenodd" d="M302.38 116.173C310.865 122.332 316.675 134.874 316.675 149.345C316.675 151.188 316.573 153.06 316.381 154.907C342.083 150.653 364.9 141.76 382.559 129.693C380.695 123.543 378.489 117.59 375.93 111.784L356.289 108.599L356.328 108.749C352.25 112.936 333.329 113.333 325.797 109.168L309.297 113.915C305.871 114.964 303.295 115.759 301.231 116.633C301.598 116.478 301.98 116.325 302.38 116.173Z" fill="#EC6458"/>
<path fill-rule="evenodd" clip-rule="evenodd" d="M297.078 119.062C297.331 118.851 297.592 118.65 297.862 118.458C297.592 118.65 297.331 118.851 297.078 119.062Z" fill="#EC6458"/>
<path fill-rule="evenodd" clip-rule="evenodd" d="M290.97 128.11C291.082 127.883 291.193 127.66 291.302 127.442C291.193 127.66 291.082 127.883 290.97 128.11Z" fill="#EC6458"/>
<path fill-rule="evenodd" clip-rule="evenodd" d="M293.181 123.942C293.4 123.57 293.616 123.217 293.832 122.882C293.616 123.217 293.4 123.57 293.181 123.942Z" fill="#EC6458"/>
<path fill-rule="evenodd" clip-rule="evenodd" d="M294.203 122.32C294.311 122.162 294.418 122.009 294.526 121.86C294.418 122.009 294.311 122.162 294.203 122.32Z" fill="#EC6458"/>
<path fill-rule="evenodd" clip-rule="evenodd" d="M291.746 126.567C291.858 126.351 291.968 126.139 292.077 125.933C291.968 126.139 291.858 126.351 291.746 126.567Z" fill="#EC6458"/>
<path fill-rule="evenodd" clip-rule="evenodd" d="M302.38 116.173C295.927 118.623 294.156 121.234 289.223 131.766L275.409 164H314.643C315.917 159.622 316.675 154.377 316.675 149.344C316.675 134.874 310.865 122.332 302.38 116.173Z" fill="white"/>
<path fill-rule="evenodd" clip-rule="evenodd" d="M310.242 163.987L318.111 163.995L316.631 146.696L310.242 163.987Z" fill="#E3E3E3"/>
<path fill-rule="evenodd" clip-rule="evenodd" d="M326.061 102.793L326.046 103.127C333.762 106.519 349.823 106.202 354.769 102.748L354.693 102.457L356.328 108.749C352.247 112.939 333.298 113.334 325.778 109.158L326.061 102.793Z" fill="white"/>
<path fill-rule="evenodd" clip-rule="evenodd" d="M351.835 91.4512L354.769 102.748C349.823 106.202 333.762 106.519 326.046 103.127L326.528 92.2614C327.937 92.0539 329.501 91.7599 331.238 91.3761C333.201 90.9423 335.725 90.0025 336.207 87.8362C339.788 91.3058 345.246 92.6576 351.772 91.6101L351.835 91.4512Z" fill="#F0B39C"/>
<path fill-rule="evenodd" clip-rule="evenodd" d="M326.178 100.458L326.529 92.2616C327.937 92.054 329.501 91.7599 331.238 91.3762C333.201 90.9425 335.724 90.0028 336.207 87.8372C336.689 88.3047 337.206 88.7338 337.755 89.1237C336.014 94.5445 333.017 98.4526 326.178 100.458Z" fill="#E68C74"/>
<path fill-rule="evenodd" clip-rule="evenodd" d="M319.964 59.8796C319.056 62.5306 318.015 65.9641 317.232 68.8307C315.858 70.9557 314.774 72.2692 313.599 74.2826C313.173 75.0875 314.422 75.8671 315.548 76.3181C313.728 89.5947 312.96 95.4148 331.238 91.3768C333.201 90.9433 335.725 90.0034 336.207 87.8369C333.972 85.6716 332.467 82.6819 331.891 78.934C331.981 78.9111 332.07 78.8858 332.158 78.8595L332.158 78.8585L332.16 78.8589C334.545 78.1404 336.376 76.1831 336.263 73.3012C336.094 68.9784 329.704 65.6334 326.082 71.7082H323.563L324.206 67.7893C321.996 66.4218 320.927 63.5167 322.599 60.3336C321.643 60.3336 320.762 60.1707 319.964 59.8796Z" fill="#F0B39C"/>
<path fill-rule="evenodd" clip-rule="evenodd" d="M358.883 73.0307L351.826 91.6042C341.227 93.3055 333.389 88.686 331.891 78.9334C334.406 78.2842 336.38 76.2896 336.263 73.3004C336.095 68.9776 329.704 65.6326 326.082 71.7076H323.563L324.206 67.7885C321.996 66.421 320.927 63.5159 322.6 60.3328C314.928 60.3326 312.071 49.8452 318.418 46.8619C316.899 39.9207 325.194 35.0851 335.825 43.0012C341.394 40.8174 357.36 40.5057 356.854 52.0092C367.1 52.4242 371.059 68.7093 358.883 73.0307Z" fill="#B36A4F"/>
<path fill-rule="evenodd" clip-rule="evenodd" d="M320.135 65.5691C319.329 65.4367 318.469 66.5138 318.214 67.9747C317.96 69.4357 318.408 70.7275 319.215 70.86C320.022 70.9924 320.882 69.9153 321.136 68.4544C321.39 66.9936 320.942 65.7016 320.135 65.5691Z" fill="#2A2D52"/>
<path d="M321.451 65.5802C321.728 64.1057 320.134 63.3653 319.274 64.6541C319.531 64.5972 319.765 64.5069 320.011 64.4614C320.789 64.2801 321.117 64.9955 321.451 65.5802Z" fill="#2A2D52"/>
<path d="M315.046 81.5974C317.233 83.2412 320.515 82.2679 321.338 79.6245C320.908 80.081 320.528 80.5454 320.051 80.8902C318.635 82.0476 316.752 82.0608 315.046 81.5974Z" fill="#2A2D52"/>
<path d="M333.166 72.7531C331.54 71.3508 328.76 72.5727 329.062 74.8153C329.59 74.2187 330.083 73.5736 330.818 73.2688C331.462 72.9666 332.236 72.8754 333.166 72.7531Z" fill="#2A2D52"/>
<path fill-rule="evenodd" clip-rule="evenodd" d="M329.196 78.8492C329.97 79.4068 330.939 79.7414 331.992 79.7494C331.93 79.4709 331.877 79.1859 331.832 78.8936C331.94 78.8656 332.046 78.8331 332.15 78.7964C331.662 78.9589 331.137 79.0478 330.589 79.0478C330.103 79.0476 329.635 78.9781 329.196 78.8492Z" fill="#E68C74"/>
</svg>
