<svg width="400" height="267" viewBox="0 0 400 267" fill="none" xmlns="http://www.w3.org/2000/svg">
<path d="M258.771 245.098C258.771 245.098 261.805 224.201 276.323 223.452C290.839 222.702 305.752 215.979 313.305 202.256C320.858 188.532 356.573 139.091 372.531 144.385C388.489 149.68 358.927 191.113 363.729 205.363C368.532 219.614 400.684 214.706 391.815 245.097" stroke="white" stroke-miterlimit="10"/>
<path d="M12.2716 245.517C12.2716 245.517 18.1847 223.993 38.8803 220.509C59.576 217.024 66.2919 216.167 76.6075 206.975C86.9231 197.782 100.043 183.229 117.899 190.272C134.751 196.919 129.597 212.868 152.201 217.941C174.806 223.014 211.467 224.328 212.575 245.098" stroke="white" stroke-miterlimit="10"/>
<path d="M1 245.098H399.575" stroke="white" stroke-miterlimit="10"/>
<path d="M276.926 20.0859C264.81 11.2112 247.802 13.8511 238.938 25.982C230.075 38.113 232.711 55.1422 244.827 64.0169C255.649 71.9437 270.373 70.6833 279.711 61.679L293.21 65.4944L285.262 54.0817C291.006 42.4455 287.748 28.0134 276.926 20.0859Z" fill="#FF9819"/>
<path d="M258.08 26.8906L248.136 26.6919L243.042 35.1871L252.986 35.3857L258.08 26.8906Z" fill="white"/>
<path d="M251.494 29.4819C250.488 29.4615 249.254 30.1437 248.74 31.0021C248.224 31.8619 248.622 32.575 249.628 32.5954C250.634 32.6158 251.868 31.9349 252.383 31.0751C252.898 30.2167 252.501 29.5023 251.494 29.4819Z" fill="#1A224D"/>
<path d="M247.877 43.973L257.818 44.1657L252.986 35.3857L243.045 35.1936L247.877 43.973Z" fill="#BFCFFF"/>
<path d="M248.556 37.8229C248.884 38.4182 248.603 38.8899 247.929 38.8767C247.255 38.8636 246.443 38.3709 246.116 37.7755C245.789 37.1802 246.069 36.7085 246.743 36.7217C247.417 36.7349 248.229 37.2282 248.556 37.8229ZM248.768 40.4009C248.094 40.3878 247.813 40.8601 248.141 41.4548C248.469 42.0501 249.28 42.5428 249.954 42.556C250.628 42.5691 250.909 42.0968 250.581 41.5015C250.254 40.9068 249.442 40.4141 248.768 40.4009ZM250.909 36.8026C250.235 36.7895 249.954 37.2618 250.282 37.8565C250.61 38.4518 251.421 38.9445 252.096 38.9577C252.77 38.9708 253.05 38.4985 252.722 37.9038C252.394 37.3085 251.582 36.8158 250.909 36.8026ZM252.934 40.4818C252.26 40.4687 251.979 40.941 252.307 41.5357C252.635 42.1304 253.446 42.6237 254.12 42.6369C254.795 42.65 255.075 42.1777 254.747 41.583C254.419 40.9884 253.607 40.4943 252.934 40.4818Z" fill="#1A224D"/>
<path d="M257.818 44.1657L262.946 35.6133L258.114 26.8333L252.986 35.3857L257.818 44.1657Z" fill="#87A5FF"/>
<path d="M257.311 38.0534C257.658 37.4738 258.206 37.4863 258.533 38.081C258.861 38.6763 258.845 39.6289 258.497 40.2084C258.15 40.7879 257.603 40.7754 257.275 40.1808C256.947 39.5861 256.963 38.6329 257.311 38.0534Z" fill="#1A224D"/>
<path d="M257.336 36.5495C257.664 37.1448 258.212 37.1573 258.559 36.5778C258.907 35.9982 258.923 35.0457 258.595 34.4504C258.267 33.855 257.72 33.8425 257.373 34.4227C257.025 35.0016 257.009 35.9542 257.336 36.5495Z" fill="#1A224D"/>
<path d="M257.398 32.9176C257.726 33.5129 258.273 33.5254 258.621 32.9452C258.968 32.3657 258.985 31.4131 258.657 30.8178C258.329 30.2225 257.782 30.21 257.434 30.7902C257.087 31.3704 257.071 32.3229 257.398 32.9176Z" fill="#1A224D"/>
<path d="M271.755 37.186L262.199 39.7614L269.219 46.8153L278.776 44.2399L271.755 37.186Z" fill="white"/>
<path d="M272.202 40.1872C271.952 39.9359 271.571 39.7188 271.12 39.5971C270.219 39.3537 269.374 39.5813 269.237 40.1043C269.168 40.3668 269.288 40.6536 269.538 40.9049C269.789 41.1568 270.17 41.3732 270.621 41.4949C271.522 41.7383 272.367 41.5107 272.504 40.9878C272.574 40.7253 272.453 40.4385 272.202 40.1872Z" fill="#1A224D"/>
<path d="M271.436 43.0959C271.186 42.8446 270.806 42.6275 270.354 42.5058C269.452 42.2618 268.609 42.4887 268.471 43.013C268.402 43.2755 268.522 43.5623 268.772 43.8136C269.023 44.0649 269.403 44.2813 269.854 44.403C270.758 44.647 271.601 44.4201 271.737 43.8958C271.806 43.634 271.687 43.3472 271.436 43.0959Z" fill="#1A224D"/>
<path d="M259.569 49.4415L266.592 56.4882L269.2 46.8096L262.176 39.7629L259.569 49.4415Z" fill="#BFCFFF"/>
<path d="M264.322 45.486C264.145 46.1418 263.615 46.2865 263.14 45.809C262.663 45.3314 262.421 44.4117 262.598 43.7559C262.774 43.1 263.304 42.9553 263.78 43.4329C264.255 43.9111 264.498 44.8301 264.322 45.486ZM262.686 47.489C262.21 47.0115 261.681 47.1562 261.504 47.812C261.328 48.4679 261.57 49.3875 262.046 49.8651C262.523 50.3427 263.052 50.198 263.228 49.5421C263.405 48.8856 263.163 47.9666 262.686 47.489ZM266.722 46.3859C266.246 45.9083 265.717 46.053 265.54 46.7089C265.364 47.3647 265.606 48.2844 266.082 48.7619C266.559 49.2395 267.088 49.0948 267.264 48.4389C267.441 47.7831 267.199 46.8641 266.722 46.3859ZM265.63 50.442C265.153 49.9644 264.625 50.1092 264.448 50.765C264.271 51.4215 264.514 52.3405 264.99 52.8181C265.466 53.2957 265.995 53.151 266.172 52.4951C266.349 51.8386 266.105 50.9196 265.63 50.442Z" fill="#1A224D"/>
<path d="M266.592 56.4881L276.212 53.8956L278.82 44.217L269.2 46.8102L266.592 56.4881Z" fill="#87A5FF"/>
<path d="M270.464 51.736C271.116 51.5603 271.501 51.9498 271.325 52.6056C271.148 53.2615 270.476 53.9364 269.823 54.1121C269.171 54.2877 268.786 53.8983 268.963 53.2424C269.14 52.5859 269.811 51.9116 270.464 51.736Z" fill="#1A224D"/>
<path d="M271.525 50.6709C271.348 51.3267 271.734 51.7162 272.386 51.5405C273.038 51.3649 273.71 50.6906 273.887 50.0341C274.064 49.3782 273.678 48.9888 273.026 49.1645C272.374 49.3401 271.702 50.015 271.525 50.6709Z" fill="#1A224D"/>
<path d="M274.087 48.0993C273.911 48.7552 274.296 49.1446 274.948 48.969C275.6 48.7934 276.273 48.1191 276.449 47.4626C276.626 46.8067 276.241 46.4173 275.589 46.5929C274.936 46.7692 274.264 47.4435 274.087 48.0993Z" fill="#1A224D"/>
<path d="M358.945 167.002H353.758L358.41 135.436H363.597L358.945 167.002Z" fill="#EDCCAF" stroke="#754A27" stroke-width="0.75" stroke-miterlimit="10"/>
<path d="M356.352 167.002H353.758L358.41 135.436H361.003L356.352 167.002Z" fill="#EDCCAF" stroke="#754A27" stroke-width="0.75" stroke-miterlimit="10"/>
<path d="M321.126 167.002H315.939L320.591 135.436H325.778L321.126 167.002Z" fill="#EDCCAF" stroke="#754A27" stroke-width="0.75" stroke-miterlimit="10"/>
<path d="M318.533 167.002H315.939L320.591 135.436H323.185L318.533 167.002Z" fill="#EDCCAF" stroke="#754A27" stroke-width="0.75" stroke-miterlimit="10"/>
<path d="M361.087 142.403H321.048C318.512 142.403 316.759 140.345 317.134 137.806L323.192 96.6963C324.057 90.8232 329.514 86.0625 335.38 86.0625H363.361C369.227 86.0625 373.28 90.8238 372.415 96.6963L366.357 137.806C365.981 140.346 363.623 142.403 361.087 142.403Z" fill="#1A224D"/>
<path d="M363.361 86.0625H357.201C363.067 86.0625 367.12 90.8238 366.255 96.6963L360.196 137.806C359.822 140.345 357.463 142.403 354.927 142.403H361.087C363.623 142.403 365.981 140.345 366.356 137.806L372.414 96.6963C373.279 90.8238 369.226 86.0625 363.361 86.0625Z" fill="#2D3B87"/>
<path d="M360.285 171.697H265.117L265.927 166.809C266.646 162.477 270.388 159.301 274.773 159.301H350.629C355.014 159.301 358.756 162.477 359.474 166.809L360.285 171.697Z" fill="#1A224D"/>
<path d="M360.285 171.696H265.117V177.408H360.285V171.696Z" fill="#EDCCAF" stroke="#754A27" stroke-width="0.75" stroke-miterlimit="10"/>
<path d="M360.285 245.517H356.505L350.715 177.408H357.491L360.285 245.517Z" fill="#EDCCAF" stroke="#754A27" stroke-width="0.75" stroke-miterlimit="10"/>
<path d="M348.483 177.408L354.273 245.517H356.505L350.715 177.408H348.483Z" fill="#EDCCAF" stroke="#754A27" stroke-width="0.75" stroke-miterlimit="10"/>
<path d="M341.918 245.517H338.138L332.349 177.408H339.124L341.918 245.517Z" fill="#EDCCAF" stroke="#754A27" stroke-width="0.75" stroke-miterlimit="10"/>
<path d="M330.116 177.408L335.906 245.517H338.138L332.349 177.408H330.116Z" fill="#EDCCAF" stroke="#754A27" stroke-width="0.75" stroke-miterlimit="10"/>
<path d="M264.521 245.517H268.301L274.09 177.408H267.315L264.521 245.517Z" fill="#EDCCAF" stroke="#754A27" stroke-width="0.75" stroke-miterlimit="10"/>
<path d="M276.322 177.408L270.532 245.517H268.3L274.09 177.408H276.322Z" fill="#EDCCAF" stroke="#754A27" stroke-width="0.75" stroke-miterlimit="10"/>
<path d="M282.888 245.517H286.668L292.457 177.408H285.682L282.888 245.517Z" fill="#EDCCAF" stroke="#754A27" stroke-width="0.75" stroke-miterlimit="10"/>
<path d="M294.69 177.408L288.9 245.517H286.668L292.457 177.408H294.69Z" fill="#EDCCAF" stroke="#754A27" stroke-width="0.75" stroke-miterlimit="10"/>
<path d="M50.2925 167.002H55.4795L50.8279 135.436H45.6409L50.2925 167.002Z" fill="#EDCCAF" stroke="#754A27" stroke-width="0.75" stroke-miterlimit="10"/>
<path d="M52.8863 167.002H55.4795L50.8279 135.436H48.2341L52.8863 167.002Z" fill="#EDCCAF" stroke="#754A27" stroke-width="0.75" stroke-miterlimit="10"/>
<path d="M88.1116 167.002H93.2987L88.6464 135.436H83.4594L88.1116 167.002Z" fill="#EDCCAF" stroke="#754A27" stroke-width="0.75" stroke-miterlimit="10"/>
<path d="M90.7048 167.002H93.2987L88.6464 135.436H86.0532L90.7048 167.002Z" fill="#EDCCAF" stroke="#754A27" stroke-width="0.75" stroke-miterlimit="10"/>
<path d="M48.1507 142.403H88.1899C90.7259 142.403 92.4781 140.345 92.1036 137.806L86.0454 96.6963C85.1801 90.8232 79.723 86.0625 73.8573 86.0625H45.8761C40.0104 86.0625 35.9566 90.8238 36.8226 96.6963L42.8808 137.806C43.256 140.346 45.6153 142.403 48.1507 142.403Z" fill="#1A224D"/>
<path d="M45.8766 86.0625H52.0361C46.1703 86.0625 42.1166 90.8238 42.9825 96.6963L49.0408 137.806C49.4153 140.345 51.7739 142.403 54.31 142.403H48.1505C45.6145 142.403 43.2558 140.345 42.8813 137.806L36.8231 96.6963C35.9578 90.8238 40.0109 86.0625 45.8766 86.0625Z" fill="#2D3B87"/>
<path d="M48.9528 171.697H144.121L143.311 166.809C142.592 162.477 138.85 159.301 134.465 159.301H58.6088C54.2233 159.301 50.481 162.477 49.7629 166.809L48.9528 171.697Z" fill="#1A224D"/>
<path d="M48.9524 177.408H144.12V171.697H48.9524V177.408Z" fill="#EDCCAF" stroke="#754A27" stroke-width="0.75" stroke-miterlimit="10"/>
<path d="M48.9528 245.517H52.7319L58.5221 177.408H51.7464L48.9528 245.517Z" fill="#EDCCAF" stroke="#754A27" stroke-width="0.75" stroke-miterlimit="10"/>
<path d="M60.754 177.408L54.9644 245.517H52.7319L58.5221 177.408H60.754Z" fill="#EDCCAF" stroke="#754A27" stroke-width="0.75" stroke-miterlimit="10"/>
<path d="M67.3201 245.517H71.0992L76.8893 177.408H70.1137L67.3201 245.517Z" fill="#EDCCAF" stroke="#754A27" stroke-width="0.75" stroke-miterlimit="10"/>
<path d="M79.1212 177.408L73.3317 245.517H71.0992L76.8894 177.408H79.1212Z" fill="#EDCCAF" stroke="#754A27" stroke-width="0.75" stroke-miterlimit="10"/>
<path d="M144.717 245.517H140.938L135.147 177.408H141.923L144.717 245.517Z" fill="#EDCCAF" stroke="#754A27" stroke-width="0.75" stroke-miterlimit="10"/>
<path d="M132.915 177.408L138.705 245.517H140.937L135.147 177.408H132.915Z" fill="#EDCCAF" stroke="#754A27" stroke-width="0.75" stroke-miterlimit="10"/>
<path d="M126.349 245.517H122.57L116.78 177.408H123.556L126.349 245.517Z" fill="#EDCCAF" stroke="#754A27" stroke-width="0.75" stroke-miterlimit="10"/>
<path d="M114.548 177.408L120.338 245.517H122.57L116.78 177.408H114.548Z" fill="#EDCCAF" stroke="#754A27" stroke-width="0.75" stroke-miterlimit="10"/>
<path d="M181.409 197.536L189.702 234.252L198.717 238.178V243.482H181.263C179.324 243.482 177.995 241.154 178.709 239.348C179.746 236.728 179.677 233.799 178.517 231.231L163.301 197.537H181.409V197.536Z" fill="#FF725C"/>
<path d="M181.409 197.536H163.301L167.563 206.976L182.799 203.688L181.409 197.536Z" fill="#D63D3A"/>
<path d="M133.913 200.387L102.501 228.632V240.596L97.0804 242.322L89.6714 225.748C89.3797 225.095 89.6024 224.322 90.2069 223.941C91.0695 223.396 92.4847 222.677 94.4524 222.227C95.3611 222.019 96.1718 221.506 96.7046 220.741L117.899 190.272L133.913 200.387Z" fill="#FF725C"/>
<path d="M110.927 200.296L128.378 205.364L133.913 200.387L117.899 190.273L110.927 200.296Z" fill="#D63D3A"/>
<path d="M122.08 137.099L160.872 152.578C167.333 155.156 172.294 160.505 174.384 167.147L185.015 200.928H160.96L144.839 168.412L108.682 149.676L122.08 137.099Z" fill="#A16E43"/>
<path d="M174.384 167.147C172.294 160.505 167.333 155.156 160.872 152.578L122.08 137.099L108.682 149.676L144.839 168.412L154.506 187.909C152.301 183.462 156.587 175.902 164.902 177.407C172.319 178.749 176.797 189.044 182.136 191.779L174.384 167.147Z" fill="#754A27"/>
<path d="M71.1557 140.799C71.1557 140.799 69.8003 146.224 71.772 151.654C73.4132 156.175 76.5471 159.301 85.4455 163.001C95.593 167.22 119.723 176.692 119.723 176.692L111.315 188.41L131.764 203.211C131.764 203.211 139.895 195.563 145.562 189.519C151.228 183.475 157.264 174.595 154.308 166.331C151.351 158.067 105.279 135.002 105.279 135.002H78.6698L71.1557 140.799Z" fill="#A16E43"/>
<path d="M119.723 176.692L127.081 167.424" stroke="#422A16" stroke-width="0.75" stroke-miterlimit="10"/>
<path d="M125.932 174.552L140.275 170.218" stroke="#422A16" stroke-width="0.75" stroke-miterlimit="10"/>
<path d="M104.16 137.917C104.16 137.917 104.601 136.637 105.162 135.002H78.6698L71.155 140.799C71.155 140.799 69.7996 146.224 71.7713 151.654C71.9782 152.223 72.2089 152.77 72.4717 153.299C74.0248 147.17 80.4385 151.5 86.0611 149.31C92.714 146.72 98.5035 136.852 104.16 137.917Z" fill="#754A27"/>
<path d="M88.5866 136.544C88.5866 136.544 89.7417 144.962 82.0271 146.581" stroke="#422A16" stroke-width="1.0813" stroke-miterlimit="10"/>
<path d="M120.924 170.218L124.989 161.151" stroke="#422A16" stroke-width="0.75" stroke-miterlimit="10"/>
<path d="M94.3776 236.276C94.3776 236.276 99.5442 233.689 103.609 234.675L103.892 238.971C103.977 240.253 104.876 241.343 106.123 241.646C107.635 242.013 109.627 242.613 110.872 243.447C111.609 243.941 111.243 245.097 110.357 245.097H100.56C98.9779 245.097 97.5542 244.136 96.9609 242.668L94.3776 236.276Z" fill="#1A224D"/>
<path d="M89.6714 225.748L88.5492 223.451L86.5237 224.831L95.4839 243.843C96.2704 245.513 97.949 246.578 99.7926 246.578H111.729V245.098L98.9844 243.803L89.6714 225.748Z" fill="#1A224D"/>
<path d="M192.82 243.482C192.82 243.482 194.036 238.548 196.87 236.636C196.87 236.636 207.171 239.832 207.171 243.482H192.82Z" fill="#1A224D"/>
<path d="M178.658 245.517H208.218V243.482H178.658V245.517Z" fill="#1A224D"/>
<path d="M129.747 50.5127C132.242 50.5127 134.783 48.4774 134.783 44.7311C134.783 41.4005 130.609 40.5223 128.816 41.9557C127.114 39.5968 123.095 39.8744 121.894 42.2794C120.509 40.0132 116.281 39.6889 114.63 42.7418C111.673 40.8453 109.699 42.7879 109.052 43.8055C108.405 44.8232 107.389 47.9683 110.391 49.2635C110.391 49.2635 110.51 57.5975 113.569 61.6405L129.747 50.5127Z" fill="#1A224D"/>
<path d="M91.9749 71.3267H133.12C137.801 71.3267 143.96 75.6137 147.286 81.1329C150.612 86.652 160.96 101.453 160.96 101.453H133.858L122.435 134.632C122.435 134.632 128.561 140.306 127.206 143.39C125.851 146.473 120.43 143.143 113.778 140.183C107.126 137.222 89.8403 136.226 80.1481 138.579C76.0826 139.566 72.4907 143.143 68.9896 144.006C65.4884 144.869 60.6844 144.376 64.2565 136.728C67.8293 129.081 74.4808 103.056 74.4808 103.056L52.7924 98.9975C52.7924 98.9975 54.8357 96.1491 58.8684 92.6955C62.9011 89.2419 64.2 87.3401 66.5968 83.3215C71.8948 74.4415 79.2861 71.3267 91.9749 71.3267Z" fill="#2F8A4D"/>
<path d="M129.747 50.5129H120.647C121.024 52.6667 119.629 54.0316 118.541 54.7487C117.869 53.9139 116.783 53.4258 115.582 53.6514C114.354 53.8817 113.36 54.8875 113.148 56.1209C112.864 57.7753 113.906 59.2239 115.377 59.6179L104.909 71.3272C108.728 76.6003 111.746 81.9037 118.645 81.0407C124.267 80.3368 123.819 71.3272 123.819 71.3272H122.032L123.788 66.9796L126.8 67.598C128.114 67.8677 129.393 67.006 129.638 65.685L130.393 61.6138H131.111C131.758 61.6138 132.236 61.0086 132.086 60.3784L129.747 50.5129Z" fill="#FF725C"/>
<path d="M123.819 71.3265H122.032L123.788 66.9789L126.8 67.5973C127.675 67.7769 128.527 67.4479 129.077 66.8224L120.564 63.8135C119.2 63.3313 117.724 64.1503 117.407 65.5633C116.933 67.6795 116.302 70.6003 115.981 72.529C115.463 75.6359 115.714 79.0632 120.777 80.2229C124.141 77.8423 123.819 71.3265 123.819 71.3265Z" fill="#D63D3A"/>
<path d="M114.629 56.7939C114.629 55.8809 115.368 55.1401 116.281 55.1401C117.193 55.1401 117.932 55.8802 117.932 56.7939" stroke="#D63D3A" stroke-width="0.75" stroke-miterlimit="10"/>
<path d="M129.076 55.7349C129.076 56.3197 128.796 56.794 128.45 56.794C128.103 56.794 127.822 56.3197 127.822 55.7349C127.822 55.1501 128.103 54.6758 128.45 54.6758C128.796 54.6758 129.076 55.1501 129.076 55.7349Z" fill="#1A224D"/>
<path d="M124.851 53.8885L128.816 53.2874" stroke="#1A224D" stroke-width="1.0813" stroke-miterlimit="10"/>
<path d="M128.416 63.2531C128.203 63.976 127.684 64.4589 127.255 64.3326C126.827 64.2063 126.653 63.5175 126.866 62.7946C127.079 62.0716 127.598 61.5881 128.027 61.7151C128.455 61.842 128.629 62.5308 128.416 63.2531Z" fill="white"/>
<path d="M83.3208 104.814L74.8204 103.86L73.9368 105.155C72.2765 111.495 67.213 130.401 64.2571 136.728C60.6843 144.376 65.489 144.869 68.9902 144.006C72.4913 143.143 76.0832 139.566 80.1487 138.579C84.5927 137.5 90.6332 137.127 96.5134 137.323C90.1451 136.943 87.8685 135.269 87.0164 133.306C86.0927 131.178 90.4348 128.218 90.0656 125.072C89.6957 121.927 85.7234 121.557 83.3208 117.765C80.9188 113.972 92.9295 93.6204 92.9295 93.6204L83.3208 104.814Z" fill="#1E5932"/>
<path d="M119.723 134.031C119.723 134.031 109.93 129.236 97.6415 126.923" stroke="#1E5932" stroke-width="1.0813" stroke-miterlimit="10"/>
<path d="M110.483 105.462C110.483 105.462 98.0712 113.226 90.7114 113.603" stroke="#1E5932" stroke-width="1.0813" stroke-miterlimit="10"/>
<path d="M90.7121 73.3308C97.6415 76.0443 96.6068 86.5544 94.1923 91.0921" stroke="#1E5932" stroke-width="1.0813" stroke-miterlimit="10"/>
<path d="M133.859 101.453L140.093 83.0752L150.582 101.453H133.859Z" fill="#1E5932"/>
<path d="M123.993 66.4873L131.903 68.6542C133.41 69.0673 134.733 69.9712 135.662 71.2283C140.387 77.6217 154.183 94.42 158.742 101.946C163.371 109.587 165.355 123.917 158.527 128.033C149.626 133.398 142.266 127.386 138.016 121.188C133.766 114.99 130.935 109.945 130.935 109.945L133.858 101.453H136.538L129.076 74.1023C129.076 74.1023 127.575 74.6575 126.19 74.1951L125.632 75.4358C125.337 76.0916 124.575 76.3936 123.912 76.1173L118.109 73.6998C117.642 73.505 117.452 72.9433 117.706 72.5045L120.306 68.0043C121.049 66.7182 122.563 66.0953 123.993 66.4873Z" fill="#FF725C"/>
<path d="M121.566 68.8752L119.083 74.1036" stroke="#D63D3A" stroke-miterlimit="10"/>
<path d="M123.056 70.0349L120.803 74.7785" stroke="#D63D3A" stroke-miterlimit="10"/>
<path d="M124.884 70.812L122.685 75.4425" stroke="#D63D3A" stroke-miterlimit="10"/>
<path d="M126.19 74.1946L124.884 73.7625L124.435 74.9347" stroke="#D63D3A" stroke-miterlimit="10"/>
<path d="M136.538 101.453L141.003 116.008" stroke="#D63D3A" stroke-miterlimit="10"/>
<path d="M136.538 101.453H133.859L130.935 109.945C130.935 109.945 131.699 111.303 133.02 113.467C134.592 112.195 136.856 110.607 139.122 109.874L136.538 101.453Z" fill="#D63D3A"/>
<path d="M85.0231 144.956C87.4014 142.957 88.019 140.06 88.019 140.06L71.7719 119.8L83.3208 104.815L56.4164 99.6763L50.5993 108.52C46.8169 114.27 48.288 121.989 53.9178 125.941L81.1803 145.078C82.3458 145.896 83.9331 145.873 85.0231 144.956Z" fill="#FF725C"/>
<path d="M71.7719 119.8L64.627 110.827" stroke="#D63D3A" stroke-miterlimit="10"/>
<path d="M81.7801 106.813L83.3202 104.815L56.4158 99.6763L50.9108 108.046C59.7882 105.134 76.8664 106.376 81.7801 106.813Z" fill="#D63D3A"/>
<path d="M91.7285 140.614L100.044 150.05" stroke="#422A16" stroke-width="0.75" stroke-miterlimit="10"/>
<path d="M178.541 130.111L175.089 120.47C174.834 119.759 174.923 118.938 175.417 118.367C176.006 117.686 176.292 116.738 176.051 115.72C175.8 114.657 174.937 113.795 173.873 113.549C171.926 113.099 170.196 114.568 170.196 116.442C170.196 117.169 170.459 117.829 170.894 118.342C171.389 118.927 171.503 119.747 171.244 120.468L167.791 130.111H178.541Z" fill="#FF9819"/>
<path d="M192.397 130.112L189.651 122.442C189.449 121.876 189.519 121.223 189.912 120.769C190.381 120.228 190.608 119.474 190.416 118.663C190.217 117.817 189.53 117.132 188.684 116.937C187.135 116.579 185.759 117.747 185.759 119.238C185.759 119.816 185.969 120.342 186.314 120.749C186.708 121.214 186.798 121.866 186.593 122.441L183.846 130.112H192.397Z" fill="#FF9819"/>
<path d="M225.166 130.112L222.419 122.442C222.217 121.876 222.287 121.223 222.68 120.769C223.149 120.228 223.376 119.474 223.185 118.663C222.985 117.817 222.299 117.132 221.452 116.937C219.903 116.579 218.527 117.747 218.527 119.238C218.527 119.816 218.737 120.342 219.082 120.749C219.477 121.214 219.567 121.866 219.361 122.441L216.615 130.112H225.166Z" fill="#FF4E3B"/>
<path d="M248.751 130.111L245.299 120.47C245.044 119.759 245.133 118.938 245.627 118.367C246.216 117.686 246.501 116.738 246.261 115.72C246.01 114.657 245.146 113.795 244.083 113.549C242.135 113.099 240.405 114.568 240.405 116.442C240.405 117.169 240.669 117.829 241.103 118.342C241.599 118.927 241.712 119.747 241.453 120.468L238.001 130.111H248.751Z" fill="#FF4E3B"/>
<mask id="mask0_125_1153" style="mask-type:luminance" maskUnits="userSpaceOnUse" x="140" y="5" width="68" height="61">
<path d="M158.815 10.9251C172.37 0.995821 191.398 3.94946 201.314 17.5217C211.231 31.094 208.281 50.1453 194.725 60.0745C182.618 68.9434 166.145 67.533 155.698 57.459L140.596 61.7277L149.488 48.9599C143.062 35.9402 146.707 19.7939 158.815 10.9251Z" fill="white"/>
</mask>
<g mask="url(#mask0_125_1153)">
<path d="M193.001 -4.66064L234.479 38.8177L159.729 84.3636L114.366 37.0225L193.001 -4.66064Z" fill="white"/>
</g>
<mask id="mask1_125_1153" style="mask-type:luminance" maskUnits="userSpaceOnUse" x="140" y="5" width="68" height="61">
<path d="M158.815 10.9251C172.37 0.995821 191.398 3.94946 201.314 17.5217C211.231 31.094 208.281 50.1453 194.725 60.0745C182.618 68.9434 166.145 67.533 155.698 57.459L140.596 61.7277L149.488 48.9599C143.062 35.9402 146.707 19.7939 158.815 10.9251Z" fill="white"/>
</mask>
<g mask="url(#mask1_125_1153)">
<path d="M155.536 69.2485L216.182 37.0979L227.58 46.6482L168.558 85.8159L155.536 69.2485Z" fill="#FF4E3B"/>
</g>
<mask id="mask2_125_1153" style="mask-type:luminance" maskUnits="userSpaceOnUse" x="140" y="5" width="68" height="61">
<path d="M158.815 10.9251C172.37 0.995821 191.398 3.94946 201.314 17.5217C211.231 31.094 208.281 50.1453 194.725 60.0745C182.618 68.9434 166.145 67.533 155.698 57.459L140.596 61.7277L149.488 48.9599C143.062 35.9402 146.707 19.7939 158.815 10.9251Z" fill="white"/>
</mask>
<g mask="url(#mask2_125_1153)">
<path d="M216.182 23.5862L213.699 11.3907L170.662 34.2061L161.136 25.7439L199.878 5.20586L182.37 -9.09595L121.656 23.2474L138.206 37.8998L149.815 31.7452L169.239 48.4724L216.182 23.5862Z" fill="#299C27"/>
</g>
<mask id="mask3_125_1153" style="mask-type:luminance" maskUnits="userSpaceOnUse" x="140" y="5" width="68" height="61">
<path d="M158.815 10.9251C172.37 0.995821 191.398 3.94946 201.314 17.5217C211.231 31.094 208.281 50.1453 194.725 60.0745C182.618 68.9434 166.145 67.533 155.698 57.459L140.596 61.7277L149.488 48.9599C143.062 35.9402 146.707 19.7939 158.815 10.9251Z" fill="white"/>
</mask>
<g mask="url(#mask3_125_1153)">
<path d="M115.603 49.8821L210.851 -0.611328" stroke="#1A224D" stroke-miterlimit="10"/>
<path d="M120.934 60.5679L216.182 10.0745" stroke="#1A224D" stroke-miterlimit="10"/>
<path d="M126.265 71.2534L221.513 20.76" stroke="#1A224D" stroke-miterlimit="10"/>
<path d="M131.597 81.9392L226.845 31.4458" stroke="#1A224D" stroke-miterlimit="10"/>
<path d="M212.915 38.8306L183.778 13.7405" stroke="#1A224D" stroke-miterlimit="10"/>
<path d="M201.593 44.8321L172.394 19.688" stroke="#1A224D" stroke-miterlimit="10"/>
<path d="M190.272 50.834L161.136 25.7439" stroke="#1A224D" stroke-miterlimit="10"/>
<path d="M178.935 56.8215L149.815 31.7451" stroke="#1A224D" stroke-miterlimit="10"/>
<path d="M196.391 87.6045L114.681 17.2407" stroke="#1A224D" stroke-miterlimit="10"/>
</g>
<path d="M185.494 34.8053L182.252 24.0354C182.878 23.5085 183.284 22.7283 183.284 21.8448C183.284 20.2581 182 18.9714 180.414 18.9714C178.829 18.9714 177.545 20.2581 177.545 21.8448C177.545 22.7276 177.951 23.5078 178.577 24.0354L175.335 34.8053C175.286 34.8915 175.256 34.9796 175.256 35.0698C175.256 35.9315 177.565 36.6295 180.414 36.6295C183.264 36.6295 185.573 35.9309 185.573 35.0698C185.573 34.9796 185.542 34.8915 185.494 34.8053Z" fill="#FF9819"/>
<path d="M164.808 33.0785L161.566 22.3086C162.192 21.7817 162.598 21.0015 162.598 20.118C162.598 18.5313 161.313 17.2446 159.729 17.2446C158.144 17.2446 156.859 18.5307 156.859 20.118C156.859 21.0008 157.265 21.781 157.892 22.3086L154.65 33.0785C154.601 33.1647 154.57 33.2528 154.57 33.343C154.57 34.2047 156.88 34.9027 159.729 34.9027C162.578 34.9027 164.888 34.204 164.888 33.343C164.887 33.2528 164.857 33.1647 164.808 33.0785Z" fill="#FF9819"/>
<path d="M196.713 42.504L193.472 31.7341C194.098 31.2072 194.504 30.427 194.504 29.5436C194.504 27.9569 193.219 26.6702 191.634 26.6702C190.049 26.6702 188.764 27.9562 188.764 29.5436C188.764 30.4264 189.171 31.2065 189.797 31.7341L186.555 42.504C186.507 42.5902 186.476 42.6784 186.476 42.7685C186.476 43.6296 188.785 44.3282 191.635 44.3282C194.484 44.3282 196.794 43.6296 196.794 42.7685C196.793 42.6784 196.762 42.5902 196.713 42.504Z" fill="#FF4E3B"/>
<path d="M240.524 212.991L236.432 231.793C235.98 233.867 234.639 235.637 232.766 236.631L226.481 239.966L227.22 243.482H242.822C244.531 243.482 245.796 241.892 245.415 240.224L244.992 238.378C244.498 236.219 244.667 233.961 245.477 231.9L252.905 212.992L240.524 212.991Z" fill="#FF725C"/>
<path d="M232.024 243.482C232.024 243.482 230.657 240.174 228.128 238.178C228.128 238.178 217.672 239.832 217.672 243.482H232.024Z" fill="#1A224D"/>
<path d="M246.185 243.482H216.625V245.517H246.185V243.482Z" fill="#1A224D"/>
<path d="M240.524 212.991L239.211 219.022L249.015 222.891L252.904 212.991H240.524Z" fill="#D63D3A"/>
<path d="M282.199 217.471L287.209 236.048C287.762 238.098 287.385 240.287 286.179 242.033L282.132 247.891L284.404 250.671L298.256 243.48C299.773 242.692 300.165 240.698 299.06 239.393L297.836 237.949C296.405 236.26 295.517 234.178 295.288 231.974L293.19 211.765L282.199 217.471Z" fill="#FF725C"/>
<path d="M288.67 248.456C288.67 248.456 285.936 246.15 282.774 245.543C282.774 245.543 274.252 251.83 275.93 255.071L288.67 248.456Z" fill="#1A224D"/>
<path d="M301.255 241.939L275.011 255.562L275.947 257.369L302.19 243.746L301.255 241.939Z" fill="#1A224D"/>
<path d="M282.199 217.471L283.806 223.429L294.289 222.345L293.19 211.765L282.199 217.471Z" fill="#D63D3A"/>
<path d="M316.025 139.149L270.414 139.831C261.491 139.964 253.87 146.313 252.116 155.074L239.6 217.605H260.296C260.296 217.605 262.144 214.249 261.774 209.624C261.404 204.999 263.252 197.783 267.502 191.863C271.752 185.942 270.459 181.824 270.829 177.408C271.199 172.992 276.557 162.816 276.557 162.816L321.644 160.78L316.025 139.149Z" fill="#2D3B87"/>
<path d="M321.643 160.78L316.025 139.148L270.414 139.83C261.491 139.963 253.87 146.312 252.117 155.073L244.234 194.455C247.189 179.69 268.611 164.062 270.829 177.407C271.199 172.991 276.557 162.815 276.557 162.815L321.643 160.78Z" fill="#1A224D"/>
<path d="M249.948 217.606L266.209 154.49H309.447" stroke="#1A224D" stroke-width="0.75" stroke-miterlimit="10"/>
<path d="M283.393 222.39C277.103 202.163 273.584 180.708 271.904 168.3C271.055 162.029 274.643 156.006 280.559 153.78C296.132 147.919 315.452 141.816 315.452 141.816L316.345 137.654L347.604 137.098C347.604 137.098 350.715 141.785 350.715 149.926C350.715 160.071 339.936 165.22 329.495 167.811C319.055 170.402 295.865 176.229 295.865 176.229C295.865 176.229 297.99 178.912 297.497 183.229C297.004 187.546 295.649 189.52 297.251 192.11C298.853 194.7 299.615 200.027 299.468 202.717C299.098 209.501 303.164 214.188 303.164 214.188L283.393 222.39Z" fill="#2D3B87"/>
<path d="M337.442 137.21L336.022 139.295C334.05 142.19 334.123 146.017 336.203 148.835L337.442 150.513" stroke="#1A224D" stroke-width="0.75" stroke-miterlimit="10"/>
<path d="M341.353 137.21C341.353 137.21 344.31 149.433 332.361 153.75C320.412 158.068 287.52 166.825 287.52 166.825C287.52 166.825 286.657 169.415 284.933 170.155L294.926 217.606" stroke="#1A224D" stroke-width="0.75" stroke-miterlimit="10"/>
<path d="M316.346 142.002L332.268 143.205" stroke="#1A224D" stroke-width="0.75" stroke-miterlimit="10"/>
<path d="M350.21 144.386H344.833V159.301" stroke="#1A224D" stroke-width="0.75" stroke-miterlimit="10"/>
<path d="M294.388 174.01L283.762 162.816" stroke="#1A224D" stroke-width="0.75" stroke-miterlimit="10"/>
<path d="M289.676 171.697L279.605 167.904" stroke="#1A224D" stroke-width="0.75" stroke-miterlimit="10"/>
<path d="M304.704 91.2772C300.485 92.4179 297.806 95.4709 295.034 98.2462C292.262 101.022 280.344 111.422 280.344 111.422L261.404 86.4692C261.404 86.4692 263.344 82.8899 262.79 81.3177C262.235 79.7449 260.064 76.3222 258.863 76.0446C257.662 75.767 256.691 76.1834 256.507 77.2471C255.074 77.0155 254.243 78.0799 254.335 78.866C253.088 78.9588 252.626 80.1613 252.672 80.6237C251.656 80.9474 251.563 82.4742 251.979 83.2603C252.395 84.0464 253.273 84.8792 254.197 84.8792C254.197 84.8792 253.781 88.117 256.321 88.2098C256.321 88.2098 259.003 99.4968 261.125 106.202C264.23 116.008 266.886 123.269 271.843 127.756C276.424 131.903 285.332 132.104 292.723 124.472C298.182 118.836 304.042 113.187 304.042 113.187L304.704 91.2772Z" fill="#FF725C"/>
<path d="M286.039 106.416C282.968 109.133 280.344 111.422 280.344 111.422L282.079 113.557C282.992 114.683 284.808 114.161 284.979 112.72C285.214 110.736 285.562 108.346 286.039 106.416Z" fill="#D63D3A"/>
<path d="M304.043 113.186L304.356 102.83L302.759 100.33C302.759 100.33 295.91 112.062 296.984 120.144C300.849 116.266 304.043 113.186 304.043 113.186Z" fill="#D63D3A"/>
<path d="M324.235 69.5349C326.789 68.4696 327.997 65.5327 326.933 62.9752C325.869 60.4177 322.936 59.208 320.382 60.2733C317.827 61.3386 316.619 64.2754 317.683 66.833C318.747 69.3905 321.68 70.6002 324.235 69.5349Z" fill="#1A224D"/>
<path d="M322.93 66.364C322.023 64.3392 320.272 62.9038 318.216 62.0447C317.646 62.8591 317.309 63.8491 317.309 64.9187C317.309 67.6895 319.552 69.9353 322.319 69.9353C322.791 69.9353 323.244 69.8656 323.677 69.7439C323.654 68.6223 323.433 67.4862 322.93 66.364Z" fill="#121836"/>
<path d="M312.192 89.3177L304.704 91.2774L303.904 98.1227C303.904 98.1227 299.284 105.832 300.454 111.937C301.624 118.042 308.338 120.509 308.338 120.509L315.052 136.235C315.052 136.235 313.389 136.79 313.389 138.086C313.389 139.381 315.114 139.134 317.208 139.134C319.302 139.134 342.03 139.134 346.342 139.134C350.654 139.134 349.422 135.989 348.313 134.756C347.933 134.333 347.142 133.326 346.266 132.182C343.889 129.082 342.651 125.26 342.775 121.353C343.016 113.741 343.405 101.2 343.447 98.493C343.509 94.5461 336.179 83.5683 334.27 83.692C332.36 83.8156 326.414 85.3806 324.279 85.9713C322.145 86.562 317.885 90.3406 317.885 90.3406L312.192 89.3177Z" fill="#A80F66"/>
<path d="M344.978 41.2068C341.862 40.226 339.064 40.2997 338.727 41.3719L334.577 54.587L345.858 58.1392L350.008 44.9242C350.345 43.8519 348.093 42.1876 344.978 41.2068Z" fill="#303F8F"/>
<path d="M345.858 58.1393C345.521 59.2115 342.723 59.2852 339.607 58.3044C336.492 57.3236 334.239 55.6593 334.576 54.587C334.914 53.5147 337.712 53.4411 340.827 54.4219C343.942 55.4027 346.195 57.067 345.858 58.1393Z" fill="#1A224D"/>
<path d="M305.336 78.6812C305.336 78.6812 301.456 81.4566 298.268 78.4496C295.08 75.4434 297.621 69.3374 304.597 68.0889C307.045 63.417 316.567 61.4277 320.812 66.2391C326.401 72.5759 319.783 83.384 319.783 83.384L305.336 78.6812Z" fill="#1A224D"/>
<path d="M321.275 86.8034L317.724 78.6668C319.109 78.5892 320.211 77.4511 320.211 76.0453C320.211 74.5896 319.032 73.4088 317.578 73.4088C316.273 73.4088 315.197 74.3613 314.989 75.6079C308.143 76.563 306.06 71.3577 306.06 71.3577C305.197 72.8378 303.226 75.675 303.226 75.675L304.197 78.4201C304.452 79.1417 304.505 79.9252 304.313 80.6659C304.021 81.7888 303.787 83.6952 304.828 85.4187C306.659 88.4506 311.111 86.714 311.111 86.714L312.192 89.3176L309.982 89.9294C309.982 89.9294 305.659 102.089 312.945 101.564C322.493 100.877 324.28 85.9719 324.28 85.9719L321.275 86.8034Z" fill="#FF725C"/>
<path d="M321.212 89.3037L315.867 93.3125" stroke="#D63D3A" stroke-miterlimit="10"/>
<path d="M318.224 116.008C321.551 118.875 328.018 118.968 332.638 116.378" stroke="#4F0730" stroke-miterlimit="10"/>
<path d="M334.27 83.6919C339.739 83.4255 361.648 82.3895 361.648 82.3895L349.37 57.6907C349.37 57.6907 348.079 58.0861 347.182 56.0027C346.285 53.9187 345.296 52.1781 345.296 52.1781C345.296 52.1781 340.676 52.0702 340.708 51.2059C340.734 50.4783 341.577 50.3046 341.577 50.3046C341.577 50.3046 340.645 50.1119 340.863 49.1252C341.018 48.4206 341.946 48.3851 341.946 48.3851C341.946 48.3851 341.136 47.9101 341.279 47.1661C341.415 46.4577 342.292 46.4267 342.292 46.4267C342.292 46.4267 341.461 45.5018 342.408 45.1473C342.972 44.9361 346.72 45.4486 347.539 46.0511C348.849 47.0155 352.178 53.2879 352.178 53.2879C352.178 53.2879 369.594 69.304 375.323 74.6172C381.051 79.9298 381.975 88.379 379.757 93.3127C377.54 98.2464 370.981 101.77 361.095 101.581C351.209 101.391 343.374 101.581 343.374 101.581C343.374 101.581 343.294 104.477 343.227 106.694C343.161 108.912 341.013 113.216 338.151 113.972C334.886 114.836 329.319 113.04 327.987 104.228C326.571 94.8546 327.423 84.0255 334.27 83.6919Z" fill="#FF725C"/>
<path d="M361.648 82.3894L365.529 90.3412" stroke="#D63D3A" stroke-miterlimit="10"/>
<path d="M342.292 46.4272L346.082 47.3456C346.616 47.4752 347.093 47.7751 347.441 48.2007L347.944 48.8165" stroke="#D63D3A" stroke-width="0.75" stroke-miterlimit="10"/>
<path d="M341.946 48.3848L345.383 48.9755C345.945 49.0722 346.457 49.3564 346.836 49.7813L347.544 50.574" stroke="#D63D3A" stroke-width="0.75" stroke-miterlimit="10"/>
<path d="M341.576 50.3047L344.865 50.5987C345.498 50.6553 346.087 50.9494 346.513 51.4223L346.904 51.8565" stroke="#D63D3A" stroke-width="0.75" stroke-miterlimit="10"/>
<path d="M334.023 101.581C332.361 101.577 332.638 103.658 334.393 106.695C335.669 108.902 335.561 111.58 334.726 113.9C335.958 114.249 337.16 114.235 338.151 113.972C341.012 113.216 343.161 108.912 343.227 106.694C343.294 104.476 343.374 101.581 343.374 101.581C339.752 101.581 335.687 101.585 334.023 101.581Z" fill="#D63D3A"/>
<path d="M260.192 77.0715L254.996 81.5033C254.654 81.7947 254.606 82.3059 254.888 82.6558C255.171 83.0084 255.685 83.0689 256.042 82.7913L258.416 80.9474" stroke="#D63D3A" stroke-miterlimit="10"/>
<path d="M257.467 81.6848C257.467 81.6848 255.799 84.5858 258.355 86.5902" stroke="#D63D3A" stroke-miterlimit="10"/>
<path d="M256.507 77.2473L257.644 79.2458" stroke="#D63D3A" stroke-miterlimit="10"/>
<path d="M254.336 78.8662L255.628 80.964" stroke="#D63D3A" stroke-miterlimit="10"/>
<path d="M252.673 80.6238L255.122 84.1379" stroke="#D63D3A" stroke-miterlimit="10"/>
<path d="M316.346 135.619L328.973 132.104" stroke="#4F0730" stroke-miterlimit="10"/>
<path d="M305.997 77.8511C306.146 78.4201 305.989 78.953 305.647 79.0424C305.306 79.1319 304.909 78.7431 304.76 78.1741C304.612 77.6051 304.769 77.0716 305.111 76.9828C305.452 76.8933 305.85 77.2821 305.997 77.8511Z" fill="#1A224D"/>
<path d="M309.532 76.8931C309.68 77.4621 309.523 77.9956 309.181 78.0844C308.84 78.1739 308.443 77.7851 308.294 77.2161C308.146 76.6471 308.303 76.1136 308.645 76.0248C308.986 75.9353 309.383 76.3241 309.532 76.8931Z" fill="#1A224D"/>
<path d="M306.925 76.9697L307.23 80.3003L308.913 79.3445" stroke="#D63D3A" stroke-width="0.75" stroke-miterlimit="10"/>
<path d="M306.925 81.7172L310.526 80.1147C310.526 80.1147 311.973 83.8769 310.526 84.586C309.078 85.2958 306.925 81.7172 306.925 81.7172Z" fill="white"/>
<path d="M311.11 86.7138C313.112 86.1277 314.067 84.9561 314.713 84.3088C315.36 83.6615 316.5 84.2779 315.422 85.6961C314.343 87.1144 314.768 89.6201 312.616 90.3411L311.11 86.7138Z" fill="#D63D3A"/>
<path d="M316.693 77.1643C316.364 76.9025 316.152 76.4986 316.152 76.0447C316.152 75.2559 316.79 74.6172 317.578 74.6172C317.914 74.6172 318.222 74.733 318.465 74.9277" stroke="#D63D3A" stroke-width="0.75" stroke-miterlimit="10"/>
<path d="M318.906 78.9253C318.906 79.4292 318.498 79.8378 317.994 79.8378C317.49 79.8378 317.082 79.4292 317.082 78.9253C317.082 78.4214 317.49 78.0129 317.994 78.0129C318.498 78.0129 318.906 78.4214 318.906 78.9253Z" fill="white"/>
<path d="M264.216 130.111H144.059V135.253H264.216V130.111Z" fill="#2D3B87"/>
<path d="M162.062 245.542H152.202L169.319 135.002H190.888L162.062 245.542Z" fill="#EDCCAF" stroke="#754A27" stroke-width="0.75" stroke-miterlimit="10"/>
<path d="M169.319 135.002L152.202 245.542H156.772L173.89 135.002H169.319Z" fill="#EDCCAF" stroke="#754A27" stroke-width="0.75" stroke-miterlimit="10"/>
<path d="M246.213 245.542H256.074L238.956 135.002H217.387L246.213 245.542Z" fill="#EDCCAF" stroke="#754A27" stroke-width="0.75" stroke-miterlimit="10"/>
<path d="M238.956 135.002L256.074 245.542H251.503L234.386 135.002H238.956Z" fill="#EDCCAF" stroke="#754A27" stroke-width="0.75" stroke-miterlimit="10"/>
<path d="M228.806 135.002H179.469V146.349H228.806V135.002Z" fill="#1A224D"/>
<path d="M337.306 39.7031L334.117 41.4049L335.688 44.6631L332.499 46.3643L334.069 49.6238L330.879 51.3302L332.448 54.593" stroke="#2D3B87" stroke-miterlimit="10"/>
<path d="M347.875 59.7022L350.979 57.8497L349.255 54.6705L352.359 52.818L350.635 49.6381L353.74 47.781L352.017 44.5972" stroke="#2D3B87" stroke-miterlimit="10"/>
</svg>
