<svg width="25" height="24" viewBox="0 0 25 24" fill="none" xmlns="http://www.w3.org/2000/svg">
<path d="M13.3985 17.6447L13.331 17.9349L13.5854 17.7797L15.3333 16.7134L17.0822 17.7797L17.3367 17.9349L17.269 17.6446L16.8013 15.6388L18.3393 14.3281L18.5659 14.1351L18.2694 14.1085L16.2576 13.9282L15.4481 12.0466L15.3332 11.7796L15.2184 12.0466L14.4098 13.9282L12.3971 14.1085L12.1006 14.1351L12.3272 14.3281L13.8653 15.6388L13.3985 17.6447ZM7.07425 14V13.875H6.94925H4.94925C4.79864 13.875 4.68399 13.828 4.59464 13.7386C4.50519 13.6492 4.45825 13.5348 4.45825 13.385V4.616C4.45825 4.46538 4.50529 4.35074 4.59464 4.26139C4.68409 4.17194 4.79845 4.125 4.94825 4.125H13.7183C13.8681 4.125 13.9824 4.17194 14.0719 4.26139C14.1612 4.35074 14.2083 4.46538 14.2083 4.616V6.616V6.741H14.3333H15.3333H15.4583V6.616V4.616C15.4583 4.1351 15.2879 3.7219 14.9496 3.38361L14.9495 3.38352C14.6107 3.0454 14.1979 2.875 13.7183 2.875H4.94925C4.46835 2.875 4.05515 3.04533 3.71686 3.38361L3.71677 3.38371C3.37865 3.72254 3.20825 4.13533 3.20825 4.615V13.385C3.20825 13.8653 3.37862 14.2781 3.71686 14.6164C4.05515 14.9547 4.46835 15.125 4.94925 15.125H6.94925H7.07425V15V14ZM9.71686 9.38361L9.71677 9.38371C9.37865 9.72254 9.20825 10.1353 9.20825 10.615V19.385C9.20825 19.8653 9.37862 20.2781 9.71686 20.6164C10.0551 20.9547 10.4684 21.125 10.9493 21.125H19.7183C20.1985 21.125 20.6114 20.9546 20.9496 20.6164L20.9497 20.6163C21.2879 20.2775 21.4583 19.8647 21.4583 19.385V10.616C21.4583 10.1351 21.2879 9.7219 20.9496 9.38361L20.9495 9.38352C20.6107 9.0454 20.1979 8.875 19.7183 8.875H10.9493C10.4684 8.875 10.0551 9.04533 9.71686 9.38361ZM19.7183 19.875H10.9493C10.7986 19.875 10.684 19.828 10.5946 19.7386C10.5052 19.6492 10.4583 19.5348 10.4583 19.385V10.616C10.4583 10.4654 10.5053 10.3507 10.5946 10.2614C10.6841 10.1719 10.7984 10.125 10.9483 10.125H19.7183C19.8681 10.125 19.9824 10.1719 20.0719 10.2614C20.1613 10.3508 20.2083 10.4652 20.2083 10.615V19.385C20.2083 19.5348 20.1613 19.6492 20.0719 19.7386C19.9824 19.8281 19.8681 19.875 19.7183 19.875Z" fill="#1ADC67" stroke="#1ADC67" stroke-width="0.25"/>
</svg>
