<svg width="400" height="308" viewBox="0 0 400 308" fill="none" xmlns="http://www.w3.org/2000/svg">
<g filter="url(#filter0_d_125_2062)">
<path d="M388.573 273.229H11.4258V273.848H388.573V273.229Z" fill="#19203F"/>
<path d="M265.576 273.229H42.5229V197.956C42.5229 187.975 54.5783 182.976 61.6288 190.034L76.7217 205.147C81.4331 209.858 89.1869 209.436 93.3605 204.24L101.861 193.656C106.418 187.98 115.083 188.092 119.485 193.885L136.476 216.233C141.432 222.757 151.483 221.914 155.288 214.654L160.341 205.025C164.343 197.385 175.114 196.959 179.713 204.256L188.181 217.7C192.456 224.486 202.267 224.705 206.834 218.116C209.056 214.916 212.542 213.304 216.028 213.304C219.423 213.304 222.812 214.825 225.056 217.882L265.576 273.229Z" fill="#CDE4F9"/>
<path d="M197.492 273.021C197.345 273.021 197.226 272.902 197.226 272.754V271.154C197.226 271.007 197.345 270.887 197.492 270.887C197.639 270.887 197.759 271.007 197.759 271.154V272.754C197.759 272.902 197.64 273.021 197.492 273.021Z" fill="#19203F"/>
<path d="M197.492 268.259C197.345 268.259 197.226 268.139 197.226 267.992V264.83C197.226 264.682 197.345 264.563 197.492 264.563C197.639 264.563 197.759 264.682 197.759 264.83V267.992C197.759 268.139 197.64 268.259 197.492 268.259ZM197.492 261.934C197.345 261.934 197.226 261.814 197.226 261.667V258.504C197.226 258.357 197.345 258.238 197.492 258.238C197.639 258.238 197.759 258.357 197.759 258.504V261.667C197.759 261.814 197.64 261.934 197.492 261.934ZM197.492 255.609C197.345 255.609 197.226 255.489 197.226 255.342V252.179C197.226 252.032 197.345 251.913 197.492 251.913C197.639 251.913 197.759 252.032 197.759 252.179V255.342C197.759 255.489 197.64 255.609 197.492 255.609ZM197.492 249.283C197.345 249.283 197.226 249.163 197.226 249.016V245.854C197.226 245.706 197.345 245.587 197.492 245.587C197.639 245.587 197.759 245.706 197.759 245.854V249.016C197.759 249.164 197.64 249.283 197.492 249.283ZM197.492 242.958C197.345 242.958 197.226 242.838 197.226 242.691V239.529C197.226 239.381 197.345 239.262 197.492 239.262C197.639 239.262 197.759 239.381 197.759 239.529V242.691C197.759 242.839 197.64 242.958 197.492 242.958ZM197.492 236.633C197.345 236.633 197.226 236.513 197.226 236.366V233.203C197.226 233.056 197.345 232.937 197.492 232.937C197.639 232.937 197.759 233.056 197.759 233.203V236.366C197.759 236.514 197.64 236.633 197.492 236.633ZM197.492 230.308C197.345 230.308 197.226 230.188 197.226 230.041V226.878C197.226 226.731 197.345 226.612 197.492 226.612C197.639 226.612 197.759 226.731 197.759 226.878V230.041C197.759 230.189 197.64 230.308 197.492 230.308ZM197.492 223.982C197.345 223.982 197.226 223.862 197.226 223.715V220.553C197.226 220.405 197.345 220.286 197.492 220.286C197.639 220.286 197.759 220.405 197.759 220.553V223.715C197.759 223.863 197.64 223.982 197.492 223.982ZM197.492 217.657C197.345 217.657 197.226 217.537 197.226 217.39V214.228C197.226 214.08 197.345 213.961 197.492 213.961C197.639 213.961 197.759 214.08 197.759 214.228V217.39C197.759 217.538 197.64 217.657 197.492 217.657ZM197.492 211.332C197.345 211.332 197.226 211.212 197.226 211.065V207.902C197.226 207.755 197.345 207.636 197.492 207.636C197.639 207.636 197.759 207.755 197.759 207.902V211.065C197.759 211.213 197.64 211.332 197.492 211.332ZM197.492 205.007C197.345 205.007 197.226 204.887 197.226 204.74V201.577C197.226 201.43 197.345 201.311 197.492 201.311C197.639 201.311 197.759 201.43 197.759 201.577V204.74C197.759 204.887 197.64 205.007 197.492 205.007ZM197.492 198.682C197.345 198.682 197.226 198.562 197.226 198.415V195.252C197.226 195.105 197.345 194.986 197.492 194.986C197.639 194.986 197.759 195.105 197.759 195.252V198.415C197.759 198.562 197.64 198.682 197.492 198.682Z" fill="#19203F"/>
<path d="M197.492 192.356C197.345 192.356 197.226 192.237 197.226 192.09V190.489C197.226 190.342 197.345 190.223 197.492 190.223C197.639 190.223 197.759 190.342 197.759 190.489V192.09C197.759 192.237 197.64 192.356 197.492 192.356Z" fill="#19203F"/>
<path d="M149.666 274.115C149.519 274.115 149.399 273.996 149.399 273.848V270.648C149.399 270.5 149.519 270.381 149.666 270.381C149.813 270.381 149.932 270.5 149.932 270.648V273.848C149.933 273.996 149.814 274.115 149.666 274.115ZM149.666 267.713C149.519 267.713 149.399 267.594 149.399 267.446V264.246C149.399 264.098 149.519 263.979 149.666 263.979C149.813 263.979 149.932 264.098 149.932 264.246V267.446C149.933 267.594 149.814 267.713 149.666 267.713ZM149.666 261.312C149.519 261.312 149.399 261.192 149.399 261.045V257.844C149.399 257.697 149.519 257.577 149.666 257.577C149.813 257.577 149.932 257.697 149.932 257.844V261.045C149.933 261.192 149.814 261.312 149.666 261.312ZM149.666 254.909C149.519 254.909 149.399 254.79 149.399 254.643V251.442C149.399 251.295 149.519 251.175 149.666 251.175C149.813 251.175 149.932 251.295 149.932 251.442V254.643C149.933 254.791 149.814 254.909 149.666 254.909ZM149.666 248.508C149.519 248.508 149.399 248.389 149.399 248.241V245.041C149.399 244.893 149.519 244.774 149.666 244.774C149.813 244.774 149.932 244.893 149.932 245.041V248.241C149.933 248.389 149.814 248.508 149.666 248.508ZM149.666 242.107C149.519 242.107 149.399 241.987 149.399 241.84V238.638C149.399 238.491 149.519 238.372 149.666 238.372C149.813 238.372 149.932 238.491 149.932 238.638V241.839C149.933 241.987 149.814 242.107 149.666 242.107ZM149.666 235.704C149.519 235.704 149.399 235.585 149.399 235.438V232.237C149.399 232.09 149.519 231.97 149.666 231.97C149.813 231.97 149.932 232.09 149.932 232.237V235.438C149.933 235.586 149.814 235.704 149.666 235.704ZM149.666 229.303C149.519 229.303 149.399 229.183 149.399 229.036V225.836C149.399 225.688 149.519 225.569 149.666 225.569C149.813 225.569 149.932 225.688 149.932 225.836V229.036C149.933 229.183 149.814 229.303 149.666 229.303ZM149.666 222.901C149.519 222.901 149.399 222.781 149.399 222.634V219.433C149.399 219.286 149.519 219.167 149.666 219.167C149.813 219.167 149.932 219.286 149.932 219.433V222.634C149.933 222.782 149.814 222.901 149.666 222.901ZM149.666 216.499C149.519 216.499 149.399 216.38 149.399 216.233V213.032C149.399 212.885 149.519 212.765 149.666 212.765C149.813 212.765 149.932 212.885 149.932 213.032V216.233C149.933 216.38 149.814 216.499 149.666 216.499ZM149.666 210.098C149.519 210.098 149.399 209.978 149.399 209.831V206.63C149.399 206.483 149.519 206.364 149.666 206.364C149.813 206.364 149.932 206.483 149.932 206.63V209.831C149.933 209.978 149.814 210.098 149.666 210.098Z" fill="#19203F"/>
<path d="M109.15 272.39C109.002 272.39 108.883 272.271 108.883 272.124V268.923C108.883 268.776 109.002 268.656 109.15 268.656C109.297 268.656 109.416 268.776 109.416 268.923V272.124C109.416 272.271 109.297 272.39 109.15 272.39ZM109.15 265.989C109.002 265.989 108.883 265.869 108.883 265.722V262.521C108.883 262.374 109.002 262.255 109.15 262.255C109.297 262.255 109.416 262.374 109.416 262.521V265.722C109.416 265.869 109.297 265.989 109.15 265.989ZM109.15 259.587C109.002 259.587 108.883 259.467 108.883 259.32V256.119C108.883 255.972 109.002 255.853 109.15 255.853C109.297 255.853 109.416 255.972 109.416 256.119V259.32C109.416 259.468 109.297 259.587 109.15 259.587ZM109.15 253.185C109.002 253.185 108.883 253.066 108.883 252.919V249.718C108.883 249.571 109.002 249.451 109.15 249.451C109.297 249.451 109.416 249.571 109.416 249.718V252.919C109.416 253.066 109.297 253.185 109.15 253.185ZM109.15 246.784C109.002 246.784 108.883 246.664 108.883 246.517V243.316C108.883 243.169 109.002 243.05 109.15 243.05C109.297 243.05 109.416 243.169 109.416 243.316V246.517C109.416 246.664 109.297 246.784 109.15 246.784ZM109.15 240.382C109.002 240.382 108.883 240.262 108.883 240.115V236.914C108.883 236.767 109.002 236.648 109.15 236.648C109.297 236.648 109.416 236.767 109.416 236.914V240.115C109.416 240.263 109.297 240.382 109.15 240.382ZM109.15 233.98C109.002 233.98 108.883 233.861 108.883 233.714V230.513C108.883 230.366 109.002 230.246 109.15 230.246C109.297 230.246 109.416 230.366 109.416 230.513V233.714C109.416 233.861 109.297 233.98 109.15 233.98ZM109.15 227.578C109.002 227.578 108.883 227.459 108.883 227.311V224.111C108.883 223.964 109.002 223.844 109.15 223.844C109.297 223.844 109.416 223.964 109.416 224.111V227.311C109.416 227.459 109.297 227.578 109.15 227.578ZM109.15 221.177C109.002 221.177 108.883 221.057 108.883 220.91V217.709C108.883 217.562 109.002 217.443 109.15 217.443C109.297 217.443 109.416 217.562 109.416 217.709V220.91C109.416 221.057 109.297 221.177 109.15 221.177ZM109.15 214.775C109.002 214.775 108.883 214.656 108.883 214.509V211.308C108.883 211.161 109.002 211.041 109.15 211.041C109.297 211.041 109.416 211.161 109.416 211.308V214.509C109.416 214.656 109.297 214.775 109.15 214.775ZM109.15 208.373C109.002 208.373 108.883 208.254 108.883 208.106V204.906C108.883 204.758 109.002 204.639 109.15 204.639C109.297 204.639 109.416 204.758 109.416 204.906V208.106C109.416 208.254 109.297 208.373 109.15 208.373ZM109.15 201.972C109.002 201.972 108.883 201.852 108.883 201.705V198.504C108.883 198.357 109.002 198.238 109.15 198.238C109.297 198.238 109.416 198.357 109.416 198.504V201.705C109.416 201.852 109.297 201.972 109.15 201.972ZM109.15 195.57C109.002 195.57 108.883 195.45 108.883 195.303V192.102C108.883 191.955 109.002 191.835 109.15 191.835C109.297 191.835 109.416 191.955 109.416 192.102V195.303C109.416 195.451 109.297 195.57 109.15 195.57ZM109.15 189.168C109.002 189.168 108.883 189.049 108.883 188.901V185.701C108.883 185.553 109.002 185.434 109.15 185.434C109.297 185.434 109.416 185.553 109.416 185.701V188.901C109.416 189.049 109.297 189.168 109.15 189.168ZM109.15 182.767C109.002 182.767 108.883 182.647 108.883 182.5V179.299C108.883 179.152 109.002 179.032 109.15 179.032C109.297 179.032 109.416 179.152 109.416 179.299V182.5C109.416 182.647 109.297 182.767 109.15 182.767Z" fill="#19203F"/>
<path d="M265.576 273.497C265.429 273.497 265.31 273.377 265.31 273.23V270.029C265.31 269.882 265.429 269.763 265.576 269.763C265.723 269.763 265.842 269.882 265.842 270.029V273.23C265.842 273.377 265.724 273.497 265.576 273.497ZM265.576 267.095C265.429 267.095 265.31 266.975 265.31 266.828V263.627C265.31 263.48 265.429 263.361 265.576 263.361C265.723 263.361 265.842 263.48 265.842 263.627V266.828C265.842 266.976 265.724 267.095 265.576 267.095ZM265.576 260.693C265.429 260.693 265.31 260.574 265.31 260.426V257.226C265.31 257.079 265.429 256.959 265.576 256.959C265.723 256.959 265.842 257.079 265.842 257.226V260.426C265.842 260.574 265.724 260.693 265.576 260.693ZM265.576 254.291C265.429 254.291 265.31 254.172 265.31 254.024V250.824C265.31 250.676 265.429 250.557 265.576 250.557C265.723 250.557 265.842 250.676 265.842 250.824V254.024C265.842 254.172 265.724 254.291 265.576 254.291ZM265.576 247.89C265.429 247.89 265.31 247.77 265.31 247.623V244.422C265.31 244.275 265.429 244.155 265.576 244.155C265.723 244.155 265.842 244.275 265.842 244.422V247.623C265.842 247.77 265.724 247.89 265.576 247.89ZM265.576 241.488C265.429 241.488 265.31 241.369 265.31 241.221V238.021C265.31 237.874 265.429 237.754 265.576 237.754C265.723 237.754 265.842 237.874 265.842 238.021V241.221C265.842 241.369 265.724 241.488 265.576 241.488ZM265.576 235.086C265.429 235.086 265.31 234.967 265.31 234.819V231.619C265.31 231.471 265.429 231.352 265.576 231.352C265.723 231.352 265.842 231.471 265.842 231.619V234.819C265.842 234.967 265.724 235.086 265.576 235.086ZM265.576 228.685C265.429 228.685 265.31 228.565 265.31 228.418V225.217C265.31 225.07 265.429 224.95 265.576 224.95C265.723 224.95 265.842 225.07 265.842 225.217V228.418C265.842 228.565 265.724 228.685 265.576 228.685Z" fill="#19203F"/>
<path d="M197.759 193.462C199.862 193.462 201.568 191.755 201.568 189.649C201.568 187.543 199.862 185.836 197.759 185.836C195.655 185.836 193.949 187.543 193.949 189.649C193.949 191.755 195.655 193.462 197.759 193.462Z" fill="#FF5F5F"/>
<path d="M265.842 229.382C267.946 229.382 269.652 227.675 269.652 225.569C269.652 223.463 267.946 221.756 265.842 221.756C263.739 221.756 262.033 223.463 262.033 225.569C262.033 227.675 263.739 229.382 265.842 229.382Z" fill="#4B72BF"/>
<path d="M149.933 210.863C152.037 210.863 153.742 209.156 153.742 207.05C153.742 204.944 152.037 203.237 149.933 203.237C147.829 203.237 146.124 204.944 146.124 207.05C146.124 209.156 147.829 210.863 149.933 210.863Z" fill="#4B72BF"/>
<path d="M109.15 183.843C111.253 183.843 112.959 182.136 112.959 180.03C112.959 177.924 111.253 176.217 109.15 176.217C107.046 176.217 105.34 177.924 105.34 180.03C105.34 182.136 107.046 183.843 109.15 183.843Z" fill="#FF5F5F"/>
<path d="M162.819 122.421L161.487 122.395C162.707 122.417 163.688 123.435 163.666 124.651C163.656 125.259 163.394 125.809 162.984 126.209C162.579 126.604 162.02 126.844 161.407 126.833L160.33 126.812V126.833C161.402 127.004 162.217 127.948 162.201 129.063C162.191 129.671 161.929 130.221 161.519 130.616C161.183 130.946 160.741 131.165 160.25 131.224L152.277 131.101C150.86 131.074 149.527 130.674 148.381 129.996L139.007 129.826L139.268 115.257L145.306 116.462C145.376 116.318 145.445 116.18 145.525 116.041C145.978 115.241 146.564 114.526 147.246 113.929C148.77 112.318 150.63 111.064 152.703 110.253C153.002 110.135 153.306 110.024 153.615 109.928L155.251 109.41C155.357 109.362 155.475 109.325 155.587 109.304C155.768 109.261 155.944 109.24 156.13 109.245C156.701 109.256 157.26 109.485 157.676 109.912C157.756 109.992 157.83 110.083 157.9 110.179L160.197 113.422L162.611 113.609C163.826 113.631 164.807 114.649 164.785 115.865C164.775 116.473 164.513 117.023 164.108 117.423C163.815 117.706 163.442 117.909 163.026 117.999C164.183 118.079 165.094 119.066 165.073 120.245C165.063 120.853 164.801 121.403 164.396 121.797C163.981 122.192 163.427 122.432 162.819 122.421Z" fill="#F79654"/>
<path d="M162.883 122.501C162.873 122.624 162.766 122.714 162.649 122.704L158.673 122.415L156.77 122.277C156.684 122.271 156.599 122.261 156.519 122.245C156.21 122.191 155.922 122.074 155.666 121.914C155.027 121.519 154.595 120.837 154.526 120.063C154.516 119.935 154.516 119.807 154.526 119.674V119.658C154.585 118.905 154.985 118.26 155.566 117.859C156.002 117.55 156.546 117.385 157.122 117.428L157.703 117.47L158.278 117.513C158.316 117.518 158.353 117.529 158.385 117.55C158.395 117.561 158.411 117.572 158.422 117.582C158.465 117.625 158.486 117.684 158.481 117.753C158.475 117.871 158.369 117.966 158.246 117.956L158.182 117.95L157.09 117.87C155.998 117.79 155.049 118.612 154.969 119.705C154.883 120.804 155.71 121.754 156.802 121.834L158.683 121.973L162.68 122.266C162.798 122.272 162.894 122.384 162.883 122.501Z" fill="#19203F"/>
<path d="M160.554 126.806C160.544 126.929 160.437 127.019 160.314 127.014L158.481 126.881L156.041 126.7C156.03 126.7 156.025 126.7 156.014 126.694C155.657 126.668 155.321 126.56 155.023 126.385C154.783 126.251 154.57 126.076 154.383 125.862C154.047 125.473 153.845 124.992 153.802 124.491C153.792 124.357 153.792 124.229 153.797 124.096C153.877 123.013 154.66 122.143 155.668 121.914C155.902 121.855 156.147 121.834 156.398 121.855C156.521 121.861 156.611 121.967 156.601 122.09C156.595 122.154 156.569 122.213 156.521 122.245C156.478 122.282 156.425 122.298 156.366 122.293C155.274 122.213 154.319 123.039 154.239 124.133C154.202 124.656 154.373 125.168 154.719 125.574C155.044 125.947 155.492 126.187 155.977 126.246C156.009 126.251 156.041 126.256 156.073 126.256L158.508 126.437L160.347 126.571C160.469 126.583 160.559 126.684 160.554 126.806Z" fill="#19203F"/>
<path d="M158.444 131.042C158.433 131.16 158.327 131.256 158.209 131.245L158.092 131.24L155.62 131.111C154.415 131.021 153.482 130.066 153.382 128.898C153.371 128.769 153.371 128.641 153.376 128.508C153.45 127.505 154.127 126.689 155.023 126.385C155.321 126.283 155.641 126.241 155.977 126.262C156.099 126.273 156.19 126.38 156.179 126.503C156.169 126.604 156.105 126.679 156.014 126.695C155.993 126.705 155.966 126.705 155.945 126.705C154.852 126.625 153.898 127.452 153.818 128.54C153.738 129.639 154.559 130.589 155.652 130.669L158.14 130.797L158.242 130.802C158.359 130.813 158.454 130.919 158.444 131.042Z" fill="#19203F"/>
<path d="M157.703 117.471L157.122 117.428C156.546 117.386 156.002 117.551 155.565 117.86C155.949 116.755 155.938 115.71 155.842 114.984L157.703 117.471Z" fill="#4B72BF"/>
<path d="M161.098 117.961C160.368 118.505 159.43 118.58 158.652 118.228C158.487 118.158 158.327 118.063 158.183 117.951C158.002 117.817 157.842 117.657 157.703 117.471L155.844 114.984C155.94 115.71 155.95 116.755 155.567 117.86C155.354 118.452 155.028 119.065 154.527 119.658C154.218 120.031 153.834 120.394 153.371 120.735V120.741C153.371 120.741 153.371 120.741 153.366 120.741C152.833 121.136 152.193 121.504 151.42 121.829C151.308 121.878 151.18 121.824 151.132 121.712C151.122 121.69 151.116 121.669 151.116 121.648C151.106 121.552 151.159 121.461 151.25 121.424C152.113 121.061 152.811 120.639 153.366 120.196C156.451 117.7 155.273 114.285 155.215 114.12C155.177 114.019 155.22 113.902 155.316 113.848C155.412 113.794 155.535 113.826 155.599 113.912L158.055 117.203C158.151 117.337 158.263 117.448 158.386 117.55C158.396 117.561 158.412 117.572 158.423 117.582C158.493 117.636 158.562 117.684 158.642 117.726C159.308 118.121 160.177 118.1 160.832 117.609C161.711 116.953 161.892 115.704 161.237 114.824L158.146 110.689L157.709 110.102C157.634 110.006 157.655 109.867 157.751 109.793C157.847 109.723 157.98 109.739 158.055 109.825C158.061 109.825 158.061 109.83 158.066 109.835L161.589 114.562C162.393 115.636 162.169 117.161 161.098 117.961Z" fill="#19203F"/>
<path d="M140.848 113.459H107.83L80.3859 94.1465C76.0505 91.0967 70.0677 92.1414 67.0209 96.4799C63.9742 100.818 65.0179 106.808 69.352 109.858L99.2788 130.917C100.894 132.053 102.821 132.664 104.796 132.664H140.848V113.459Z" fill="#FF5F5F"/>
<path d="M104.163 120.362C104.125 120.362 104.086 120.354 104.049 120.336C103.916 120.273 103.859 120.115 103.922 119.981L106.49 114.543C106.553 114.41 106.712 114.353 106.845 114.415C106.978 114.479 107.035 114.637 106.972 114.771L104.404 120.209C104.359 120.306 104.264 120.362 104.163 120.362Z" fill="#19203F"/>
<path d="M140.848 114.163V131.861H143.248L143.889 114.163H140.848Z" fill="white"/>
<path d="M74.8676 65.1741V76.5848H53.0326L52.4461 66.913C52.1901 62.6823 55.5476 59.1138 59.7846 59.1138H68.6418L73.4972 53.0481C73.4972 53.0481 78.107 53.5119 78.4215 58.5373C78.7366 63.5626 74.8676 65.1741 74.8676 65.1741Z" fill="#19203F"/>
<path d="M55.0164 71.4494V77.8779C55.0164 78.027 55.0219 78.1822 55.0219 78.3369C55.0324 78.4859 55.0434 78.6356 55.0539 78.7847C55.0699 78.9449 55.0859 79.0995 55.1124 79.2596C55.1339 79.4198 55.1548 79.5744 55.1868 79.7346C55.2613 80.1504 55.3628 80.5563 55.4908 80.9561C55.5228 81.0577 55.5548 81.1588 55.5868 81.2549C55.6084 81.3084 55.6293 81.367 55.6508 81.4255V81.431C55.6724 81.4846 55.6933 81.5376 55.7148 81.5961C57.0791 85.1012 60.3142 87.6988 64.2527 87.9711C66.5548 88.1313 68.7081 87.4912 70.4668 86.3067C73.1154 84.5141 74.8687 81.484 74.8687 78.0646V65.176H60.3087C60.1277 68.1316 58.5284 70.8734 56.0502 72.5114C55.8157 72.0629 55.4484 71.7001 55.0164 71.4494Z" fill="#F79654"/>
<path d="M70.4687 86.3029V92.0182H55.0078V81.4648L55.6515 81.4248C55.673 81.4802 55.6946 81.5381 55.7161 81.5936C57.0804 85.0992 60.3161 87.6988 64.2534 87.9723C66.5561 88.1293 68.7118 87.4912 70.4687 86.3029Z" fill="#F79654"/>
<path d="M50.1186 77.0241C50.822 79.222 52.7568 80.977 55.006 81.4679L55.6509 81.4254C55.6294 81.3669 55.6085 81.3078 55.5869 81.2548C55.5549 81.1587 55.5229 81.0577 55.4909 80.956C55.3629 80.5556 55.262 80.1503 55.1869 79.7345C55.1549 79.5744 55.1334 79.4197 55.1125 79.2596C55.0909 79.105 55.07 78.9448 55.0589 78.7847C55.0429 78.6356 55.0325 78.4859 55.0214 78.3368C55.0214 78.1822 55.0159 78.0276 55.0159 77.8779V71.4493C54.3869 71.081 53.614 70.9374 52.8946 71.0705C52.7562 71.097 52.6177 71.1345 52.4897 71.177C52.3512 71.2196 52.2177 71.2731 52.0897 71.3372C51.8922 71.4333 51.7057 71.5399 51.5352 71.668C51.5192 71.6735 51.5088 71.684 51.4928 71.6945L51.4768 71.705C50.9069 72.1368 50.4534 72.7238 50.182 73.3799C49.7088 74.5275 49.7408 75.8451 50.1186 77.0241Z" fill="#F79654"/>
<path d="M71.718 74.9543C72.5184 74.9543 73.1673 74.3048 73.1673 73.5037C73.1673 72.7025 72.5184 72.053 71.718 72.053C70.9176 72.053 70.2688 72.7025 70.2688 73.5037C70.2688 74.3048 70.9176 74.9543 71.718 74.9543Z" fill="#19203F"/>
<path d="M70.9402 71.2639H72.4959C72.8472 71.2639 73.1352 70.9756 73.1352 70.6239C73.1352 70.2722 72.8472 69.9839 72.4959 69.9839H70.9402C70.5888 69.9839 70.3008 70.2722 70.3008 70.6239C70.3008 70.9756 70.5882 71.2639 70.9402 71.2639Z" fill="#19203F"/>
<path d="M63.7532 74.9543C64.5536 74.9543 65.2024 74.3048 65.2024 73.5037C65.2024 72.7025 64.5536 72.053 63.7532 72.053C62.9528 72.053 62.304 72.7025 62.304 73.5037C62.304 74.3048 62.9528 74.9543 63.7532 74.9543Z" fill="#19203F"/>
<path d="M62.9753 71.2639H64.531C64.8824 71.2639 65.1704 70.9756 65.1704 70.6239C65.1704 70.2722 64.8824 69.9839 64.531 69.9839H62.9753C62.6239 69.9839 62.3359 70.2722 62.3359 70.6239C62.3359 70.9756 62.6233 71.2639 62.9753 71.2639Z" fill="#19203F"/>
<path d="M59.2989 80.2869C60.6876 80.2869 61.8133 79.16 61.8133 77.7699C61.8133 76.3798 60.6876 75.2529 59.2989 75.2529C57.9102 75.2529 56.7844 76.3798 56.7844 77.7699C56.7844 79.16 57.9102 80.2869 59.2989 80.2869Z" fill="#19203F"/>
<path d="M57.9746 85.0796C57.9746 85.0796 60.6201 88.0111 64.4792 87.9871C68.3383 87.9637 70.4675 86.3048 70.4675 86.3048V90.44C70.4675 90.44 63.2712 92.6792 57.9746 85.0796Z" fill="#19203F"/>
<path d="M68.7838 72.8635L67.7808 79.0032H70.5605L68.7838 72.8635Z" fill="#19203F"/>
<path d="M53.1962 72.8567C54.3033 73.3902 54.3421 74.7047 54.2953 75.7692C54.2916 75.8585 54.2048 75.9447 54.1174 75.9558C53.379 76.0445 52.7476 76.6735 52.7138 77.4311C52.6805 78.187 53.2848 78.8849 54.0171 79.0124C54.2854 79.0592 54.2405 79.4824 53.9698 79.4356C53.0276 79.2724 52.2811 78.4272 52.2891 77.4582C52.2965 76.5515 53.011 75.7624 53.8781 75.5733C53.9094 74.7811 53.9002 73.8466 53.1913 73.3464C52.4541 72.8253 51.7058 73.4462 51.5901 74.2242C51.5501 74.4941 51.1267 74.4485 51.1673 74.1768C51.3113 73.2195 52.2122 72.3824 53.1962 72.8567Z" fill="#19203F"/>
<path d="M67.3407 78.9091C68.3752 78.8857 69.4097 78.8623 70.4441 78.8389C69.8324 76.7802 69.2201 74.7216 68.6084 72.6629C68.5309 72.4011 68.9512 72.337 69.0281 72.5964C69.6638 74.7345 70.2989 76.8726 70.9346 79.0108C70.9789 79.1592 70.8195 79.2528 70.7007 79.2553L67.2927 79.3323C67.0207 79.3379 67.07 78.9147 67.3407 78.9091Z" fill="#19203F"/>
<path d="M64.7167 82.3961C65.6527 82.3961 66.4115 81.6366 66.4115 80.6996C66.4115 79.7627 65.6527 79.0032 64.7167 79.0032C63.7807 79.0032 63.022 79.7627 63.022 80.6996C63.022 81.6366 63.7807 82.3961 64.7167 82.3961Z" fill="#19203F"/>
<path d="M22.5532 261.836H50.4474L50.6948 208.132L66.6886 137.378H38.7951L23.0929 206.451L22.5532 261.836Z" fill="#19203F"/>
<path d="M70.1266 261.836H98.0201L97.7001 207.24L83.1389 135.851H55.2454L69.8552 208.133L70.1266 261.836Z" fill="#19203F"/>
<path d="M70.1267 261.836H98.0202C98.0202 261.836 112.202 260.505 112.202 273.37H70.1267V261.836Z" fill="#19203F"/>
<path d="M98.0201 262.101H70.1266C69.9795 262.101 69.8601 261.983 69.8601 261.835C69.8601 261.687 69.9795 261.568 70.1266 261.568H98.0201C98.1672 261.568 98.2866 261.687 98.2866 261.835C98.2866 261.983 98.1672 262.101 98.0201 262.101Z" fill="white"/>
<path d="M99.2023 264.287C99.1826 264.287 99.1623 264.284 99.142 264.279C96.0306 263.559 93.2515 261.315 91.889 258.424C91.3758 257.334 91.4355 256.394 92.049 255.908C92.6238 255.453 93.4958 255.559 94.4423 256.202C96.7013 257.735 98.3906 260.137 99.1093 262.779C99.8053 260.244 100.96 257.81 102.482 255.679C102.741 255.318 103.027 254.945 103.435 254.705C103.93 254.412 104.512 254.406 104.917 254.687C105.493 255.088 105.596 255.911 105.2 256.946C104.1 259.826 102.064 262.323 99.4656 263.98C99.4706 264.012 99.4693 264.046 99.462 264.08C99.433 264.203 99.3235 264.286 99.2023 264.287ZM92.8909 256.16C92.7069 256.16 92.5303 256.207 92.3795 256.327C91.9013 256.705 92.0613 257.541 92.3703 258.197C93.5912 260.788 96.0103 262.832 98.7623 263.63C98.2053 260.833 96.4989 258.243 94.1426 256.643C93.8903 256.472 93.366 256.16 92.8909 256.16ZM104.232 255.014C104.046 255.014 103.856 255.076 103.706 255.164C103.387 255.352 103.141 255.674 102.915 255.989C101.352 258.176 100.187 260.692 99.5216 263.303C101.86 261.71 103.691 259.4 104.703 256.754C104.813 256.463 105.135 255.488 104.612 255.124C104.5 255.047 104.367 255.014 104.232 255.014Z" fill="white"/>
<path d="M49.7058 261.836H21.8122C21.8122 261.836 14.0264 260.505 14.0264 273.37H49.7058V261.836Z" fill="#19203F"/>
<path d="M49.7057 262.101H21.8121C21.665 262.101 21.5457 261.983 21.5457 261.835C21.5457 261.687 21.665 261.568 21.8121 261.568H49.7057C49.8527 261.568 49.9721 261.687 49.9721 261.835C49.9721 261.983 49.8527 262.101 49.7057 262.101Z" fill="white"/>
<path d="M29.1649 263.298C29.0437 263.298 28.9342 263.214 28.9058 263.091C28.8978 263.057 28.8972 263.023 28.9022 262.991C26.304 261.334 24.2677 258.836 23.1674 255.956C22.7717 254.922 22.8751 254.099 23.4511 253.698C23.8548 253.417 24.4357 253.423 24.9323 253.715C25.3409 253.956 25.6271 254.329 25.8849 254.69C27.4074 256.821 28.5618 259.255 29.2578 261.789C29.9766 259.148 31.6665 256.746 33.9249 255.212C34.8714 254.57 35.7428 254.461 36.3182 254.919C36.9317 255.405 36.9914 256.345 36.4782 257.434C35.1157 260.326 32.3366 262.57 29.2246 263.29C29.2049 263.296 29.1846 263.298 29.1649 263.298ZM35.4763 255.171C35.0012 255.171 34.4769 255.483 34.2246 255.654C31.8677 257.254 30.1612 259.844 29.6049 262.641C32.3569 261.842 34.7754 259.799 35.9969 257.208C36.3058 256.552 36.4658 255.716 35.9877 255.338C35.8369 255.219 35.6597 255.171 35.4763 255.171ZM24.1342 254.025C23.9988 254.025 23.8665 254.058 23.7545 254.136C23.2314 254.5 23.5526 255.475 23.664 255.766C24.6757 258.412 26.5071 260.722 28.8449 262.315C28.1791 259.704 27.0135 257.188 25.4511 255.001C25.2259 254.686 24.9797 254.364 24.6609 254.176C24.5114 254.087 24.32 254.025 24.1342 254.025Z" fill="white"/>
<path d="M38.0208 267.366C37.9759 267.366 37.9303 267.354 37.8879 267.33C34.5888 265.428 31.0288 264.057 27.3075 263.259C27.1635 263.227 27.0719 263.085 27.1026 262.941C27.1334 262.797 27.2762 262.71 27.4189 262.736C31.1949 263.548 34.8066 264.938 38.1537 266.868C38.2811 266.942 38.3248 267.105 38.2515 267.232C38.2029 267.319 38.1131 267.366 38.0208 267.366Z" fill="white"/>
<path d="M59.4607 161.627C59.4367 161.627 59.4121 161.624 59.3875 161.616C59.246 161.576 59.1641 161.428 59.2047 161.287L62.3254 150.374C62.35 150.29 62.4134 150.223 62.4964 150.195L78.5961 144.757C78.7364 144.71 78.8872 144.785 78.934 144.924C78.9814 145.064 78.9063 145.215 78.7672 145.262L62.8004 150.655L59.7186 161.433C59.6835 161.551 59.5771 161.627 59.4607 161.627Z" fill="white"/>
<path d="M84.3857 128.78V138.452C84.3857 138.452 82.9894 139.764 79.8663 141.067C78.9334 141.456 77.8466 141.845 76.5943 142.198C75.6029 142.48 74.4995 142.737 73.2952 142.955C73.1463 142.982 72.9967 143.009 72.8423 143.03C71.9894 143.179 71.0835 143.302 70.1192 143.393H70.1137C68.8509 143.521 67.4971 143.601 66.0472 143.622C65.2423 143.638 64.406 143.627 63.5426 143.6C61.6349 143.659 59.7906 143.622 58.0318 143.504C56.385 143.398 54.8072 143.221 53.3155 143.003C53.1506 142.976 52.9851 142.955 52.8251 142.928C52.2177 142.832 51.6207 142.731 51.0398 142.619C43.0084 141.115 37.9026 138.452 37.9026 138.452V102.656C37.9026 101.45 38.1051 100.287 38.478 99.2044C38.8084 98.2386 39.2718 97.3373 39.8478 96.5211C39.9278 96.409 40.0078 96.3025 40.0878 96.1959C40.8177 95.2356 41.713 94.4033 42.726 93.7417C42.7315 93.7417 42.7364 93.7362 42.742 93.7313C43.4029 93.2988 44.1118 92.9416 44.8681 92.6699C46.0084 92.2486 47.2398 92.0188 48.5297 92.0188H73.7592C75.8964 92.0188 77.8841 92.6484 79.5469 93.7313C79.5524 93.7368 79.5574 93.7417 79.5629 93.7417C80.0534 94.0621 80.5118 94.4194 80.9377 94.8191L84.3857 128.78Z" fill="white"/>
<path d="M86.3844 148.471C86.3844 148.471 73.99 146.595 70.4675 137.379L67.113 92.0183H73.7586C75.8958 92.0183 77.8835 92.6479 79.5463 93.7308C79.5518 93.7363 79.5567 93.7413 79.5623 93.7413C80.0527 94.0616 80.5112 94.4189 80.937 94.8186L84.385 128.78L86.3844 148.471Z" fill="#FF5F5F"/>
<path d="M57.9734 92.0182L55.6497 138.729C55.6497 138.729 53.9709 140.618 51.0399 142.618C47.0214 145.376 40.6528 148.353 33.0479 146.998L37.9032 110.961L39.8485 96.5199C39.9285 96.4078 40.0085 96.3012 40.0885 96.1947C40.8183 95.2343 41.7137 94.4021 42.7266 93.7405C42.7322 93.7405 42.7371 93.735 42.7426 93.7301C43.4035 93.2976 44.1125 92.9404 44.8688 92.6687C46.0091 92.2474 47.2405 92.0176 48.5303 92.0176H57.9734V92.0182Z" fill="#FF5F5F"/>
<path d="M53.7168 92.0183L57.6669 98.1703L62.7383 93.2405L67.5679 98.1703L71.7549 92.0183H53.7168Z" fill="white"/>
<path d="M57.6669 98.4368C57.6564 98.4368 57.6466 98.4362 57.6367 98.435C57.5574 98.4258 57.486 98.3814 57.4429 98.3143L54.0835 93.0813C54.0041 92.9575 54.0398 92.7924 54.1635 92.713C54.2866 92.6341 54.4521 92.6699 54.5315 92.7931L57.7149 97.7512L62.5524 93.0481C62.6577 92.9458 62.8263 92.9483 62.9284 93.0524L67.5309 97.7506L71.1654 92.4099C71.2484 92.2879 71.4134 92.2571 71.5358 92.3397C71.6577 92.4228 71.6891 92.5885 71.606 92.7105L67.7881 98.3204C67.7432 98.3863 67.6712 98.4288 67.5918 98.4362C67.51 98.4442 67.4337 98.4141 67.3777 98.3574L62.7334 93.6166L57.8521 98.3623C57.8023 98.4104 57.7358 98.4368 57.6669 98.4368Z" fill="#19203F"/>
<path d="M62.7383 93.2402L58.67 97.1956L60.7045 100.42L57.4946 130.723L64.2608 139.77L69.2977 129.438L64.6559 99.9756L66.1149 96.6868L62.7383 93.2402Z" fill="#19203F"/>
<path d="M158.092 131.24C154.671 162.192 137.803 179.935 137.803 179.935L131.898 182.394C131.349 182.623 130.714 182.432 130.389 181.941C130.245 181.727 130.181 181.487 130.181 181.253C130.181 180.735 130.506 180.239 131.045 180.068L136.624 178.302C136.624 178.302 153.194 151.537 153.364 120.74C153.37 120.788 153.37 120.841 153.37 120.889V120.735C153.833 120.394 154.217 120.031 154.526 119.657V119.673C154.516 119.807 154.516 119.935 154.526 120.063C154.596 120.836 155.027 121.519 155.666 121.914C154.659 122.143 153.876 123.013 153.796 124.096C153.79 124.229 153.79 124.357 153.801 124.491C153.844 124.992 154.046 125.473 154.382 125.862C154.568 126.075 154.782 126.251 155.021 126.385C154.126 126.689 153.449 127.505 153.375 128.508C153.369 128.642 153.369 128.769 153.38 128.897C153.482 130.066 154.414 131.021 155.618 131.111L158.092 131.24Z" fill="#4B72BF"/>
<path d="M158.055 109.825C157.98 109.74 157.847 109.724 157.751 109.793C157.708 109.825 157.687 109.868 157.676 109.911C157.261 109.484 156.701 109.255 156.131 109.244C155.945 109.238 155.769 109.26 155.588 109.302C155.476 109.324 155.359 109.361 155.252 109.409L153.615 109.926C153.306 110.023 153.002 110.135 152.704 110.252C149.597 84.0902 136.625 63.1351 136.625 63.1351L131.047 61.3709C130.259 61.122 129.93 60.1863 130.388 59.4989C130.717 59.0048 131.349 58.8132 131.897 59.0412L137.802 61.5027C137.802 61.5027 154.532 79.108 158.055 109.825Z" fill="#4B72BF"/>
<path d="M153.365 120.74C153.37 120.735 153.37 120.735 153.37 120.735V120.857C153.37 120.82 153.37 120.778 153.365 120.74Z" fill="#19203F"/>
<path d="M157.708 110.103C157.634 110.007 157.655 109.868 157.751 109.794C157.847 109.724 157.98 109.74 158.055 109.826C158.087 110.108 158.119 110.396 158.145 110.689L157.708 110.103Z" fill="#19203F"/>
<path d="M132.288 182.499C132.21 182.499 132.132 182.464 132.079 182.398L76.5402 112.698C76.454 112.59 76.4645 112.434 76.5648 112.339L132.384 59.1292C132.49 59.0276 132.66 59.0319 132.76 59.1384C132.862 59.245 132.858 59.4138 132.751 59.5154L77.1094 112.557L132.496 182.067C132.588 182.182 132.569 182.35 132.454 182.441C132.405 182.48 132.346 182.499 132.288 182.499Z" fill="#19203F"/>
<path d="M175.87 110.043H93.4268C92.9856 110.043 92.6274 109.686 92.6274 109.243C92.6274 108.801 92.9856 108.443 93.4268 108.443H175.87C176.311 108.443 176.669 108.801 176.669 109.243C176.669 109.686 176.312 110.043 175.87 110.043Z" fill="#19203F"/>
<path d="M169.796 117.86L173.057 109.244L169.796 100.629L188.017 109.244L169.796 117.86Z" fill="#A4BFEA"/>
<path d="M185.026 109.057H173.963C173.568 109.057 173.639 109.669 174.032 109.669H185.095C185.489 109.669 185.418 109.057 185.026 109.057Z" fill="#19203F"/>
<path d="M193.936 122.771H169.207C168.697 122.771 168.284 122.358 168.284 121.847C168.284 121.336 168.697 120.923 169.207 120.923H193.936C194.447 120.923 194.86 121.336 194.86 121.847C194.86 122.358 194.446 122.771 193.936 122.771Z" fill="#FF5F5F"/>
<path d="M193.074 124.796L198.175 121.847L193.074 118.898V124.796Z" fill="#FF5F5F"/>
<path d="M179.177 97.1014H159.368C158.858 97.1014 158.445 96.6881 158.445 96.1774C158.445 95.6668 158.858 95.2534 159.368 95.2534H179.177C179.687 95.2534 180.1 95.6668 180.1 96.1774C180.1 96.6881 179.686 97.1014 179.177 97.1014Z" fill="#FF5F5F"/>
<path d="M178.314 99.1262L183.416 96.178L178.314 93.2292V99.1262Z" fill="#FF5F5F"/>
<path d="M203.106 104.502H183.297C182.787 104.502 182.374 104.088 182.374 103.578C182.374 103.067 182.787 102.654 183.297 102.654H203.106C203.616 102.654 204.029 103.067 204.029 103.578C204.029 104.088 203.616 104.502 203.106 104.502Z" fill="#FF5F5F"/>
<path d="M202.244 106.526L207.345 103.577L202.244 100.629V106.526Z" fill="#FF5F5F"/>
<path d="M95.5961 113.137C95.2847 113.71 94.7161 114.068 94.102 114.139C93.8798 114.165 93.6527 114.152 93.4275 114.091C94.286 114.642 94.5832 115.781 94.0909 116.681C93.7727 117.255 93.2047 117.612 92.59 117.684C92.3352 117.713 92.0675 117.691 91.806 117.609C92.2657 118.205 92.3561 119.044 91.9721 119.738C91.6607 120.312 91.0921 120.669 90.478 120.74C90.0921 120.785 89.6866 120.713 89.3186 120.51L87.31 119.409C88.0207 119.997 88.2386 121.026 87.7789 121.862C87.4675 122.436 86.8989 122.793 86.2847 122.864C85.8989 122.909 85.4933 122.837 85.1253 122.634L67.5032 117.544L66.7241 105.006L83.3973 102.016C84.9001 101.889 86.4023 102.159 87.7617 102.804L91.3241 105.86C92.2792 106.663 93.0275 107.759 92.5832 108.957L92.4626 109.177L94.8257 110.475C95.766 110.995 96.1155 112.188 95.5961 113.137Z" fill="#F79654"/>
<path d="M92.4614 109.443C92.4226 109.443 92.3832 109.434 92.3457 109.416L84.5605 105.661C84.4282 105.597 84.3722 105.437 84.4362 105.305C84.5002 105.172 84.6596 105.116 84.7919 105.18L92.5771 108.936C92.7094 109 92.7654 109.159 92.7014 109.292C92.6559 109.387 92.5605 109.443 92.4614 109.443Z" fill="#19203F"/>
<path d="M87.3094 119.675C87.2731 119.675 87.2368 119.668 87.2017 119.653L84.5193 118.467C84.3845 118.408 84.3236 118.251 84.3833 118.116C84.443 117.981 84.6005 117.92 84.7347 117.979L87.4171 119.165C87.5519 119.224 87.6128 119.382 87.5531 119.516C87.5088 119.616 87.4116 119.675 87.3094 119.675Z" fill="#19203F"/>
<path d="M91.8054 117.875C91.7556 117.875 91.7057 117.862 91.6614 117.833L89.5537 116.471C89.43 116.391 89.3944 116.226 89.4744 116.102C89.5537 115.977 89.718 115.942 89.843 116.022L91.9507 117.384C92.0744 117.464 92.11 117.63 92.03 117.753C91.9784 117.832 91.8928 117.875 91.8054 117.875Z" fill="#19203F"/>
<path d="M93.4269 114.358C93.3838 114.358 93.3402 114.347 93.2995 114.325L91.3635 113.267C91.2343 113.197 91.1869 113.035 91.2577 112.905C91.3285 112.777 91.4897 112.729 91.6189 112.799L93.5549 113.858C93.6841 113.928 93.7315 114.09 93.6608 114.219C93.6122 114.308 93.5211 114.358 93.4269 114.358Z" fill="#19203F"/>
<path d="M66.4737 101.75H57.2553C57.2891 100.078 56.8866 98.3746 56.0005 96.8155C53.3808 92.206 47.5242 90.5958 42.9186 93.2181L25.7328 103.006C21.9494 105.161 20.0897 109.596 21.203 113.809C22.3162 118.021 26.1236 120.955 30.4768 120.955H66.4731L66.4737 101.75Z" fill="#FF5F5F"/>
<path d="M66.4736 119.437V102.38H69.3912L68.3542 119.437H66.4736Z" fill="white"/>
<path d="M66.4737 121.221H38.9278C38.7808 121.221 38.6614 121.102 38.6614 120.955C38.6614 120.807 38.7808 120.688 38.9278 120.688H66.2072V102.016H43.4091C43.262 102.016 43.1426 101.897 43.1426 101.75C43.1426 101.602 43.262 101.483 43.4091 101.483H66.4737C66.6208 101.483 66.7401 101.602 66.7401 101.75V120.955C66.7401 121.102 66.6208 121.221 66.4737 121.221Z" fill="#19203F"/>
<path d="M368.727 234.825L359.432 261.146L306.271 239.21C299.983 236.617 296.023 230.328 296.391 223.531L299.103 173.95H326.997L324.669 216.639L368.727 234.825Z" fill="#4B72BF"/>
<path d="M329.46 107.146V113.574C329.46 113.723 329.455 113.879 329.455 114.033C329.444 114.182 329.433 114.332 329.423 114.481C329.417 114.556 329.407 114.625 329.396 114.694C329.386 114.78 329.375 114.87 329.364 114.955C329.343 115.116 329.322 115.27 329.29 115.43C329.215 115.847 329.114 116.252 328.986 116.652C328.954 116.753 328.922 116.855 328.89 116.951C328.868 117.004 328.847 117.063 328.826 117.121V117.127C328.804 117.18 328.783 117.233 328.762 117.292C327.397 120.797 324.162 123.395 320.224 123.667C317.922 123.827 315.769 123.187 314.01 122.002C311.361 120.21 309.608 117.18 309.608 113.76V101.688C310.226 101.459 310.892 101.24 311.537 101.373C312.193 101.512 312.715 101.965 313.237 102.36C313.84 102.813 314.469 103.272 315.188 103.513C317.021 104.137 318.828 103.481 320.545 102.813C321.754 102.344 323.273 101.789 324.425 102.541C324.995 104.841 326.423 106.883 328.427 108.207C328.661 107.759 329.028 107.396 329.46 107.146Z" fill="#FFA96E"/>
<path d="M314.008 122.001V127.716H329.469V117.163L328.825 117.123C328.804 117.178 328.782 117.236 328.76 117.292C327.396 120.797 324.161 123.397 320.223 123.671C317.92 123.828 315.765 123.189 314.008 122.001Z" fill="#FFA96E"/>
<path d="M334.358 112.721C333.655 114.918 331.72 116.673 329.471 117.164L328.826 117.122C328.847 117.063 328.868 117.004 328.89 116.951C328.922 116.855 328.954 116.754 328.986 116.652C329.114 116.252 329.215 115.847 329.29 115.431C329.322 115.271 329.343 115.116 329.364 114.956C329.375 114.87 329.386 114.78 329.396 114.695C329.407 114.625 329.412 114.551 329.418 114.482C329.434 114.332 329.444 114.183 329.455 114.034C329.455 113.879 329.461 113.725 329.461 113.575V107.146C330.09 106.778 330.863 106.634 331.582 106.768C331.72 106.794 331.859 106.832 331.987 106.874C332.088 106.906 332.184 106.938 332.275 106.986C332.312 106.997 332.349 107.018 332.387 107.034C332.584 107.13 332.771 107.237 332.941 107.365C332.957 107.371 332.968 107.381 332.984 107.392L333 107.402C333.357 107.674 333.671 108.005 333.922 108.378C334.066 108.597 334.194 108.832 334.295 109.078C334.768 110.224 334.736 111.542 334.358 112.721Z" fill="#FFA96E"/>
<path d="M312.759 110.652C313.559 110.652 314.208 110.002 314.208 109.201C314.208 108.4 313.559 107.75 312.759 107.75C311.958 107.75 311.309 108.4 311.309 109.201C311.309 110.002 311.958 110.652 312.759 110.652Z" fill="#19203F"/>
<path d="M313.536 106.961H311.981C311.629 106.961 311.341 106.673 311.341 106.321C311.341 105.97 311.629 105.681 311.981 105.681H313.536C313.888 105.681 314.176 105.97 314.176 106.321C314.176 106.674 313.888 106.961 313.536 106.961Z" fill="#19203F"/>
<path d="M322.173 109.201C322.173 110.003 321.524 110.652 320.724 110.652C319.923 110.652 319.274 110.003 319.274 109.201C319.274 108.4 319.923 107.75 320.724 107.75C321.524 107.75 322.173 108.4 322.173 109.201Z" fill="#19203F"/>
<path d="M321.501 106.961H319.946C319.594 106.961 319.306 106.673 319.306 106.321C319.306 105.97 319.594 105.681 319.946 105.681H321.501C321.853 105.681 322.141 105.97 322.141 106.321C322.141 106.674 321.853 106.961 321.501 106.961Z" fill="#19203F"/>
<path d="M325.178 115.985C326.566 115.985 327.692 114.858 327.692 113.468C327.692 112.078 326.566 110.951 325.178 110.951C323.789 110.951 322.663 112.078 322.663 113.468C322.663 114.858 323.789 115.985 325.178 115.985Z" fill="#19203F"/>
<path d="M326.502 120.777C326.502 120.777 323.856 123.709 319.997 123.685C316.138 123.661 314.009 122.002 314.009 122.002V126.138C314.009 126.138 321.205 128.377 326.502 120.777Z" fill="#19203F"/>
<path d="M315.693 108.561L316.696 114.701H313.916L315.693 108.561Z" fill="#19203F"/>
<path d="M331.28 108.555C330.173 109.089 330.135 110.403 330.181 111.468C330.185 111.557 330.272 111.643 330.359 111.654C331.098 111.743 331.729 112.372 331.763 113.13C331.796 113.886 331.192 114.583 330.46 114.711C330.191 114.758 330.236 115.181 330.507 115.134C331.449 114.971 332.196 114.126 332.188 113.157C332.18 112.25 331.466 111.461 330.598 111.272C330.567 110.48 330.576 109.545 331.285 109.045C332.022 108.524 332.77 109.145 332.886 109.923C332.926 110.193 333.349 110.147 333.309 109.875C333.165 108.917 332.264 108.081 331.28 108.555Z" fill="#19203F"/>
<path d="M317.136 114.607C316.101 114.583 315.067 114.56 314.032 114.536C314.644 112.478 315.256 110.419 315.868 108.36C315.946 108.099 315.525 108.035 315.448 108.294C314.813 110.432 314.177 112.57 313.542 114.708C313.498 114.857 313.657 114.95 313.776 114.953L317.184 115.03C317.456 115.036 317.407 114.613 317.136 114.607Z" fill="#19203F"/>
<path d="M314.64 116.777L320.01 115.517C320.01 115.517 320.9 118.557 318.066 119.188C315.232 119.817 314.64 116.777 314.64 116.777Z" fill="white"/>
<path d="M335.493 102.286C335.413 101.058 335.12 99.8474 334.549 98.6683C333.798 97.121 332.482 95.8834 330.781 95.4836C328.826 95.0247 326.992 96.0651 325.047 96.1076C323.08 96.1501 321.423 95.1313 319.68 94.3791C318.007 93.6486 316.504 93.8192 314.884 94.6083C313.96 95.0611 313.064 95.5859 312.122 95.9863C311.527 96.1083 310.916 96.1144 310.293 95.9851C309.258 95.7707 308.525 95.0296 307.565 94.6557C305.129 93.7071 303.41 96.0559 303.759 98.3259C304.108 100.591 306.015 102.439 308.331 102.566C309.451 102.627 310.516 102.318 311.626 102.265C312.797 102.21 313.553 102.985 314.592 103.37C314.97 103.51 315.357 103.603 315.747 103.655C317.388 103.994 319.003 103.412 320.544 102.813C321.754 102.343 323.272 101.788 324.424 102.541C324.994 104.84 326.423 106.883 328.426 108.206C328.661 107.758 329.029 107.395 329.46 107.145C330.089 106.776 330.862 106.633 331.581 106.766C331.72 106.792 331.858 106.83 331.986 106.872C332.088 106.904 332.184 106.936 332.274 106.984C332.312 106.995 332.349 107.016 332.386 107.032C332.584 107.128 332.77 107.235 332.941 107.363C332.957 107.369 332.967 107.379 332.983 107.39L332.999 107.4C333.356 107.672 333.671 108.003 333.921 108.377C334.006 108.222 334.092 108.067 334.177 107.912C335.109 106.19 335.621 104.243 335.493 102.286Z" fill="#19203F"/>
<path d="M329.737 205.504L305.611 210.135L313.765 261.332H285.871L278.617 215.315L276.634 203.882C275.089 194.952 280.973 186.432 289.862 184.726L300.84 182.618L346.018 173.949L347.143 179.817C349.418 191.725 341.627 203.222 329.737 205.504Z" fill="#4B72BF"/>
<path d="M313.658 261.627H285.765C285.765 261.627 271.583 260.296 271.583 273.161H313.658V261.627Z" fill="#19203F"/>
<path d="M313.658 261.893H285.765C285.618 261.893 285.498 261.774 285.498 261.626C285.498 261.478 285.617 261.36 285.765 261.36H313.658C313.805 261.36 313.925 261.478 313.925 261.626C313.925 261.774 313.806 261.893 313.658 261.893Z" fill="white"/>
<path d="M294.48 184.106C294.355 184.106 294.244 184.018 294.219 183.891C294.19 183.747 294.284 183.606 294.429 183.577L317.186 179.058C317.332 179.027 317.47 179.123 317.499 179.268C317.528 179.413 317.434 179.552 317.289 179.581L294.532 184.101C294.515 184.105 294.498 184.106 294.48 184.106Z" fill="#19203F"/>
<path d="M310.988 241.422C310.861 241.422 310.748 241.331 310.725 241.201L305.348 210.182C305.324 210.039 305.418 209.901 305.56 209.874L325.753 205.998C325.906 205.964 326.038 206.065 326.065 206.21C326.093 206.354 325.999 206.494 325.854 206.522L305.918 210.349L311.251 241.11C311.276 241.255 311.179 241.394 311.034 241.419C311.018 241.421 311.003 241.422 310.988 241.422Z" fill="#19203F"/>
<path d="M303.513 209.145C303.461 209.145 303.408 209.131 303.362 209.099L298.029 205.441C297.907 205.358 297.877 205.192 297.96 205.07C298.043 204.949 298.21 204.919 298.331 205.001L303.664 208.659C303.786 208.743 303.816 208.908 303.733 209.03C303.682 209.105 303.598 209.145 303.513 209.145Z" fill="#19203F"/>
<path d="M318.477 221.602C318.396 221.602 318.317 221.566 318.264 221.497C318.175 221.38 318.199 221.212 318.316 221.124L323.871 216.897C323.988 216.808 324.156 216.831 324.244 216.948C324.333 217.066 324.31 217.233 324.193 217.322L318.637 221.548C318.589 221.585 318.533 221.602 318.477 221.602Z" fill="#19203F"/>
<path d="M379.439 238.671L368.093 271.912L367.821 272.718L345.506 272.756C345.474 260.443 358.462 261.099 359.581 261.179L368.535 234.948L379.439 238.671Z" fill="#19203F"/>
<path d="M359.518 261.636C359.489 261.636 359.46 261.631 359.432 261.621C359.292 261.573 359.218 261.422 359.265 261.283L368.28 234.859C368.328 234.719 368.482 234.645 368.619 234.692C368.759 234.74 368.833 234.892 368.786 235.031L359.77 261.454C359.733 261.565 359.629 261.636 359.518 261.636Z" fill="white"/>
<path d="M362.37 70.4106L362.261 71.74C362.358 70.5221 363.434 69.6055 364.646 69.7022C365.252 69.7503 365.783 70.0453 366.157 70.4802C366.526 70.9096 366.73 71.4831 366.682 72.0948L366.594 73.1691L366.615 73.1703C366.852 72.1108 367.844 71.3543 368.954 71.4393C369.56 71.4874 370.092 71.7825 370.46 72.2167C370.769 72.5728 370.96 73.028 370.988 73.5214L370.372 81.4795C370.258 82.8945 369.777 84.2004 369.03 85.3037L368.279 94.6589L353.769 93.4958L355.345 87.5379C355.206 87.4597 355.071 87.382 354.938 87.2933C354.168 86.7913 353.492 86.1611 352.938 85.4429C351.426 83.8203 350.291 81.8842 349.611 79.7627C349.513 79.4572 349.42 79.1467 349.343 78.832L348.928 77.1651C348.887 77.0554 348.857 76.9359 348.842 76.8232C348.811 76.6396 348.801 76.4622 348.818 76.2762C348.864 75.707 349.127 75.1625 349.578 74.7731C349.663 74.698 349.758 74.629 349.858 74.5662L353.234 72.4724L353.57 70.0718C353.666 68.8589 354.743 67.9423 355.954 68.039C356.56 68.0871 357.092 68.3821 357.466 68.8115C357.73 69.122 357.909 69.507 357.974 69.9283C358.125 68.7776 359.166 67.9288 360.34 68.023C360.945 68.0711 361.477 68.3661 361.846 68.7955C362.213 69.2359 362.418 69.8045 362.37 70.4106Z" fill="#F79654"/>
<path d="M362.453 70.352C362.575 70.3705 362.659 70.4826 362.641 70.5991L362.108 74.5532L361.852 76.4455C361.841 76.5305 361.825 76.6149 361.804 76.6938C361.732 76.9993 361.597 77.2796 361.421 77.5254C360.988 78.1401 360.281 78.5288 359.505 78.5504C359.377 78.5528 359.249 78.5455 359.117 78.5264L359.101 78.5251C358.354 78.4198 357.735 77.9806 357.373 77.3757C357.092 76.9198 356.96 76.3667 357.038 75.7944L357.117 75.2166L357.195 74.6443C357.202 74.6074 357.215 74.571 357.239 74.5402C357.25 74.5304 357.261 74.515 357.273 74.5051C357.318 74.4651 357.378 74.4472 357.447 74.4571C357.564 74.4694 357.653 74.5821 357.635 74.7041L357.626 74.7675L357.478 75.8541C357.33 76.9408 358.091 77.9393 359.177 78.0871C360.267 78.2405 361.265 77.4736 361.412 76.3876L361.667 74.5168L362.207 70.5418C362.22 70.4229 362.337 70.3336 362.453 70.352Z" fill="#19203F"/>
<path d="M366.602 72.9454C366.724 72.9639 366.807 73.076 366.794 73.198L366.548 75.0213L366.216 77.449C366.215 77.4595 366.215 77.465 366.209 77.4755C366.16 77.8303 366.033 78.1592 365.839 78.4469C365.692 78.6785 365.503 78.8806 365.279 79.0537C364.869 79.3647 364.378 79.5378 363.876 79.5489C363.742 79.5514 363.614 79.5434 363.482 79.5298C362.407 79.3832 361.588 78.5461 361.422 77.526C361.378 77.2882 361.372 77.0418 361.408 76.7929C361.421 76.671 361.533 76.5872 361.655 76.6051C361.719 76.6143 361.776 76.6445 361.805 76.6944C361.839 76.7394 361.852 76.7936 361.843 76.8515C361.695 77.9381 362.461 78.9422 363.546 79.09C364.065 79.1596 364.586 79.021 365.012 78.7001C365.405 78.3982 365.672 77.9658 365.76 77.4853C365.768 77.4539 365.775 77.4219 365.777 77.3899L366.109 74.9677L366.356 73.1388C366.373 73.0162 366.48 72.9325 366.602 72.9454Z" fill="#19203F"/>
<path d="M370.695 75.3158C370.811 75.3336 370.9 75.4464 370.882 75.5628L370.87 75.6798L370.59 78.1426C370.425 79.3401 369.415 80.213 368.244 80.2419C368.116 80.2444 367.988 80.237 367.855 80.2228C366.86 80.0861 366.087 79.3592 365.84 78.4463C365.758 78.142 365.735 77.8198 365.777 77.4853C365.795 77.3634 365.907 77.2796 366.028 77.2981C366.129 77.3147 366.199 77.3837 366.21 77.4749C366.219 77.497 366.217 77.5235 366.216 77.5445C366.068 78.6311 366.834 79.6352 367.914 79.7824C369.006 79.9302 370.003 79.1689 370.15 78.0828L370.432 75.6041L370.444 75.503C370.46 75.3866 370.573 75.2979 370.695 75.3158Z" fill="#19203F"/>
<path d="M357.816 71.8546C358.313 72.6179 358.33 73.5597 357.93 74.3149C357.851 74.4757 357.745 74.6297 357.625 74.7665C357.481 74.9396 357.311 75.0893 357.116 75.2161L354.522 76.9206C355.252 76.8695 356.295 76.9237 357.372 77.3752C357.949 77.6247 358.541 77.9875 359.1 78.5247C359.453 78.8567 359.791 79.2627 360.103 79.7468L360.109 79.7475C360.109 79.7475 360.109 79.7474 360.109 79.753C360.469 80.3099 360.797 80.9714 361.074 81.7636C361.114 81.8782 361.053 82.0026 360.939 82.0439C360.917 82.0531 360.895 82.0574 360.874 82.0562C360.778 82.0611 360.691 82.002 360.659 81.909C360.351 81.0238 359.973 80.3006 359.567 79.7191C357.268 76.4814 353.791 77.4467 353.623 77.4954C353.519 77.5262 353.405 77.4763 353.357 77.3771C353.31 77.2779 353.349 77.1572 353.439 77.0986L356.873 74.8478C357.012 74.7603 357.13 74.6556 357.239 74.5392C357.25 74.5293 357.261 74.5139 357.273 74.5041C357.33 74.4381 357.383 74.3716 357.43 74.2946C357.865 73.6534 357.898 72.7842 357.448 72.0992C356.848 71.1801 355.615 70.9214 354.697 71.522L350.383 74.3544L349.771 74.7548C349.671 74.8231 349.533 74.7936 349.465 74.6932C349.402 74.5928 349.426 74.4609 349.516 74.3919C349.516 74.3864 349.521 74.387 349.527 74.3821L354.458 71.1555C355.577 70.4169 357.085 70.7348 357.816 71.8546Z" fill="#19203F"/>
<path d="M345.383 138.354V174.151C345.383 174.151 339.509 177.213 330.46 178.626C330.3 178.653 330.135 178.674 329.97 178.701C328.477 178.92 326.9 179.096 325.253 179.202C323.495 179.319 321.651 179.357 319.743 179.298C318.879 179.325 318.042 179.336 317.238 179.32C315.788 179.298 314.435 179.218 313.172 179.091H313.166C312.031 178.984 310.976 178.83 309.989 178.653C308.785 178.435 307.682 178.179 306.69 177.896C305.438 177.543 304.351 177.154 303.418 176.765C300.295 175.463 298.899 174.151 298.899 174.151V138.354C298.899 134.625 300.818 131.344 303.722 129.44C303.728 129.44 303.733 129.434 303.738 129.43C305.401 128.347 307.389 127.717 309.526 127.717H334.756C336.045 127.717 337.276 127.946 338.417 128.368C339.174 128.64 339.883 128.998 340.543 129.43C340.549 129.435 340.554 129.44 340.559 129.44C341.572 130.102 342.467 130.934 343.197 131.894C343.885 132.79 344.434 133.809 344.807 134.903C345.18 135.986 345.383 137.149 345.383 138.354Z" fill="white"/>
<path d="M309.757 128.134L298.113 118.634L294.869 100.833C288.489 101.433 282.077 101.637 275.671 101.833L279.5 124.712C279.787 127.198 281.032 129.474 282.97 131.055L297.638 143.021C299.418 144.474 301.562 145.181 303.692 145.181C306.476 145.181 309.238 143.973 311.134 141.644C314.481 137.532 313.864 131.484 309.757 128.134Z" fill="white"/>
<path d="M352.084 87.7622L347.422 117.929L331.237 128.71C326.826 131.649 325.629 137.609 328.565 142.024C330.412 144.804 333.457 146.308 336.56 146.308C338.386 146.308 340.232 145.787 341.865 144.699L361.57 131.574C363.812 130.08 365.324 127.712 365.735 125.047L370.66 93.1787C364.473 91.356 358.212 89.7741 352.084 87.7622Z" fill="white"/>
<path d="M325.662 133.066C325.563 133.058 325.521 133.038 325.471 132.986L320.744 128.121L316.904 132.965C316.86 133.022 316.794 133.058 316.722 133.065C316.65 133.073 316.58 133.05 316.525 133.004L310.453 127.922C310.34 127.827 310.325 127.659 310.42 127.546C310.514 127.432 310.682 127.418 310.794 127.513L316.656 132.42L320.515 127.551C320.562 127.491 320.633 127.455 320.71 127.45C320.787 127.451 320.861 127.476 320.914 127.531L325.663 132.419L330.509 127.529C330.613 127.425 330.782 127.425 330.886 127.528C330.991 127.632 330.991 127.801 330.888 127.906L325.85 132.988C325.802 133.038 325.733 133.066 325.662 133.066Z" fill="#19203F"/>
<path d="M320.724 179.565C320.577 179.565 320.458 179.446 320.458 179.298V127.716C320.458 127.569 320.577 127.45 320.724 127.45C320.872 127.45 320.991 127.569 320.991 127.716V179.298C320.991 179.446 320.871 179.565 320.724 179.565Z" fill="#19203F"/>
<path d="M344.329 141.668C344.297 141.668 344.265 141.663 344.233 141.65C344.096 141.597 344.027 141.443 344.08 141.305L347.859 131.517C347.912 131.38 348.066 131.311 348.204 131.364C348.341 131.417 348.41 131.572 348.357 131.709L344.578 141.498C344.537 141.603 344.436 141.668 344.329 141.668Z" fill="#19203F"/>
<path d="M349.886 121.044C349.811 121.044 349.737 121.013 349.684 120.952L347.221 118.103C347.124 117.991 347.137 117.823 347.248 117.726C347.359 117.63 347.527 117.641 347.623 117.753L350.087 120.602C350.183 120.714 350.171 120.882 350.06 120.979C350.009 121.023 349.947 121.044 349.886 121.044Z" fill="#19203F"/>
<path d="M293.883 122.042C293.802 122.042 293.721 122.005 293.669 121.935C293.581 121.816 293.605 121.649 293.724 121.562L297.954 118.42C298.072 118.332 298.239 118.356 298.327 118.475C298.415 118.593 298.39 118.76 298.271 118.848L294.041 121.99C293.994 122.025 293.938 122.042 293.883 122.042Z" fill="#19203F"/>
<path d="M195.275 275.657C194.949 275.657 194.617 275.601 194.292 275.485C192.786 274.941 192.005 273.278 192.549 271.771L231.777 162.867C232.32 161.359 233.983 160.577 235.487 161.122C236.993 161.665 237.774 163.328 237.231 164.836L198.002 273.739C197.576 274.922 196.463 275.657 195.275 275.657Z" fill="#19203F"/>
<path d="M284.608 114.682C284.608 140.399 270.092 161.715 251.108 165.599C249.074 166.019 246.987 166.233 244.864 166.233C222.918 166.233 205.124 143.154 205.124 114.682C205.124 86.2099 222.918 63.1309 244.864 63.1309C246.986 63.1309 249.074 63.3452 251.108 63.7647C270.092 67.6486 284.608 88.9641 284.608 114.682Z" fill="white"/>
<path d="M297.09 114.682C297.09 143.154 279.296 166.233 257.351 166.233H244.864C246.986 166.233 249.074 166.019 251.107 165.599C270.092 161.715 284.608 140.399 284.608 114.682C284.608 88.9647 270.091 67.6486 251.107 63.7647C249.074 63.3452 246.987 63.1309 244.864 63.1309H257.351C279.296 63.1309 297.09 86.2099 297.09 114.682Z" fill="#19203F"/>
<path d="M243.66 159.534C225.097 159.534 209.993 139.413 209.993 114.681C209.993 89.9496 225.097 69.8286 243.66 69.8286C245.5 69.8286 247.338 70.0251 249.121 70.4126C265.465 73.9336 277.33 92.5516 277.33 114.681C277.33 136.811 265.465 155.429 249.116 158.951C247.337 159.338 245.5 159.534 243.66 159.534ZM243.66 76.0792C228.539 76.0792 216.237 93.3962 216.237 114.682C216.237 135.968 228.538 153.285 243.66 153.285C245.055 153.285 246.447 153.136 247.797 152.843C261.077 149.981 271.087 133.577 271.087 114.681C271.087 95.7862 261.077 79.3815 247.802 76.5215C246.448 76.2276 245.056 76.0792 243.66 76.0792Z" fill="#FF5F5F"/>
<path d="M243.242 141.766C233.711 141.766 226.245 130.22 226.245 115.482C226.245 100.743 233.711 89.1975 243.242 89.1975C244.247 89.1975 245.25 89.3287 246.223 89.5868C254.341 91.7237 260.24 102.615 260.24 115.482C260.24 128.349 254.341 139.24 246.215 141.379C245.249 141.635 244.246 141.766 243.242 141.766ZM243.242 95.4468C237.513 95.4468 232.489 104.809 232.489 115.482C232.489 126.154 237.513 135.516 243.242 135.516C243.706 135.516 244.171 135.455 244.621 135.337C249.233 134.122 253.996 126.365 253.996 115.482C253.996 104.599 249.233 96.8421 244.627 95.6298C244.17 95.5078 243.706 95.4468 243.242 95.4468Z" fill="#FF5F5F"/>
<path d="M243.242 122.292C245.348 122.292 247.055 119.243 247.055 115.482C247.055 111.72 245.348 108.671 243.242 108.671C241.137 108.671 239.43 111.72 239.43 115.482C239.43 119.243 241.137 122.292 243.242 122.292Z" fill="#FF5F5F"/>
<path d="M305.132 276.063C303.947 276.063 302.836 275.331 302.407 274.151L262.726 164.842C262.179 163.336 262.956 161.671 264.46 161.124C265.963 160.577 267.627 161.354 268.174 162.86L307.855 272.17C308.402 273.675 307.626 275.34 306.121 275.887C305.795 276.007 305.46 276.063 305.132 276.063Z" fill="#19203F"/>
<path d="M270.056 65.2025C269.799 65.7538 269.341 66.1517 268.807 66.3433C268.274 66.5349 267.669 66.5281 267.119 66.2706L262.403 64.0665C261.301 63.5516 260.821 62.229 261.336 61.1264C261.592 60.5781 262.05 60.1802 262.583 59.9886C263.117 59.794 263.72 59.8038 264.271 60.0613L268.987 62.2654C270.088 62.7797 270.569 64.1023 270.056 65.2025Z" fill="#FFA96E"/>
<path d="M249.933 66.6081C249.325 66.61 248.77 66.3642 248.37 65.9626C247.97 65.5609 247.719 65.0102 247.717 64.4022L247.704 59.1927C247.701 57.9761 248.692 56.9782 249.908 56.9751C250.512 56.9733 251.067 57.219 251.467 57.6207C251.87 58.0223 252.119 58.573 252.12 59.181L252.133 64.3905C252.137 65.6071 251.146 66.6044 249.933 66.6081Z" fill="#FFA96E"/>
<path d="M254.346 66.5964C253.741 66.5982 253.187 66.3525 252.787 65.9508C252.384 65.5492 252.135 64.9985 252.134 64.3905L252.12 59.181C252.117 57.9644 253.109 56.9665 254.321 56.9634C254.929 56.9615 255.48 57.2073 255.883 57.609C256.283 58.0106 256.531 58.5613 256.533 59.1693L256.547 64.3788C256.55 65.5954 255.562 66.5933 254.346 66.5964Z" fill="#FFA96E"/>
<path d="M258.762 66.5847C258.154 66.5865 257.603 66.3407 257.2 65.9391C256.797 65.5375 256.548 64.9868 256.547 64.3788L256.533 59.1693C256.53 57.9527 257.522 56.9548 258.737 56.9517C259.345 56.9498 259.897 57.1956 260.297 57.5972C260.697 57.9989 260.948 58.5496 260.949 59.1576L260.963 64.3671C260.966 65.5837 259.975 66.5816 258.762 66.5847Z" fill="#FFA96E"/>
<path d="M263.172 65.2295C262.564 65.2313 262.012 64.9855 261.612 64.5839C261.212 64.1823 260.96 63.6316 260.959 63.0236L260.949 59.1576C260.946 57.941 261.937 56.943 263.149 56.94C263.757 56.9381 264.309 57.1839 264.712 57.5855C265.115 57.9872 265.364 58.5379 265.365 59.1458L265.375 63.0119C265.378 64.2285 264.387 65.2258 263.172 65.2295Z" fill="#FFA96E"/>
<path d="M260.873 58.4461C260.912 58.4239 260.957 58.4116 261.004 58.4116C261.148 58.4129 261.263 58.5299 261.261 58.6734L261.22 63.4345C261.219 63.578 261.102 63.6938 260.959 63.692C260.815 63.6907 260.7 63.5737 260.701 63.4302L260.743 58.6691C260.743 58.573 260.796 58.4905 260.873 58.4461Z" fill="#19203F"/>
<path d="M265.24 60.3482C265.279 60.3261 265.325 60.3131 265.373 60.3137C265.516 60.3162 265.63 60.4345 265.628 60.5774L265.581 63.5009C265.578 63.6445 265.461 63.759 265.317 63.7566C265.174 63.7541 265.06 63.6358 265.062 63.4929L265.109 60.5694C265.111 60.4745 265.164 60.392 265.24 60.3482Z" fill="#19203F"/>
<path d="M256.458 58.4559C256.496 58.4337 256.541 58.4214 256.589 58.4214C256.732 58.4226 256.847 58.5397 256.847 58.6832L256.806 64.38C256.804 64.5229 256.687 64.6381 256.544 64.6381C256.401 64.6368 256.286 64.5198 256.287 64.3763L256.327 58.6795C256.329 58.584 256.381 58.5002 256.458 58.4559Z" fill="#19203F"/>
<path d="M252.016 58.6378C252.054 58.6162 252.098 58.6033 252.145 58.6033C252.288 58.6033 252.404 58.7197 252.404 58.8632L252.392 64.3906C252.392 64.5335 252.276 64.6499 252.133 64.6493C251.989 64.6493 251.874 64.5329 251.874 64.3894L251.885 58.862C251.885 58.7659 251.938 58.6821 252.016 58.6378Z" fill="#19203F"/>
<path d="M341.751 64.6511C341.751 75.4803 333.938 84.4801 323.647 86.3158L319.799 92.323L314.8 86.0922C305.047 83.8407 297.778 75.0972 297.778 64.6517C297.778 52.4937 307.622 42.6401 319.767 42.6401C331.907 42.6395 341.751 52.4931 341.751 64.6511Z" fill="#A4BFEA"/>
<path d="M319.764 47.6267L324.808 57.8566L336.086 59.497L327.925 67.4594L329.852 78.7033L319.764 73.3952L309.677 78.7033L311.603 67.4594L303.442 59.497L314.721 57.8566L319.764 47.6267Z" fill="#FFA233"/>
<path d="M301.243 71.8976C301.135 71.8976 301.033 71.8317 300.994 71.7239C299.208 66.9283 299.306 61.4663 301.263 56.7385C303.219 52.0107 307.009 48.0787 311.66 45.9523C311.791 45.8926 311.952 45.9498 312.012 46.0841C312.074 46.2184 312.015 46.3767 311.881 46.4377C307.351 48.5087 303.661 52.3378 301.756 56.9424C299.849 61.5476 299.754 66.8667 301.493 71.5373C301.545 71.6752 301.474 71.8292 301.337 71.8804C301.305 71.8921 301.274 71.8976 301.243 71.8976Z" fill="#19203F"/>
<path d="M326.103 83.9941C325.991 83.9941 325.886 83.9226 325.85 83.8099C325.805 83.6701 325.881 83.5192 326.021 83.4742C331.405 81.7211 335.918 77.3111 337.798 71.9642C337.846 71.825 338 71.7511 338.137 71.801C338.276 71.8503 338.349 72.0024 338.3 72.141C336.366 77.6407 331.724 82.1775 326.186 83.9812C326.159 83.9898 326.13 83.9941 326.103 83.9941Z" fill="#19203F"/>
</g>
<defs>
<filter id="filter0_d_125_2062" x="-4" y="0" width="408" height="316" filterUnits="userSpaceOnUse" color-interpolation-filters="sRGB">
<feFlood flood-opacity="0" result="BackgroundImageFix"/>
<feColorMatrix in="SourceAlpha" type="matrix" values="0 0 0 0 0 0 0 0 0 0 0 0 0 0 0 0 0 0 127 0" result="hardAlpha"/>
<feOffset dy="4"/>
<feGaussianBlur stdDeviation="2"/>
<feComposite in2="hardAlpha" operator="out"/>
<feColorMatrix type="matrix" values="0 0 0 0 0 0 0 0 0 0 0 0 0 0 0 0 0 0 0.25 0"/>
<feBlend mode="normal" in2="BackgroundImageFix" result="effect1_dropShadow_125_2062"/>
<feBlend mode="normal" in="SourceGraphic" in2="effect1_dropShadow_125_2062" result="shape"/>
</filter>
</defs>
</svg>
