<svg width="24" height="24" viewBox="0 0 24 24" fill="none" xmlns="http://www.w3.org/2000/svg">
<path fill-rule="evenodd" clip-rule="evenodd" d="M18.3902 2.00134C18.9102 2.00134 19.3329 2.42399 19.3329 2.94397V4.66789H21.0571C21.2435 4.66785 21.4258 4.72311 21.5809 4.82668C21.736 4.93026 21.8569 5.07749 21.9282 5.24976C21.9996 5.42202 22.0183 5.61159 21.9819 5.79446C21.9455 5.97734 21.8557 6.14532 21.7238 6.27715L19.777 8.22373C19.4927 8.50732 19.1078 8.66693 18.7062 8.66771H16.746L12.039 13.3742C11.8494 13.5508 11.5987 13.647 11.3396 13.6424C11.0805 13.6378 10.8333 13.5329 10.6501 13.3497C10.4668 13.1664 10.3619 12.9193 10.3573 12.6602C10.3527 12.4012 10.4489 12.1504 10.6256 11.9609L15.3326 7.25444V5.29453C15.3326 4.89321 15.4926 4.5079 15.7766 4.22257L17.7235 2.276C17.8107 2.18806 17.9146 2.11836 18.0291 2.07098C18.1435 2.02359 18.2663 1.99947 18.3902 2.00001M3.99836 12.6675C3.99822 11.5803 4.23987 10.5066 4.70583 9.52427C5.17178 8.54192 5.85037 7.67546 6.69248 6.98762C7.53458 6.29978 8.51911 5.80778 9.5748 5.54724C10.6305 5.28669 11.7309 5.26413 12.7964 5.48118C13.055 5.53052 13.3226 5.47592 13.5412 5.32923C13.7598 5.18254 13.9117 4.95559 13.964 4.69762C14.0163 4.43965 13.9647 4.17146 13.8206 3.95124C13.6764 3.73102 13.4511 3.57652 13.1938 3.52127C11.2278 3.12163 9.18543 3.36593 7.36925 4.21798C5.55308 5.07003 4.05978 6.48447 3.11068 8.25169C2.16157 10.0189 1.80716 12.0449 2.09997 14.0293C2.39278 16.0137 3.31723 17.851 4.73632 19.2689C6.1554 20.6867 7.9936 21.6097 9.97848 21.901C11.9634 22.1924 13.9893 21.8365 15.7561 20.8862C17.5228 19.9359 18.9363 18.4418 19.7871 16.6252C20.638 14.8087 20.8808 12.7663 20.4797 10.8009C20.4268 10.541 20.2728 10.3128 20.0517 10.1664C19.8305 10.02 19.5602 9.96745 19.3002 10.0203C19.0403 10.0732 18.812 10.2271 18.6656 10.4483C18.5192 10.6694 18.4666 10.9397 18.5195 11.1996C18.6164 11.6733 18.6653 12.1627 18.6662 12.6675C18.6662 14.6124 17.8935 16.4775 16.5181 17.8527C15.1428 19.2279 13.2774 20.0005 11.3323 20.0005C9.3872 20.0005 7.52179 19.2279 6.14641 17.8527C4.77104 16.4775 3.99836 14.6124 3.99836 12.6675ZM11.1509 9.33968C11.4158 9.32553 11.6642 9.20676 11.8415 9.00948C12.0188 8.8122 12.1105 8.55258 12.0963 8.28772C12.0822 8.02287 11.9634 7.77449 11.7661 7.59721C11.5688 7.41994 11.3091 7.32829 11.0443 7.34243C10.0201 7.39762 9.03352 7.7469 8.20282 8.34842C7.37211 8.94994 6.73247 9.77819 6.36054 10.7339C5.98862 11.6897 5.90018 12.7324 6.10583 13.7371C6.31147 14.7418 6.80248 15.6659 7.52001 16.3987C8.23755 17.1315 9.15118 17.6419 10.1514 17.8688C11.1517 18.0956 12.1962 18.0293 13.1597 17.6778C14.1232 17.3262 14.9649 16.7043 15.584 15.8866C16.203 15.069 16.5732 14.0902 16.65 13.0675C16.6697 12.803 16.5834 12.5415 16.4102 12.3406C16.2371 12.1397 15.9912 12.0158 15.7266 11.9962C15.4621 11.9766 15.2006 12.0628 14.9997 12.236C14.7987 12.4091 14.6748 12.655 14.6552 12.9195C14.6066 13.5583 14.3748 14.1696 13.9877 14.6802C13.6006 15.1907 13.0746 15.5789 12.4726 15.7982C11.8705 16.0176 11.218 16.0588 10.5932 15.917C9.96833 15.7751 9.3976 15.4562 8.94932 14.9985C8.50103 14.5407 8.19419 13.9634 8.06553 13.3358C7.93686 12.7082 7.99183 12.0568 8.22384 11.4596C8.45585 10.8624 8.85507 10.3447 9.37373 9.96849C9.89238 9.59229 10.5085 9.37351 11.1483 9.33834" fill="white"/>
</svg>
