<svg width="19" height="18" viewBox="0 0 19 18" fill="none" xmlns="http://www.w3.org/2000/svg">
<path d="M15.9653 0C16.761 0 17.524 0.316071 18.0867 0.87868C18.6493 1.44129 18.9653 2.20435 18.9653 3V15C18.9653 15.7956 18.6493 16.5587 18.0867 17.1213C17.524 17.6839 16.761 18 15.9653 18H3.96533C3.16968 18 2.40662 17.6839 1.84401 17.1213C1.2814 16.5587 0.965332 15.7956 0.965332 15V3C0.965332 2.20435 1.2814 1.44129 1.84401 0.87868C2.40662 0.316071 3.16968 0 3.96533 0H15.9653ZM15.9653 2H3.96533C3.70012 2 3.44576 2.10536 3.25823 2.29289C3.07069 2.48043 2.96533 2.73478 2.96533 3V15C2.96533 15.2652 3.07069 15.5196 3.25823 15.7071C3.44576 15.8946 3.70012 16 3.96533 16H15.9653C16.2305 16 16.4849 15.8946 16.6724 15.7071C16.86 15.5196 16.9653 15.2652 16.9653 15V3C16.9653 2.73478 16.86 2.48043 16.6724 2.29289C16.4849 2.10536 16.2305 2 15.9653 2ZM5.96533 7C6.21027 7.00003 6.44667 7.08996 6.6297 7.25272C6.81274 7.41547 6.92968 7.63975 6.95833 7.883L6.96533 8V13C6.96505 13.2549 6.86745 13.5 6.69248 13.6854C6.51751 13.8707 6.27838 13.9822 6.02394 13.9972C5.7695 14.0121 5.51895 13.9293 5.3235 13.7657C5.12805 13.6021 5.00244 13.3701 4.97233 13.117L4.96533 13V8C4.96533 7.73478 5.07069 7.48043 5.25823 7.29289C5.44576 7.10536 5.70012 7 5.96533 7ZM8.96533 6C9.19953 5.99996 9.4263 6.08213 9.60613 6.23216C9.78595 6.3822 9.90741 6.59059 9.94933 6.821C10.1506 6.70431 10.3586 6.59979 10.5723 6.508C11.2393 6.223 12.2383 6.066 13.1403 6.349C13.6133 6.499 14.0883 6.779 14.4403 7.256C14.7553 7.681 14.9253 8.198 14.9593 8.779L14.9653 9V13C14.965 13.2549 14.8675 13.5 14.6925 13.6854C14.5175 13.8707 14.2784 13.9822 14.0239 13.9972C13.7695 14.0121 13.519 13.9293 13.3235 13.7657C13.128 13.6021 13.0024 13.3701 12.9723 13.117L12.9653 13V9C12.9653 8.67 12.8853 8.516 12.8333 8.445C12.7587 8.35215 12.6558 8.28615 12.5403 8.257C12.1923 8.147 11.6913 8.205 11.3583 8.347C10.8583 8.561 10.4003 8.897 10.0883 9.208L9.96533 9.34V13C9.96505 13.2549 9.86745 13.5 9.69248 13.6854C9.51751 13.8707 9.27838 13.9822 9.02394 13.9972C8.7695 14.0121 8.51895 13.9293 8.3235 13.7657C8.12805 13.6021 8.00244 13.3701 7.97233 13.117L7.96533 13V7C7.96533 6.73478 8.07069 6.48043 8.25823 6.29289C8.44576 6.10536 8.70012 6 8.96533 6ZM5.96533 4C6.23055 4 6.4849 4.10536 6.67244 4.29289C6.85997 4.48043 6.96533 4.73478 6.96533 5C6.96533 5.26522 6.85997 5.51957 6.67244 5.70711C6.4849 5.89464 6.23055 6 5.96533 6C5.70012 6 5.44576 5.89464 5.25823 5.70711C5.07069 5.51957 4.96533 5.26522 4.96533 5C4.96533 4.73478 5.07069 4.48043 5.25823 4.29289C5.44576 4.10536 5.70012 4 5.96533 4Z" fill="#1ADC67"/>
</svg>
