<svg width="23" height="32" viewBox="0 0 23 32" fill="none" xmlns="http://www.w3.org/2000/svg">
<path d="M20.0742 4.33333H11.7408M11.7408 4.33333H7.57418C6.02708 4.33333 4.54335 4.94792 3.44939 6.04188C2.35543 7.13584 1.74084 8.61957 1.74084 10.1667C1.74084 11.7138 2.35543 13.1975 3.44939 14.2915C4.54335 15.3854 6.02708 16 7.57418 16H11.7408M11.7408 4.33333V1M11.7408 4.33333V16M11.7408 16H15.9075C16.6736 16 17.4321 16.1509 18.1398 16.444C18.8476 16.7372 19.4906 17.1669 20.0323 17.7085C20.574 18.2502 21.0037 18.8933 21.2968 19.601C21.59 20.3087 21.7408 21.0673 21.7408 21.8333C21.7408 22.5994 21.59 23.3579 21.2968 24.0657C21.0037 24.7734 20.574 25.4164 20.0323 25.9581C19.4906 26.4998 18.8476 26.9295 18.1398 27.2226C17.4321 27.5158 16.6736 27.6667 15.9075 27.6667H11.7408M11.7408 16V27.6667M11.7408 27.6667H1.74084M11.7408 27.6667V31" stroke="#1ADC67" stroke-width="2" stroke-linecap="round" stroke-linejoin="round"/>
</svg>
