<svg width="41" height="40" viewBox="0 0 41 40" fill="none" xmlns="http://www.w3.org/2000/svg">
<path d="M31.7301 35H28.7667C28.4215 35.0063 28.0788 34.941 27.7601 34.8083C26.7317 34.3483 26.2101 33.7417 25.9651 33.36C25.8989 33.2537 25.8667 33.1298 25.8726 33.0048C25.8786 32.8798 25.9225 32.7595 25.9984 32.66C27.1901 31.0133 29.9534 30.0183 31.7317 30.0183M31.7351 35.0017H34.7001C35.0434 35.0017 35.3884 34.95 35.7051 34.8083C36.7351 34.3483 37.2567 33.7417 37.5001 33.36C37.5665 33.2539 37.599 33.1301 37.5933 33.0051C37.5877 32.88 37.5441 32.7597 37.4684 32.66C36.2767 31.0133 33.5117 30.0183 31.7351 30.0183M10.1184 19.1533H7.1534C6.81007 19.1533 6.46507 19.1033 6.1484 18.9617C5.1184 18.5017 4.59674 17.895 4.3534 17.515C4.28702 17.4089 4.2545 17.2851 4.26015 17.1601C4.26581 17.035 4.30938 16.9147 4.38507 16.815C5.57674 15.1667 8.34174 14.1717 10.1184 14.1717M10.1234 19.155H13.0867C13.4317 19.155 13.7767 19.105 14.0934 18.9617C15.1217 18.5017 15.6434 17.895 15.8884 17.515C15.9546 17.4087 15.9868 17.2848 15.9808 17.1598C15.9749 17.0348 15.931 16.9145 15.8551 16.815C14.6634 15.1667 11.9001 14.1717 10.1217 14.1717M20.0717 6.66667C24.7601 6.66667 28.7601 6.66667 30.2167 8.13167C31.6734 9.59667 31.6734 11.12 31.6734 15.8367L28.3584 14.17M20.9001 33.3433C16.2117 33.3433 12.2117 33.3433 10.7551 31.8767C9.2984 30.4133 9.2984 28.8883 9.2984 24.1733L12.6134 25.84M10.1267 5C8.7534 5 7.64007 6.12 7.64007 7.5C7.64007 8.88333 8.7534 10.0017 10.1267 10.0017C11.5001 10.0017 12.6134 8.88167 12.6134 7.50167C12.6134 6.11667 11.5001 5 10.1267 5ZM31.6734 20.8383C30.3001 20.8383 29.1867 21.9583 29.1867 23.3383C29.1867 24.7217 30.3001 25.8383 31.6734 25.8383C33.0467 25.8383 34.1584 24.7217 34.1584 23.3383C34.1584 21.9583 33.0467 20.8383 31.6734 20.8383Z" stroke="#1ADC67" stroke-width="2" stroke-linecap="round" stroke-linejoin="round"/>
</svg>
