<svg width="34" height="29" viewBox="0 0 34 29" fill="none" xmlns="http://www.w3.org/2000/svg">
<path d="M4.42678 23.0334L6.22679 24.8334L2.39345 28.6334C1.92679 29.1167 1.09345 29.1167 0.626785 28.6334C0.160119 28.1501 0.143452 27.3334 0.626785 26.8667L4.42678 23.0334ZM27.4101 3.03341V0.666748L16.9268 11.1501L6.44345 0.666748V3.03341L15.7435 12.3334L9.42679 18.6834C7.46012 17.2834 4.72679 17.4501 2.97679 19.2001L10.0601 26.2834C11.8101 24.5334 11.9768 21.8001 10.5935 19.8334L27.4101 3.03341ZM33.2268 26.8667L29.4268 23.0334L27.6268 24.8334L31.4601 28.6334C31.9268 29.1167 32.7601 29.1167 33.2268 28.6334C33.6935 28.1501 33.7101 27.3334 33.2268 26.8667ZM24.4268 18.6834L19.2935 13.5167L18.1101 14.7001L23.2768 19.8334C21.8768 21.8001 22.0435 24.5334 23.7935 26.2834L30.8768 19.2001C29.1268 17.4501 26.3935 17.2834 24.4268 18.6834Z" fill="#1ADC67"/>
</svg>
