<svg width="25" height="24" viewBox="0 0 25 24" fill="none" xmlns="http://www.w3.org/2000/svg">
<path d="M4.92676 11.25C4.51254 11.25 4.17676 11.5858 4.17676 12C4.17676 12.4142 4.51254 12.75 4.92676 12.75V11.25ZM21.4571 12.5303C21.75 12.2374 21.75 11.7626 21.4571 11.4697L16.6841 6.6967C16.3912 6.40381 15.9164 6.40381 15.6235 6.6967C15.3306 6.98959 15.3306 7.46447 15.6235 7.75736L19.8661 12L15.6235 16.2426C15.3306 16.5355 15.3306 17.0104 15.6235 17.3033C15.9164 17.5962 16.3912 17.5962 16.6841 17.3033L21.4571 12.5303ZM4.92676 12.75H20.9268V11.25H4.92676V12.75Z" fill="white"/>
</svg>
