<svg width="25" height="24" viewBox="0 0 25 24" fill="none" xmlns="http://www.w3.org/2000/svg">
<path d="M22.9268 8.16204V8.23504C22.9268 9.09504 22.9268 9.52604 22.7198 9.87804C22.5128 10.23 22.1358 10.439 21.3838 10.858L20.5908 11.298C21.1368 9.45004 21.3198 7.46404 21.3868 5.76604L21.3968 5.54504L21.3988 5.49304C22.0498 5.71904 22.4158 5.88804 22.6438 6.20404C22.9268 6.59704 22.9268 7.11904 22.9268 8.16204ZM2.92676 8.16204V8.23504C2.92676 9.09504 2.92676 9.52604 3.13376 9.87804C3.34076 10.23 3.71776 10.439 4.46976 10.858L5.26376 11.298C4.71676 9.45004 4.53376 7.46404 4.46676 5.76604L4.45676 5.54504L4.45576 5.49304C3.80376 5.71904 3.43776 5.88804 3.20976 6.20404C2.92676 6.59704 2.92676 7.12004 2.92676 8.16204Z" fill="white"/>
<path fill-rule="evenodd" clip-rule="evenodd" d="M17.3038 2.34699C15.8569 2.10986 14.3929 1.99379 12.9268 1.99999C11.1438 1.99999 9.67376 2.15699 8.54976 2.34699C7.41076 2.53899 6.84176 2.63499 6.36576 3.22099C5.89076 3.80699 5.91576 4.43999 5.96576 5.70599C6.13876 10.054 7.07676 15.486 12.1768 15.966V19.5H10.7468C10.5157 19.5001 10.2918 19.5803 10.1131 19.7269C9.93444 19.8735 9.81206 20.0774 9.76676 20.304L9.57676 21.25H6.92676C6.72785 21.25 6.53709 21.329 6.39643 21.4697C6.25578 21.6103 6.17676 21.8011 6.17676 22C6.17676 22.1989 6.25578 22.3897 6.39643 22.5303C6.53709 22.671 6.72785 22.75 6.92676 22.75H18.9268C19.1257 22.75 19.3164 22.671 19.4571 22.5303C19.5977 22.3897 19.6768 22.1989 19.6768 22C19.6768 21.8011 19.5977 21.6103 19.4571 21.4697C19.3164 21.329 19.1257 21.25 18.9268 21.25H16.2768L16.0868 20.304C16.0415 20.0774 15.9191 19.8735 15.7404 19.7269C15.5618 19.5803 15.3379 19.5001 15.1068 19.5H13.6768V15.966C18.7768 15.486 19.7158 10.055 19.8878 5.70599C19.9378 4.43999 19.9638 3.80599 19.4878 3.22099C19.0118 2.63499 18.4428 2.53899 17.3038 2.34699Z" fill="white"/>
</svg>
